{
.appVersion = "1349";
classes = (
{
automatic = 1;

glyphs = (
{
glyphname = A;
lastChange = "2020-11-13 10:46:14 +0000";
layers = (
{
anchors = (
{
name = bottom;
position = "{351, 0}";
},
{
name = ogonek;
position = "{632, 10}";
},
{
name = top;
position = "{351, 670}";
}
);
layerId = "CF31647D-EA7E-42DE-ACE7-E9318D6117AA";
paths = (
{
closed = 1;
nodes = (
"210 0 LINE",
"210 35 LINE",
"128 35 LINE",
"123 40 LINE",
"326 575 LINE",
"331 575 LINE",
"520 40 LINE",
"515 35 LINE",
"450 35 LINE",
"450 0 LINE",
"687 0 LINE",
"687 35 LINE",
"619 35 LINE",
"390 670 LINE",
"315 670 LINE",
"73 35 LINE",
"15 35 LINE",
"15 0 LINE"
);
},
{
closed = 1;
nodes = (
"473 240 LINE",
"473 275 LINE",
"174 275 LINE",
"174 240 LINE"
);
}
);
width = 702;
},
{
associatedMasterId = "CF31647D-EA7E-42DE-ACE7-E9318D6117AA";
layerId = "25EC9FBE-A88A-4B7D-A850-3B841575AE57";
name = "Feb 1 18, 17:44";
paths = (
{
closed = 1;
nodes = (
"548 271 LINE",
"234 271 LINE",
"234 241 LINE",
"548 241 LINE"
);
},
{
closed = 1;
nodes = (
"558 30 LINE",
"476 30 LINE",
"476 0 LINE",
"737 0 LINE",
"737 30 LINE",
"656 30 LINE",
"445 670 LINE",
"357 670 LINE",
"131 30 LINE",
"50 30 LINE",
"50 0 LINE",
"247 0 LINE",
"247 30 LINE",
"170 30 LINE",
"373 611 LINE"
);
}
);
width = 600;
},
{
anchors = (
{
name = bottom;
position = "{359, 0}";
},
{
name = ogonek;
position = "{645, 10}";
},
{
name = top;
position = "{359, 670}";
}
);
layerId = "37DD2CA1-C758-4BBE-932B-6884A881B1A3";
paths = (
{
closed = 1;
nodes = (
"205 35 LINE",
"121 35 LINE",
"111 45 LINE",
"295 495 LINE",
"300 495 LINE",
"479 45 LINE",
"469 35 LINE",
"411 35 LINE",
"411 0 LINE",
"712 0 LINE",
"712 35 LINE",
"654 35 LINE",
"395 670 LINE",
"320 670 LINE",
"58 35 LINE",
"0 35 LINE",
"0 0 LINE",
"205 0 LINE"
);
},
{
closed = 1;
nodes = (
"169 220 LINE",
"495 220 LINE",
"495 255 LINE",
"169 255 LINE"
);
}
);
width = 717;
}
);
leftKerningGroup = A;
rightKerningGroup = A;
unicode = 0041;
},
{
glyphname = AE;
lastChange = "2020-09-26 19:51:51 +0000";
layers = (
{
anchors = (
{
name = bottom;
position = "{459, 0}";
},
{
name = top;
position = "{459, 670}";
}
);
layerId = "CF31647D-EA7E-42DE-ACE7-E9318D6117AA";
paths = (
{
closed = 1;
nodes = (
"217 240 LINE",
"483 240 LINE",
"483 275 LINE",
"217 275 LINE"
);
},
{
closed = 1;
nodes = (
"814 85 OFFCURVE",
"760 35 OFFCURVE",
"644 35 CURVE SMOOTH",
"528 35 LINE",
"523 40 LINE",
"523 330 LINE",
"606 330 LINE SMOOTH",
"663 330 OFFCURVE",
"691 308 OFFCURVE",
"696 220 CURVE",
"731 220 LINE",
"731 475 LINE",
"696 475 LINE",
"691 387 OFFCURVE",
"663 365 OFFCURVE",
"606 365 CURVE SMOOTH",
"523 365 LINE",
"523 630 LINE",
"528 635 LINE",
"634 635 LINE SMOOTH",
"750 635 OFFCURVE",
"799 605 OFFCURVE",
"827 500 CURVE",
"860 510 LINE",
"824 670 LINE",
"433 670 LINE",
"53 35 LINE",
"-5 35 LINE",
"-5 0 LINE",
"193 0 LINE",
"193 35 LINE",
"111 35 LINE",
"107 40 LINE",
"428 575 LINE",
"433 575 LINE",
"433 40 LINE",
"428 35 LINE",
"348 35 LINE",
"348 0 LINE",
"834 0 LINE",
"877 190 LINE",
"842 190 LINE"
);
}
);
width = 917;
},
{
anchors = (
{
name = bottom;
position = "{454, 0}";
},
{
name = top;
position = "{454, 670}";
}
);
layerId = "37DD2CA1-C758-4BBE-932B-6884A881B1A3";
paths = (
{
closed = 1;
nodes = (
"180 220 LINE",
"506 220 LINE",
"506 255 LINE",
"180 255 LINE"
);
},
{
closed = 1;
nodes = (
"799 85 OFFCURVE",
"715 35 OFFCURVE",
"619 35 CURVE SMOOTH",
"578 35 LINE",
"568 45 LINE",
"568 330 LINE",
"601 330 LINE SMOOTH",
"658 330 OFFCURVE",
"711 288 OFFCURVE",
"711 220 CURVE",
"746 220 LINE",
"746 475 LINE",
"711 475 LINE",
"711 407 OFFCURVE",
"658 365 OFFCURVE",
"601 365 CURVE SMOOTH",
"568 365 LINE",
"568 625 LINE",
"578 635 LINE",
"609 635 LINE SMOOTH",
"705 635 OFFCURVE",
"784 605 OFFCURVE",
"832 500 CURVE",
"865 510 LINE",
"829 670 LINE",
"411 670 LINE",
"38 35 LINE",
"-20 35 LINE",
"-20 0 LINE",
"190 0 LINE",
"190 35 LINE",
"106 35 LINE",
"98 45 LINE",
"408 579 LINE",
"413 579 LINE",
"413 45 LINE",
"403 35 LINE",
"348 35 LINE",
"348 0 LINE",
"839 0 LINE",
"882 190 LINE",
"847 190 LINE"
);
}
);
width = 906;
}
);
leftKerningGroup = A;
rightKerningGroup = E;
rightMetricsKey = "=E";
unicode = 00C6;
},
{
color = 0;
glyphname = B;
lastChange = "2020-11-13 10:44:33 +0000";
layers = (
{
anchors = (
{
name = bottom;
position = "{343, 0}";
},
{
name = top;
position = "{343, 670}";
}
);
components = (
{
name = _com_szeryf_caps;
transform = "{1, 0, 0, -1, 50, 670}";
},
{
name = _com_szeryf_caps;
transform = "{1, 0, 0, 1, 50, 0}";
}
);
layerId = "CF31647D-EA7E-42DE-ACE7-E9318D6117AA";
paths = (
{
closed = 1;
nodes = (
"395 0 LINE SMOOTH",
"499 0 OFFCURVE",
"645 73 OFFCURVE",
"645 191 CURVE SMOOTH",
"645 286 OFFCURVE",
"562 342 OFFCURVE",
"451 353 CURVE",
"543 382 OFFCURVE",
"605 436 OFFCURVE",
"605 513 CURVE SMOOTH",
"605 635 OFFCURVE",
"469 670 OFFCURVE",
"355 670 CURVE SMOOTH",
"255 670 LINE",
"255 635 LINE",
"335 635 LINE SMOOTH",
"429 635 OFFCURVE",
"510 594 OFFCURVE",
"510 505 CURVE SMOOTH",
"510 398 OFFCURVE",
"432 365 OFFCURVE",
"335 365 CURVE SMOOTH",
"225 365 LINE",
"225 650 LINE",
"135 650 LINE",
"135 20 LINE",
"225 20 LINE",
"225 330 LINE",
"375 330 LINE SMOOTH",
"469 330 OFFCURVE",
"550 272 OFFCURVE",
"550 183 CURVE SMOOTH",
"550 76 OFFCURVE",
"472 35 OFFCURVE",
"375 35 CURVE SMOOTH",
"265 35 LINE",
"265 0 LINE"
);
}
);
width = 680;
},
{
associatedMasterId = "CF31647D-EA7E-42DE-ACE7-E9318D6117AA";
layerId = "1CD4FF56-0815-4EA0-9AF3-5C8F5A32FB35";
name = "Feb 1 18, 18:28";
paths = (
{
closed = 1;
nodes = (
"133 0 LINE",
"223 0 LINE",
"257 0 LINE",
"333 0 LINE",
"355 0 OFFCURVE",
"377 0 OFFCURVE",
"395 0 CURVE",
"496 0 OFFCURVE",
"617 49 OFFCURVE",
"617 178 CURVE",
"617 272 OFFCURVE",
"541 326 OFFCURVE",
"449 346 CURVE",
"521 368 OFFCURVE",
"589 414 OFFCURVE",
"589 499 CURVE",
"589 602 OFFCURVE",
"515 670 OFFCURVE",
"388 670 CURVE",
"223 670 LINE",
"50 670 LINE",
"50 640 LINE",
"133 640 LINE",
"133 30 LINE",
"50 30 LINE",
"50 0 LINE"
);
},
{
closed = 1;
nodes = (
"223 326 LINE",
"232 326 OFFCURVE",
"368 326 OFFCURVE",
"382 326 CURVE",
"485 326 OFFCURVE",
"528 252 OFFCURVE",
"528 181 CURVE",
"528 97 OFFCURVE",
"473 30 OFFCURVE",
"380 30 CURVE",
"374 30 OFFCURVE",
"223 30 OFFCURVE",
"223 30 CURVE"
);
},
{
closed = 1;
nodes = (
"223 640 LINE",
"259 640 OFFCURVE",
"330 640 OFFCURVE",
"351 640 CURVE",
"454 640 OFFCURVE",
"499 570 OFFCURVE",
"499 501 CURVE",
"499 420 OFFCURVE",
"449 356 OFFCURVE",
"356 356 CURVE",
"347 356 OFFCURVE",
"232 356 OFFCURVE",
"223 356 CURVE"
);
}
);
width = 600;
},
{
anchors = (
{
name = bottom;
position = "{343, 0}";
},
{
name = top;
position = "{343, 670}";
}
);
components = (
{
name = _com_szeryf_caps;
transform = "{1, 0, 0, -1, 10, 670}";
},
{
name = _com_szeryf_caps;
transform = "{1, 0, 0, 1, 10, 0}";
}
);
layerId = "37DD2CA1-C758-4BBE-932B-6884A881B1A3";
paths = (
{
closed = 1;
nodes = (
"415 0 LINE SMOOTH",
"529 0 OFFCURVE",
"665 60 OFFCURVE",
"665 183 CURVE SMOOTH",
"665 271 OFFCURVE",
"584 340 OFFCURVE",
"456 350 CURVE",
"579 373 OFFCURVE",
"635 432 OFFCURVE",
"635 509 CURVE SMOOTH",
"635 626 OFFCURVE",
"509 670 OFFCURVE",
"385 670 CURVE SMOOTH",
"275 670 LINE",
"275 635 LINE",
"345 635 LINE SMOOTH",
"409 635 OFFCURVE",
"470 579 OFFCURVE",
"470 495 CURVE SMOOTH",
"470 393 OFFCURVE",
"412 355 OFFCURVE",
"345 355 CURVE SMOOTH",
"250 355 LINE",
"250 630 LINE",
"95 650 LINE",
"95 20 LINE",
"250 20 LINE",
"250 320 LINE",
"375 320 LINE SMOOTH",
"439 320 OFFCURVE",
"500 259 OFFCURVE",
"500 175 CURVE SMOOTH",
"500 73 OFFCURVE",
"442 35 OFFCURVE",
"375 35 CURVE SMOOTH",
"265 35 LINE",
"265 0 LINE"
);
}
);
width = 693;
}
);
leftMetricsKey = "=H";
rightKerningGroup = B;
rightMetricsKey = "=O*0.7";
unicode = 0042;
},
{
glyphname = C;
lastChange = "2019-09-11 14:23:14 +0000";
layers = (
{
anchors = (
{
name = bottom;
position = "{383, 0}";
},
{
name = top;
position = "{383, 670}";
}
);
guideLines = (
{
angle = 102.68;
position = "{655, 467}";
}
);
layerId = "CF31647D-EA7E-42DE-ACE7-E9318D6117AA";
paths = (
{
closed = 1;
nodes = (
"239 35 OFFCURVE",
"145 158 OFFCURVE",
"145 337 CURVE SMOOTH",
"145 515 OFFCURVE",
"238 640 OFFCURVE",
"384 640 CURVE SMOOTH",
"453 640 OFFCURVE",
"558 612 OFFCURVE",
"607 467 CURVE",
"640 477 LINE",
"626 540 OFFCURVE",
"615 602 OFFCURVE",
"610 670 CURVE",
"575 670 LINE",
"554 630 LINE",
"506 661 OFFCURVE",
"454 680 OFFCURVE",
"387 680 CURVE SMOOTH",
"202 680 OFFCURVE",
"50 535 OFFCURVE",
"50 330 CURVE SMOOTH",
"50 136 OFFCURVE",
"186 -10 OFFCURVE",
"369 -10 CURVE SMOOTH",
"370 -10 LINE SMOOTH",
"493 -10 OFFCURVE",
"584 45 OFFCURVE",
"655 139 CURVE",
"628 162 LINE",
"554 77 OFFCURVE",
"474 35 OFFCURVE",
"387 35 CURVE SMOOTH"
);
}
);
width = 685;
},
{
associatedMasterId = "CF31647D-EA7E-42DE-ACE7-E9318D6117AA";
layerId = "9D8B59A9-6F27-42AB-A2CD-78294335CAC1";
name = "Jan 31 18, 16:07";
paths = (
{
closed = 1;
nodes = (
"296 32 OFFCURVE",
"137 87 OFFCURVE",
"137 322 CURVE SMOOTH",
"137 584 OFFCURVE",
"298 638 OFFCURVE",
"387 638 CURVE SMOOTH",
"457 638 OFFCURVE",
"573 610 OFFCURVE",
"622 449 CURVE",
"654 457 LINE",
"654 459 OFFCURVE",
"622 596 OFFCURVE",
"622 663 CURVE",
"591 660 LINE",
"571 620 LINE",
"544 636 OFFCURVE",
"494 673 OFFCURVE",
"374 673 CURVE SMOOTH",
"251 673 OFFCURVE",
"50 572 OFFCURVE",
"50 322 CURVE SMOOTH",
"50 127 OFFCURVE",
"230 -3 OFFCURVE",
"374 -3 CURVE SMOOTH",
"487 -3 OFFCURVE",
"598 63 OFFCURVE",
"653 158 CURVE",
"626 172 LINE",
"576 85 OFFCURVE",
"476 32 OFFCURVE",
"387 32 CURVE SMOOTH"
);
}
);
width = 600;
},
{
anchors = (
{
name = bottom;
position = "{393, 0}";
},
{
name = top;
position = "{393, 670}";
}
);
guideLines = (
{
angle = 196.858;
position = "{624, 442}";
},
{
angle = 242.301;
position = "{565, 650}";
}
);
layerId = "37DD2CA1-C758-4BBE-932B-6884A881B1A3";
paths = (
{
closed = 1;
nodes = (
"268 40 OFFCURVE",
"205 176 OFFCURVE",
"205 339 CURVE SMOOTH",
"205 503 OFFCURVE",
"269 640 OFFCURVE",
"392 640 CURVE SMOOTH",
"473 640 OFFCURVE",
"547 581 OFFCURVE",
"602 437 CURVE",
"635 447 LINE",
"623 510 OFFCURVE",
"615 602 OFFCURVE",
"610 670 CURVE",
"575 670 LINE",
"560 640 LINE",
"520 661 OFFCURVE",
"466 680 OFFCURVE",
"395 680 CURVE SMOOTH",
"197 680 OFFCURVE",
"40 535 OFFCURVE",
"40 331 CURVE SMOOTH",
"40 135 OFFCURVE",
"186 -10 OFFCURVE",
"379 -10 CURVE SMOOTH",
"380 -10 LINE SMOOTH",
"503 -10 OFFCURVE",
"594 55 OFFCURVE",
"665 149 CURVE",
"638 172 LINE",
"569 92 OFFCURVE",
"496 40 OFFCURVE",
"409 40 CURVE SMOOTH"
);
}
);
width = 685;
}
);
leftKerningGroup = O;
leftMetricsKey = "=O";
rightKerningGroup = O;
unicode = 0043;
},
{
color = 0;
glyphname = D;
lastChange = "2020-11-13 10:41:42 +0000";
layers = (
{
anchors = (
{
name = bottom;
position = "{375, 0}";
},
{
name = center;
position = "{180, 335}";
},
{
name = top;
position = "{375, 670}";
}
);
components = (
{
name = _com_szeryf_caps;
transform = "{1, 0, 0, 1, 50, 0}";
},
{
name = _com_szeryf_caps;
transform = "{1, 0, 0, -1, 50, 670}";
}
);
layerId = "CF31647D-EA7E-42DE-ACE7-E9318D6117AA";
paths = (
{
closed = 1;
nodes = (
"225 20 LINE",
"225 650 LINE",
"135 650 LINE",
"135 20 LINE"
);
},
{
closed = 1;
nodes = (
"310 35 LINE",
"310 0 LINE",
"360 0 LINE",
"554 0 OFFCURVE",
"700 147 OFFCURVE",
"700 345 CURVE SMOOTH",
"700 547 OFFCURVE",
"564 670 OFFCURVE",
"360 670 CURVE",
"310 670 LINE",
"310 635 LINE",
"340 635 LINE",
"504 635 OFFCURVE",
"605 509 OFFCURVE",
"605 335 CURVE SMOOTH",
"605 153 OFFCURVE",
"507 35 OFFCURVE",
"360 35 CURVE"
);
}
);
width = 750;
},
{
associatedMasterId = "CF31647D-EA7E-42DE-ACE7-E9318D6117AA";
layerId = "F372716C-5DCA-4415-A69B-0054514E074E";
name = "Jan 30 18, 19:51";
paths = (
{
closed = 1;
nodes = (
"50 0 OFFCURVE",
"281 0 OFFCURVE",
"335 0 CURVE",
"459 0 OFFCURVE",
"660 75 OFFCURVE",
"660 343 CURVE",
"660 611 OFFCURVE",
"429 670 OFFCURVE",
"335 670 CURVE",
"280 670 OFFCURVE",
"50 670 OFFCURVE",
"50 670 CURVE",
"50 640 LINE",
"133 640 LINE",
"133 30 LINE",
"50 30 LINE",
"50 0 LINE"
);
},
{
closed = 1;
nodes = (
"223 30 LINE",
"223 640 LINE",
"242 640 OFFCURVE",
"272 640 OFFCURVE",
"301 640 CURVE",
"516 640 OFFCURVE",
"569 475 OFFCURVE",
"569 343 CURVE",
"569 219 OFFCURVE",
"523 29 OFFCURVE",
"301 29 CURVE",
"274 29 OFFCURVE",
"242 29 OFFCURVE",
"223 29 CURVE"
);
}
);
width = 600;
},
{
anchors = (
{
name = bottom;
position = "{378, 0}";
},
{
name = center;
position = "{178, 335}";
},
{
name = top;
position = "{378, 670}";
}
);
components = (
{
name = _com_szeryf_caps;
transform = "{1, 0, 0, 1, 10, 0}";
},
{
name = _com_szeryf_caps;
transform = "{1, 0, 0, -1, 10, 670}";
}
);
layerId = "37DD2CA1-C758-4BBE-932B-6884A881B1A3";
paths = (
{
closed = 1;
nodes = (
"250 20 LINE",
"250 650 LINE",
"95 650 LINE",
"95 20 LINE"
);
},
{
closed = 1;
nodes = (
"285 35 LINE",
"285 0 LINE",
"375 0 LINE SMOOTH",
"539 0 OFFCURVE",
"715 130 OFFCURVE",
"715 353 CURVE SMOOTH",
"715 580 OFFCURVE",
"549 670 OFFCURVE",
"375 670 CURVE SMOOTH",
"285 670 LINE",
"285 635 LINE",
"335 635 LINE SMOOTH",
"449 635 OFFCURVE",
"550 519 OFFCURVE",
"550 335 CURVE SMOOTH",
"550 143 OFFCURVE",
"452 35 OFFCURVE",
"335 35 CURVE SMOOTH"
);
}
);
width = 755;
}
);
leftMetricsKey = "=H";
rightKerningGroup = O;
rightMetricsKey = "=O";
unicode = 0044;
},
{
color = 0;
glyphname = E;
lastChange = "2020-11-13 10:41:42 +0000";
layers = (
{
anchors = (
{
name = bottom;
position = "{330, 0}";
},
{
name = ogonek;
position = "{556, 0}";
},
{
name = top;
position = "{330, 670}";
},
{
name = topleft;
position = "{20, 670}";
}
);
components = (
{
name = _com_szeryf_caps;
transform = "{1, 0, 0, 1, 50, 0}";
},
{
name = _com_szeryf_caps;
transform = "{1, 0, 0, -1, 50, 670}";
}
);
guideLines = (
{
angle = 102.68;
position = "{544, 590}";
}
);
layerId = "CF31647D-EA7E-42DE-ACE7-E9318D6117AA";
paths = (
{
closed = 1;
nodes = (
"225 20 LINE",
"225 650 LINE",
"135 650 LINE",
"135 20 LINE"
);
},
{
closed = 1;
nodes = (
"292 635 LINE",
"356 635 LINE",
"472 635 OFFCURVE",
"521 605 OFFCURVE",
"549 500 CURVE",
"582 510 LINE",
"546 670 LINE",
"292 670 LINE"
);
},
{
closed = 1;
nodes = (
"413 387 OFFCURVE",
"385 365 OFFCURVE",
"328 365 CURVE SMOOTH",
"225 365 LINE",
"225 330 LINE",
"328 330 LINE SMOOTH",
"385 330 OFFCURVE",
"413 308 OFFCURVE",
"418 220 CURVE",
"453 220 LINE",
"453 475 LINE",
"418 475 LINE"
);
},
{
closed = 1;
nodes = (
"556 0 LINE",
"599 190 LINE",
"564 190 LINE",
"536 85 OFFCURVE",
"482 35 OFFCURVE",
"366 35 CURVE",
"296 35 LINE",
"296 0 LINE",
"366 0 LINE"
);
}
);
width = 639;
},
{
anchors = (
{
name = bottom;
position = "{314, 0}";
},
{
name = ogonek;
position = "{541, 0}";
},
{
name = top;
position = "{314, 670}";
},
{
name = topleft;
position = "{20, 670}";
}
);
components = (
{
name = _com_szeryf_caps;
transform = "{1, 0, 0, 1, 10, 0}";
},
{
name = _com_szeryf_caps;
transform = "{1, 0, 0, -1, 10, 670}";
}
);
guideLines = (
{
angle = 77.2479;
position = "{563, 95}";
}
);
layerId = "37DD2CA1-C758-4BBE-932B-6884A881B1A3";
paths = (
{
closed = 1;
nodes = (
"250 20 LINE",
"250 650 LINE",
"95 650 LINE",
"95 20 LINE"
);
},
{
closed = 1;
nodes = (
"267 635 LINE",
"311 635 LINE",
"407 635 OFFCURVE",
"486 605 OFFCURVE",
"534 500 CURVE",
"567 510 LINE",
"531 670 LINE",
"267 670 LINE"
);
},
{
closed = 1;
nodes = (
"413 407 OFFCURVE",
"360 365 OFFCURVE",
"303 365 CURVE SMOOTH",
"250 365 LINE",
"250 330 LINE",
"303 330 LINE SMOOTH",
"360 330 OFFCURVE",
"413 288 OFFCURVE",
"413 220 CURVE",
"448 220 LINE",
"448 475 LINE",
"413 475 LINE"
);
},
{
closed = 1;
nodes = (
"541 0 LINE",
"584 190 LINE",
"549 190 LINE",
"501 85 OFFCURVE",
"417 35 OFFCURVE",
"321 35 CURVE",
"271 35 LINE",
"271 0 LINE",
"321 0 LINE"
);
}
);
width = 608;
}
);
leftMetricsKey = "=H";
rightMetricsKey = "=H*0.8";
unicode = 0045;
},
{
color = 0;
glyphname = F;
lastChange = "2020-11-13 10:41:42 +0000";
layers = (
{
anchors = (
{
name = bottom;
position = "{285, 0}";
},
{
name = top;
position = "{285, 670}";
}
);
components = (
{
name = _com_szeryf_caps;
transform = "{1, 0, 0, -1, 50, 670}";
},
{
name = _com_szeryf_caps_long;
}
);
layerId = "CF31647D-EA7E-42DE-ACE7-E9318D6117AA";
paths = (
{
closed = 1;
nodes = (
"225 20 LINE",
"225 650 LINE",
"135 650 LINE",
"135 20 LINE"
);
},
{
closed = 1;
nodes = (
"292 635 LINE",
"326 635 LINE",
"442 635 OFFCURVE",
"491 605 OFFCURVE",
"519 500 CURVE",
"552 510 LINE",
"516 670 LINE",
"292 670 LINE"
);
},
{
closed = 1;
nodes = (
"423 367 OFFCURVE",
"395 345 OFFCURVE",
"338 345 CURVE SMOOTH",
"225 345 LINE",
"225 310 LINE",
"338 310 LINE SMOOTH",
"395 310 OFFCURVE",
"423 288 OFFCURVE",
"428 200 CURVE",
"463 200 LINE",
"463 455 LINE",
"428 455 LINE"
);
}
);
width = 580;
},
{
anchors = (
{
name = bottom;
position = "{282, 0}";
},
{
name = top;
position = "{282, 670}";
}
);
components = (
{
name = _com_szeryf_caps;
transform = "{1, 0, 0, -1, 10, 670}";
},
{
name = _com_szeryf_caps_long;
transform = "{1, 0, 0, 1, -40, 0}";
}
);
layerId = "37DD2CA1-C758-4BBE-932B-6884A881B1A3";
paths = (
{
closed = 1;
nodes = (
"250 20 LINE",
"250 650 LINE",
"95 650 LINE",
"95 20 LINE"
);
},
{
closed = 1;
nodes = (
"267 635 LINE",
"291 635 LINE",
"387 635 OFFCURVE",
"466 605 OFFCURVE",
"514 500 CURVE",
"547 510 LINE",
"511 670 LINE",
"267 670 LINE"
);
},
{
closed = 1;
nodes = (
"433 387 OFFCURVE",
"380 345 OFFCURVE",
"323 345 CURVE SMOOTH",
"250 345 LINE",
"250 310 LINE",
"323 310 LINE SMOOTH",
"380 310 OFFCURVE",
"433 268 OFFCURVE",
"433 200 CURVE",
"468 200 LINE",
"468 455 LINE",
"433 455 LINE"
);
}
);
width = 564;
}
);
leftMetricsKey = "=H";
rightKerningGroup = F;
rightMetricsKey = "=E*0.7";
unicode = 0046;
},
{
glyphname = G;
lastChange = "2020-09-26 19:43:55 +0000";
layers = (
{
anchors = (
{
name = bottom;
position = "{374, 0}";
},
{
name = top;
position = "{384, 670}";
}
);
guideLines = (
{
angle = 118.202;
position = "{593, 35}";
}
);
layerId = "CF31647D-EA7E-42DE-ACE7-E9318D6117AA";
paths = (
{
closed = 1;
nodes = (
"476 285 LINE",
"556 285 LINE",
"561 280 LINE",
"561 222 LINE SMOOTH",
"561 98 OFFCURVE",
"482 35 OFFCURVE",
"379 35 CURVE SMOOTH",
"235 35 OFFCURVE",
"145 160 OFFCURVE",
"145 337 CURVE SMOOTH",
"145 513 OFFCURVE",
"235 640 OFFCURVE",
"388 640 CURVE SMOOTH",
"469 640 OFFCURVE",
"571 605 OFFCURVE",
"617 467 CURVE",
"650 477 LINE",
"636 540 OFFCURVE",
"625 602 OFFCURVE",
"620 670 CURVE",
"585 670 LINE",
"564 630 LINE",
"520 659 OFFCURVE",
"464 680 OFFCURVE",
"391 680 CURVE SMOOTH",
"200 680 OFFCURVE",
"50 535 OFFCURVE",
"50 330 CURVE SMOOTH",
"50 135 OFFCURVE",
"186 -10 OFFCURVE",
"369 -10 CURVE SMOOTH",
"370 -10 LINE SMOOTH",
"458 -10 OFFCURVE",
"513 18 OFFCURVE",
"567 74 CURVE",
"572 74 LINE",
"611 0 LINE",
"646 0 LINE",
"646 280 LINE",
"651 285 LINE",
"711 285 LINE",
"711 320 LINE",
"476 320 LINE"
);
}
);
width = 743;
},
{
associatedMasterId = "CF31647D-EA7E-42DE-ACE7-E9318D6117AA";
layerId = "F0AD20AD-5861-4F7B-8440-362CC634E789";
name = "Jan 31 18, 16:27";
paths = (
{
closed = 1;
nodes = (
"465 -3 OFFCURVE",
"555 38 OFFCURVE",
"587 78 CURVE",
"627 18 LINE",
"654 18 LINE",
"654 287 LINE",
"729 287 LINE",
"729 317 LINE",
"464 317 LINE",
"464 287 LINE",
"564 287 LINE",
"564 177 LINE",
"564 113 OFFCURVE",
"478 32 OFFCURVE",
"387 32 CURVE",
"296 32 OFFCURVE",
"137 87 OFFCURVE",
"137 322 CURVE",
"137 584 OFFCURVE",
"298 638 OFFCURVE",
"387 638 CURVE",
"457 638 OFFCURVE",
"573 610 OFFCURVE",
"622 449 CURVE",
"654 457 LINE",
"654 459 OFFCURVE",
"627 581 OFFCURVE",
"627 648 CURVE",
"585 658 LINE",
"564 624 LINE",
"564 624 OFFCURVE",
"492 673 OFFCURVE",
"374 673 CURVE",
"251 673 OFFCURVE",
"50 572 OFFCURVE",
"50 322 CURVE",
"50 127 OFFCURVE",
"230 -3 OFFCURVE",
"374 -3 CURVE"
);
}
);
width = 600;
},
{
anchors = (
{
name = bottom;
position = "{365, 0}";
},
{
name = top;
position = "{395, 670}";
}
);
guideLines = (
{
angle = 141.34;
position = "{616, 0}";
}
);
layerId = "37DD2CA1-C758-4BBE-932B-6884A881B1A3";
paths = (
{
closed = 1;
nodes = (
"456 285 LINE",
"521 285 LINE",
"531 275 LINE",
"531 222 LINE SMOOTH",
"531 108 OFFCURVE",
"465 40 OFFCURVE",
"379 40 CURVE SMOOTH",
"262 40 OFFCURVE",
"205 166 OFFCURVE",
"205 333 CURVE SMOOTH",
"205 502 OFFCURVE",
"263 640 OFFCURVE",
"400 640 CURVE SMOOTH",
"485 640 OFFCURVE",
"566 586 OFFCURVE",
"622 437 CURVE",
"655 447 LINE",
"643 510 OFFCURVE",
"635 602 OFFCURVE",
"630 670 CURVE",
"595 670 LINE",
"580 640 LINE",
"545 659 OFFCURVE",
"485 680 OFFCURVE",
"404 680 CURVE SMOOTH",
"190 680 OFFCURVE",
"40 535 OFFCURVE",
"40 327 CURVE SMOOTH",
"40 137 OFFCURVE",
"166 -10 OFFCURVE",
"359 -10 CURVE SMOOTH",
"360 -10 LINE SMOOTH",
"459 -10 OFFCURVE",
"496 21 OFFCURVE",
"540 65 CURVE",
"545 65 LINE",
"626 0 LINE",
"661 0 LINE",
"661 275 LINE",
"671 285 LINE",
"706 285 LINE",
"706 320 LINE",
"456 320 LINE"
);
}
);
width = 730;
},
{
associatedMasterId = "37DD2CA1-C758-4BBE-932B-6884A881B1A3";
guideLines = (
{
angle = 141.34;
position = "{626, 0}";
}
);
layerId = "6F619CA2-13C3-4D67-8BFD-E6DE899E579E";
name = "Feb 14 18, 16:43";
paths = (
{
closed = 1;
nodes = (
"446 285 LINE",
"511 285 LINE",
"521 275 LINE",
"521 89 LINE",
"479 51 OFFCURVE",
"430 30 OFFCURVE",
"370 30 CURVE SMOOTH",
"264 30 OFFCURVE",
"205 166 OFFCURVE",
"205 343 CURVE SMOOTH",
"205 503 OFFCURVE",
"272 640 OFFCURVE",
"389 640 CURVE SMOOTH",
"479 640 OFFCURVE",
"553 590 OFFCURVE",
"612 437 CURVE",
"645 447 LINE",
"633 510 OFFCURVE",
"625 602 OFFCURVE",
"620 670 CURVE",
"585 670 LINE",
"570 640 LINE",
"521 665 OFFCURVE",
"475 680 OFFCURVE",
"386 680 CURVE SMOOTH",
"202 680 OFFCURVE",
"40 535 OFFCURVE",
"40 331 CURVE SMOOTH",
"40 135 OFFCURVE",
"166 -10 OFFCURVE",
"359 -10 CURVE SMOOTH",
"360 -10 LINE SMOOTH",
"449 -10 OFFCURVE",
"495 16 OFFCURVE",
"547 60 CURVE",
"552 60 LINE",
"626 0 LINE",
"661 0 LINE",
"661 275 LINE",
"671 285 LINE",
"706 285 LINE",
"706 320 LINE",
"446 320 LINE"
);
}
);
width = 730;
}
);
leftKerningGroup = O;
leftMetricsKey = "=O";
rightMetricsKey = "=u";
unicode = 0047;
},
{
glyphname = H;
lastChange = "2020-09-27 07:44:49 +0000";
layers = (
{
anchors = (
{
name = bottom;
position = "{390, 0}";
},
{
name = center;
position = "{390, 505}";
},
{
name = right_bottom;
position = "{730, 35}";
},
{
name = top;
position = "{390, 670}";
},
{
name = topleft;
position = "{20, 670}";
}
);
components = (
{
name = I;
transform = "{1, 0, 0, 1, -20, 0}";
},
{
name = I;
transform = "{1, 0, 0, 1, 400, 0}";
}
);
layerId = "CF31647D-EA7E-42DE-ACE7-E9318D6117AA";
paths = (
{
closed = 1;
nodes = (
"205 330 LINE",
"575 330 LINE",
"575 365 LINE",
"205 365 LINE"
);
}
);
width = 780;
},
{
anchors = (
{
name = bottom;
position = "{383, 0}";
},
{
name = center;
position = "{383, 505}";
},
{
name = right_bottom;
position = "{735, 35}";
},
{
name = top;
position = "{383, 670}";
},
{
name = topleft;
position = "{20, 670}";
}
);
components = (
{
name = I;
transform = "{1, 0, 0, 1, -10, 0}";
},
{
name = I;
transform = "{1, 0, 0, 1, 410, 0}";
}
);
layerId = "37DD2CA1-C758-4BBE-932B-6884A881B1A3";
paths = (
{
closed = 1;
nodes = (
"215 330 LINE",
"585 330 LINE",
"585 365 LINE",
"215 365 LINE"
);
}
);
width = 765;
}
);
unicode = 0048;
},
{
color = 0;
glyphname = I;
lastChange = "2020-11-13 10:41:42 +0000";
layers = (
{
anchors = (
{
name = bottom;
position = "{200, 0}";
},
{
name = ogonek;
position = "{255, 0}";
},
{
name = top;
position = "{200, 670}";
},
{
name = topleft;
position = "{20, 670}";
}
);
components = (
{
name = _com_szeryf_caps;
transform = "{1, 0, 0, 1, 70, 0}";
},
{
name = _com_szeryf_caps;
transform = "{1, 0, 0, -1, 70, 670}";
}
);
layerId = "CF31647D-EA7E-42DE-ACE7-E9318D6117AA";
paths = (
{
closed = 1;
nodes = (
"245 20 LINE",
"245 650 LINE",
"155 650 LINE",
"155 20 LINE"
);
}
);
width = 400;
},
{
anchors = (
{
name = bottom;
position = "{183, 0}";
},
{
name = ogonek;
position = "{250, 0}";
},
{
name = top;
position = "{183, 670}";
},
{
name = topleft;
position = "{20, 670}";
}
);
components = (
{
name = _com_szeryf_caps;
transform = "{1, 0, 0, 1, 20, 0}";
},
{
name = _com_szeryf_caps;
transform = "{1, 0, 0, -1, 20, 670}";
}
);
layerId = "37DD2CA1-C758-4BBE-932B-6884A881B1A3";
paths = (
{
closed = 1;
nodes = (
"260 20 LINE",
"260 650 LINE",
"105 650 LINE",
"105 20 LINE"
);
}
);
width = 365;
}
);
unicode = 0049;
},
{
color = 0;
glyphname = J;
lastChange = "2020-11-13 10:41:42 +0000";
layers = (
{
anchors = (
{
name = bottom;
position = "{200, 0}";
},
{
name = top;
position = "{260, 670}";
}
);
components = (
{
name = _com_szeryf_caps;
transform = "{1, 0, 0, -1, 129, 670}";
}
);
layerId = "CF31647D-EA7E-42DE-ACE7-E9318D6117AA";
paths = (
{
closed = 1;
nodes = (
"304 150 LINE",
"304 650 LINE",
"214 650 LINE",
"214 130 LINE"
);
},
{
closed = 1;
nodes = (
"224 -10 OFFCURVE",
"304 25 OFFCURVE",
"304 150 CURVE",
"214 130 LINE",
"214 57 OFFCURVE",
"173 30 OFFCURVE",
"137 30 CURVE SMOOTH",
"94 30 OFFCURVE",
"75 52 OFFCURVE",
"59 84 CURVE",
"29 84 LINE",
"38 74 OFFCURVE",
"58 65 OFFCURVE",
"70 65 CURVE SMOOTH",
"100 65 OFFCURVE",
"125 90 OFFCURVE",
"125 120 CURVE SMOOTH",
"125 150 OFFCURVE",
"100 175 OFFCURVE",
"70 175 CURVE SMOOTH",
"40 175 OFFCURVE",
"10 150 OFFCURVE",
"10 110 CURVE SMOOTH",
"10 45 OFFCURVE",
"68 -10 OFFCURVE",
"150 -10 CURVE SMOOTH"
);
}
);
width = 424;
},
{
anchors = (
{
name = bottom;
position = "{221, 0}";
},
{
name = top;
position = "{221, 670}";
}
);
components = (
{
name = _com_szeryf_caps;
transform = "{1, 0, 0, -1, 126, 670}";
}
);
layerId = "37DD2CA1-C758-4BBE-932B-6884A881B1A3";
paths = (
{
closed = 1;
nodes = (
"367 196 LINE",
"367 650 LINE",
"211 650 LINE",
"212 140 LINE"
);
},
{
closed = 1;
nodes = (
"242 -10 OFFCURVE",
"367 31 OFFCURVE",
"367 196 CURVE",
"212 140 LINE",
"212 54 OFFCURVE",
"181 25 OFFCURVE",
"142 25 CURVE SMOOTH",
"89 25 OFFCURVE",
"72 80 OFFCURVE",
"72 97 CURVE",
"42 97 LINE",
"42 73 OFFCURVE",
"46 30 OFFCURVE",
"85 30 CURVE",
"125 30 OFFCURVE",
"160 62 OFFCURVE",
"160 105 CURVE SMOOTH",
"160 148 OFFCURVE",
"128 180 OFFCURVE",
"85 180 CURVE SMOOTH",
"42 180 OFFCURVE",
"10 148 OFFCURVE",
"10 98 CURVE SMOOTH",
"10 45 OFFCURVE",
"53 -10 OFFCURVE",
"152 -10 CURVE SMOOTH"
);
}
);
width = 452;
}
);
leftKerningGroup = J;
rightKerningGroup = U;
rightMetricsKey = "=U";
unicode = 004A;
},
{
glyphname = K;
lastChange = "2019-09-09 14:37:26 +0000";
layers = (
{
anchors = (
{
name = bottom;
position = "{353, 0}";
},
{
name = top;
position = "{353, 670}";
}
);
components = (
{
name = I;
transform = "{1, 0, 0, 1, -20, 0}";
}
);
layerId = "CF31647D-EA7E-42DE-ACE7-E9318D6117AA";
paths = (
{
closed = 1;
nodes = (
"705 0 LINE",
"705 35 LINE",
"630 35 LINE",
"352 414 LINE",
"286 352 LINE",
"516 40 LINE",
"511 35 LINE",
"431 35 LINE",
"431 0 LINE"
);
},
{
closed = 1;
nodes = (
"220 268 LINE",
"610 635 LINE",
"665 635 LINE",
"665 670 LINE",
"431 670 LINE",
"431 635 LINE",
"537 635 LINE",
"542 630 LINE",
"160 268 LINE"
);
}
);
width = 705;
},
{
associatedMasterId = "CF31647D-EA7E-42DE-ACE7-E9318D6117AA";
layerId = "AC6B2EDA-1A96-45F8-A160-3DF85404DFC1";
name = "Feb 1 18, 18:00";
paths = (
{
closed = 1;
nodes = (
"277 0 LINE",
"277 30 LINE",
"223 30 LINE",
"223 640 LINE",
"285 640 LINE",
"285 670 LINE",
"50 670 LINE",
"50 640 LINE",
"133 640 LINE",
"133 30 LINE",
"50 30 LINE",
"50 0 LINE"
);
},
{
closed = 1;
nodes = (
"699 -1 LINE",
"699 29 LINE",
"443 29 LINE",
"443 -1 LINE"
);
},
{
closed = 1;
nodes = (
"644 7 LINE",
"334 398 LINE",
"270 340 LINE",
"534 7 LINE"
);
},
{
closed = 1;
nodes = (
"599 651 LINE",
"552 647 LINE",
"209 297 LINE",
"209 253 LINE"
);
},
{
closed = 1;
nodes = (
"657 640 LINE",
"657 670 LINE",
"443 670 LINE",
"443 640 LINE"
);
}
);
width = 600;
},
{
anchors = (
{
name = bottom;
position = "{368, 0}";
},
{
name = top;
position = "{368, 670}";
}
);
components = (
{
name = I;
transform = "{1, 0, 0, 1, -10, 0}";
}
);
layerId = "37DD2CA1-C758-4BBE-932B-6884A881B1A3";
paths = (
{
closed = 1;
nodes = (
"735 0 LINE",
"735 35 LINE",
"680 35 LINE",
"429 452 LINE",
"306 350 LINE",
"485 45 LINE",
"475 35 LINE",
"421 35 LINE",
"421 0 LINE"
);
},
{
closed = 1;
nodes = (
"250 268 LINE",
"640 635 LINE",
"695 635 LINE",
"695 670 LINE",
"453 670 LINE",
"453 635 LINE",
"557 635 LINE",
"567 625 LINE",
"190 268 LINE"
);
}
);
width = 735;
}
);
leftMetricsKey = "=H";
rightKerningGroup = X;
rightMetricsKey = "=R";
unicode = 004B;
},
{
color = 0;
glyphname = L;
lastChange = "2020-11-13 10:41:42 +0000";
layers = (
{
anchors = (
{
name = bottom;
position = "{297, 0}";
},
{
name = center;
position = "{177, 335}";
},
{
name = top;
position = "{180, 670}";
},
{
name = topright;
position = "{573, 670}";
}
);
components = (
{
name = _com_szeryf_caps;
transform = "{1, 0, 0, 1, 50, 0}";
},
{
name = _com_szeryf_caps;
transform = "{1, 0, 0, -1, 50, 670}";
}
);
guideLines = (
{
angle = 77.3196;
position = "{526, 0}";
},
{
position = "{529, 190}";
}
);
layerId = "CF31647D-EA7E-42DE-ACE7-E9318D6117AA";
paths = (
{
closed = 1;
nodes = (
"225 20 LINE",
"225 650 LINE",
"135 650 LINE",
"135 20 LINE"
);
},
{
closed = 1;
nodes = (
"346 0 LINE",
"536 0 LINE",
"583 210 LINE",
"548 210 LINE",
"520 105 OFFCURVE",
"462 35 OFFCURVE",
"346 35 CURVE",
"306 35 LINE",
"306 0 LINE"
);
}
);
width = 598;
},
{
anchors = (
{
name = bottom;
position = "{293, 0}";
},
{
name = center;
position = "{293, 335}";
},
{
name = top;
position = "{173, 670}";
},
{
name = topright;
position = "{565, 670}";
}
);
components = (
{
name = _com_szeryf_caps;
transform = "{1, 0, 0, 1, 10, 0}";
},
{
name = _com_szeryf_caps;
transform = "{1, 0, 0, -1, 10, 670}";
}
);
guideLines = (
{
angle = 77.2479;
position = "{543, 95}";
}
);
layerId = "37DD2CA1-C758-4BBE-932B-6884A881B1A3";
paths = (
{
closed = 1;
nodes = (
"250 20 LINE",
"250 650 LINE",
"95 650 LINE",
"95 20 LINE"
);
},
{
closed = 1;
nodes = (
"321 0 LINE",
"531 0 LINE",
"579 210 LINE",
"544 210 LINE",
"491 85 OFFCURVE",
"407 35 OFFCURVE",
"321 35 CURVE",
"271 35 LINE",
"271 0 LINE"
);
}
);
width = 594;
}
);
leftMetricsKey = "=H";
rightKerningGroup = L;
rightMetricsKey = "=T";
unicode = 004C;
},
{
glyphname = Lslash;
lastChange = "2018-03-30 18:42:40 +0000";
layers = (
{
components = (
{
name = L;
transform = "{1, 0, 0, 1, 20, 0}";
}
);
layerId = "CF31647D-EA7E-42DE-ACE7-E9318D6117AA";
paths = (
{
closed = 1;
nodes = (
"210 281 LINE",
"455 418 LINE",
"455 460 LINE",
"210 323 LINE"
);
},
{
closed = 1;
nodes = (
"210 333 LINE",
"40 238 LINE",
"40 196 LINE",
"210 291 LINE"
);
}
);
width = 618;
},
{
components = (
{
name = L;
transform = "{1, 0, 0, 1, 20, 0}";
}
);
layerId = "37DD2CA1-C758-4BBE-932B-6884A881B1A3";
paths = (
{
closed = 1;
nodes = (
"197 294 LINE",
"475 436 LINE",
"475 480 LINE",
"197 338 LINE"
);
},
{
closed = 1;
nodes = (
"197 348 LINE",
"20 258 LINE",
"20 214 LINE",
"197 304 LINE"
);
}
);
width = 614;
}
);
rightKerningGroup = L;
unicode = 0141;
},
{
glyphname = M;
lastChange = "2019-09-09 14:37:26 +0000";
layers = (
{
anchors = (
{
name = bottom;
position = "{455, 0}";
},
{
name = top;
position = "{455, 670}";
}
);
components = (
{
name = _com_szeryf_caps;
transform = "{1, 0, 0, 1, 600, 0}";
}
);
layerId = "CF31647D-EA7E-42DE-ACE7-E9318D6117AA";
paths = (
{
closed = 1;
nodes = (
"475 0 LINE",
"680 528 LINE",
"685 528 LINE",
"685 670 LINE",
"464 105 LINE",
"459 105 LINE",
"240 670 LINE",
"50 670 LINE",
"50 635 LINE",
"130 635 LINE",
"135 630 LINE",
"180 553 LINE",
"185 553 LINE",
"400 0 LINE"
);
},
{
closed = 1;
nodes = (
"265 0 LINE",
"265 35 LINE",
"185 35 LINE",
"180 40 LINE",
"180 553 LINE",
"135 630 LINE",
"135 40 LINE",
"130 35 LINE",
"50 35 LINE",
"50 0 LINE"
);
},
{
closed = 1;
nodes = (
"685 528 LINE",
"685 20 LINE",
"775 20 LINE",
"775 630 LINE",
"780 635 LINE",
"860 635 LINE",
"860 670 LINE",
"685 670 LINE"
);
}
);
width = 910;
},
{
associatedMasterId = "CF31647D-EA7E-42DE-ACE7-E9318D6117AA";
layerId = "F744DC9A-1561-4D0F-9654-922D41ED43E3";
name = "Feb 1 18, 18:35";
paths = (
{
closed = 1;
nodes = (
"782 30 LINE",
"699 30 LINE",
"699 640 LINE",
"782 640 LINE",
"782 670 LINE",
"602 670 LINE",
"600 640 LINE",
"609 640 LINE",
"609 30 LINE",
"526 30 LINE",
"526 0 LINE",
"782 0 LINE"
);
},
{
closed = 1;
nodes = (
"423 76 LINE",
"216 670 LINE",
"56 670 LINE",
"56 640 LINE",
"139 640 LINE",
"364 0 LINE"
);
},
{
closed = 1;
nodes = (
"155 9 LINE",
"155 653 LINE",
"120 653 LINE",
"120 9 LINE"
);
},
{
closed = 1;
nodes = (
"405 0 LINE",
"626 653 LINE",
"602 670 LINE",
"364 0 LINE"
);
},
{
closed = 1;
nodes = (
"229 0 LINE",
"229 30 LINE",
"50 30 LINE",
"50 0 LINE"
);
}
);
width = 832;
},
{
anchors = (
{
name = bottom;
position = "{458, 0}";
},
{
name = top;
position = "{458, 670}";
}
);
components = (
{
name = _com_szeryf_caps;
transform = "{1, 0, 0, 1, 580, 0}";
}
);
guideLines = (
{
angle = 248.9625;
position = "{665, 670}";
}
);
layerId = "37DD2CA1-C758-4BBE-932B-6884A881B1A3";
paths = (
{
closed = 1;
nodes = (
"455 0 LINE",
"660 533 LINE",
"665 533 LINE",
"665 670 LINE",
"483 200 LINE",
"478 200 LINE",
"297 670 LINE",
"30 670 LINE",
"30 635 LINE",
"105 635 LINE",
"115 625 LINE",
"160 553 LINE",
"165 553 LINE",
"380 0 LINE"
);
},
{
closed = 1;
nodes = (
"255 0 LINE",
"255 35 LINE",
"170 35 LINE",
"160 44 LINE",
"160 553 LINE",
"115 625 LINE",
"115 44 LINE",
"105 35 LINE",
"30 35 LINE",
"30 0 LINE"
);
},
{
closed = 1;
nodes = (
"665 533 LINE",
"665 20 LINE",
"820 20 LINE",
"820 630 LINE",
"825 635 LINE",
"885 635 LINE",
"885 670 LINE",
"665 670 LINE"
);
}
);
width = 915;
}
);
leftMetricsKey = "=H";
rightMetricsKey = "=H";
unicode = 004D;
},
{
glyphname = N;
lastChange = "2019-09-09 14:37:26 +0000";
layers = (
{
anchors = (
{
name = bottom;
position = "{383, 0}";
},
{
name = top;
position = "{383, 670}";
}
);
layerId = "CF31647D-EA7E-42DE-ACE7-E9318D6117AA";
paths = (
{
closed = 1;
nodes = (
"600 0 LINE",
"600 123 LINE",
"595 123 LINE",
"210 670 LINE",
"50 670 LINE",
"50 635 LINE",
"130 635 LINE",
"135 630 LINE",
"180 547 LINE",
"185 547 LINE",
"570 0 LINE"
);
},
{
closed = 1;
nodes = (
"265 0 LINE",
"265 35 LINE",
"185 35 LINE",
"180 40 LINE",
"180 547 LINE",
"135 630 LINE",
"135 40 LINE",
"130 35 LINE",
"50 35 LINE",
"50 0 LINE"
);
},
{
closed = 1;
nodes = (
"515 670 LINE",
"515 635 LINE",
"595 635 LINE",
"600 630 LINE",
"600 0 LINE",
"645 0 LINE",
"645 630 LINE",
"650 635 LINE",
"720 635 LINE",
"720 670 LINE"
);
}
);
width = 755;
},
{
anchors = (
{
name = bottom;
position = "{363, 0}";
},
{
name = top;
position = "{363, 670}";
}
);
layerId = "37DD2CA1-C758-4BBE-932B-6884A881B1A3";
paths = (
{
closed = 1;
nodes = (
"595 0 LINE",
"595 208 LINE",
"590 208 LINE",
"170 670 LINE",
"30 670 LINE",
"30 635 LINE",
"85 635 LINE",
"95 625 LINE",
"140 462 LINE",
"145 462 LINE",
"565 0 LINE"
);
},
{
closed = 1;
nodes = (
"235 0 LINE",
"235 35 LINE",
"150 35 LINE",
"140 45 LINE",
"140 462 LINE",
"95 625 LINE",
"95 45 LINE",
"85 35 LINE",
"30 35 LINE",
"30 0 LINE"
);
},
{
closed = 1;
nodes = (
"500 670 LINE",
"500 635 LINE",
"585 635 LINE",
"595 625 LINE",
"595 0 LINE",
"640 0 LINE",
"640 625 LINE",
"650 635 LINE",
"705 635 LINE",
"705 670 LINE"
);
}
);
width = 726;
}
);
leftMetricsKey = "=H";
rightMetricsKey = "=U";
unicode = 004E;
},
{
glyphname = Eng;
lastChange = "2018-03-30 09:53:42 +0000";
layers = (
{
components = (
{
name = N;
}
);
layerId = "CF31647D-EA7E-42DE-ACE7-E9318D6117AA";
paths = (
{
closed = 1;
nodes = (
"555 -120 LINE SMOOTH",
"555 -193 OFFCURVE",
"514 -220 OFFCURVE",
"478 -220 CURVE SMOOTH",
"444 -220 OFFCURVE",
"425 -206 OFFCURVE",
"411 -185 CURVE",
"441 -185 OFFCURVE",
"466 -160 OFFCURVE",
"466 -130 CURVE SMOOTH",
"466 -100 OFFCURVE",
"441 -75 OFFCURVE",
"411 -75 CURVE SMOOTH",
"381 -75 OFFCURVE",
"351 -100 OFFCURVE",
"351 -140 CURVE SMOOTH",
"351 -205 OFFCURVE",
"409 -260 OFFCURVE",
"491 -260 CURVE SMOOTH",
"565 -260 OFFCURVE",
"645 -226 OFFCURVE",
"645 -100 CURVE SMOOTH",
"645 70 LINE",
"555 70 LINE"
);
}
);
width = 755;
},
{
components = (
{
name = N;
}
);
layerId = "37DD2CA1-C758-4BBE-932B-6884A881B1A3";
paths = (
{
closed = 1;
nodes = (
"484 -110 LINE SMOOTH",
"484 -196 OFFCURVE",
"453 -225 OFFCURVE",
"414 -225 CURVE SMOOTH",
"401 -225 OFFCURVE",
"390 -222 OFFCURVE",
"381 -216 CURVE",
"410 -206 OFFCURVE",
"432 -179 OFFCURVE",
"432 -145 CURVE SMOOTH",
"432 -102 OFFCURVE",
"400 -70 OFFCURVE",
"357 -70 CURVE SMOOTH",
"314 -70 OFFCURVE",
"282 -102 OFFCURVE",
"282 -152 CURVE SMOOTH",
"282 -205 OFFCURVE",
"324 -260 OFFCURVE",
"423 -260 CURVE SMOOTH",
"513 -260 OFFCURVE",
"639 -219 OFFCURVE",
"639 -54 CURVE SMOOTH",
"639 160 LINE",
"483 160 LINE"
);
}
);
width = 726;
}
);
leftMetricsKey = "=N";
rightMetricsKey = "=N";
unicode = 014A;
},
{
glyphname = Ohorn;
lastChange = "2020-09-26 19:44:34 +0000";
layers = (
{
components = (
{
name = O;
}
);
layerId = "CF31647D-EA7E-42DE-ACE7-E9318D6117AA";
paths = (
{
closed = 1;
nodes = (
"620 585 OFFCURVE",
"692 624 OFFCURVE",
"690 710 CURVE SMOOTH",
"689 760 OFFCURVE",
"660 780 OFFCURVE",
"625 780 CURVE SMOOTH",
"590 780 OFFCURVE",
"565 755 OFFCURVE",
"565 720 CURVE SMOOTH",
"565 685 OFFCURVE",
"590 660 OFFCURVE",
"625 660 CURVE SMOOTH",
"637 660 OFFCURVE",
"662 669 OFFCURVE",
"671 679 CURVE",
"645 678 LINE",
"632 629 OFFCURVE",
"593 620 OFFCURVE",
"552 620 CURVE",
"552 585 LINE"
);
}
);
width = 740;
},
{
components = (
{
name = O;
}
);
layerId = "37DD2CA1-C758-4BBE-932B-6884A881B1A3";
paths = (
{
closed = 1;
nodes = (
"686 579 OFFCURVE",
"721 652 OFFCURVE",
"720 719 CURVE SMOOTH",
"719 770 OFFCURVE",
"683 793 OFFCURVE",
"651 793 CURVE SMOOTH",
"613 793 OFFCURVE",
"581 766 OFFCURVE",
"581 723 CURVE SMOOTH",
"581 684 OFFCURVE",
"613 653 OFFCURVE",
"651 653 CURVE SMOOTH",
"672 653 OFFCURVE",
"689 664 OFFCURVE",
"696 672 CURVE",
"667 672 LINE",
"658 640 OFFCURVE",
"648 615 OFFCURVE",
"589 614 CURVE",
"589 579 LINE"
);
}
);
width = 760;
}
);
leftKerningGroup = O;
leftMetricsKey = "=O";
rightKerningGroup = O;
rightMetricsKey = "=O";
unicode = 01A0;
},
{
glyphname = Oslash;
lastChange = "2020-09-26 19:44:34 +0000";
layers = (
{
components = (
{
name = O;
}
);
layerId = "CF31647D-EA7E-42DE-ACE7-E9318D6117AA";
paths = (
{
closed = 1;
nodes = (
"261 -100 LINE",
"517 770 LINE",
"479 770 LINE",
"223 -100 LINE"
);
},
{
closed = 1;
nodes = (
"261 -100 LINE",
"517 770 LINE",
"479 770 LINE",
"223 -100 LINE"
);
}
);
width = 740;
},
{
components = (
{
name = O;
}
);
layerId = "37DD2CA1-C758-4BBE-932B-6884A881B1A3";
paths = (
{
closed = 1;
nodes = (
"271 -100 LINE",
"527 770 LINE",
"489 770 LINE",
"233 -100 LINE"
);
},
{
closed = 1;
nodes = (
"271 -100 LINE",
"527 770 LINE",
"489 770 LINE",
"233 -100 LINE"
);
}
);
width = 760;
}
);
leftKerningGroup = O;
leftMetricsKey = "=O";
rightKerningGroup = O;
rightMetricsKey = "=O";
unicode = 00D8;
},
{
glyphname = OE;
lastChange = "2019-09-11 14:24:08 +0000";
layers = (
{
anchors = (
{
name = bottom;
position = "{708, 0}";
},
{
name = center;
position = "{28, 335}";
},
{
name = ogonek;
position = "{954, 0}";
},
{
name = top;
position = "{708, 670}";
},
{
name = topleft;
position = "{418, 670}";
},
{
name = topright;
position = "{378, 670}";
}
);
layerId = "CF31647D-EA7E-42DE-ACE7-E9318D6117AA";
paths = (
{
closed = 1;
nodes = (
"934 85 OFFCURVE",
"880 35 OFFCURVE",
"764 35 CURVE SMOOTH",
"628 35 LINE",
"623 40 LINE",
"623 330 LINE",
"726 330 LINE SMOOTH",
"783 330 OFFCURVE",
"811 308 OFFCURVE",
"816 220 CURVE",
"851 220 LINE",
"851 475 LINE",
"816 475 LINE",
"811 387 OFFCURVE",
"783 365 OFFCURVE",
"726 365 CURVE SMOOTH",
"623 365 LINE",
"623 630 LINE",
"628 635 LINE",
"754 635 LINE SMOOTH",
"870 635 OFFCURVE",
"919 605 OFFCURVE",
"947 500 CURVE",
"980 510 LINE",
"944 670 LINE",
"573 670 LINE SMOOTH",
"509 670 OFFCURVE",
"444 680 OFFCURVE",
"376 680 CURVE SMOOTH",
"191 680 OFFCURVE",
"50 533 OFFCURVE",
"50 331 CURVE SMOOTH",
"50 133 OFFCURVE",
"186 -10 OFFCURVE",
"374 -10 CURVE SMOOTH",
"444 -10 OFFCURVE",
"507 0 OFFCURVE",
"573 0 CURVE SMOOTH",
"954 0 LINE",
"997 190 LINE",
"962 190 LINE"
);
},
{
closed = 1;
nodes = (
"533 73 OFFCURVE",
"474 30 OFFCURVE",
"382 30 CURVE SMOOTH",
"226 30 OFFCURVE",
"145 155 OFFCURVE",
"145 343 CURVE SMOOTH",
"145 517 OFFCURVE",
"215 640 OFFCURVE",
"381 640 CURVE SMOOTH",
"479 640 OFFCURVE",
"533 597 OFFCURVE",
"533 490 CURVE SMOOTH",
"533 179 LINE SMOOTH"
);
}
);
width = 1037;
},
{
anchors = (
{
name = bottom;
position = "{737, 0}";
},
{
name = center;
position = "{53, 335}";
},
{
name = ogonek;
position = "{980, 10}";
},
{
name = top;
position = "{737, 670}";
},
{
name = topleft;
position = "{453, 670}";
},
{
name = topright;
position = "{413, 670}";
}
);
layerId = "37DD2CA1-C758-4BBE-932B-6884A881B1A3";
paths = (
{
closed = 1;
nodes = (
"934 85 OFFCURVE",
"850 35 OFFCURVE",
"754 35 CURVE SMOOTH",
"693 35 LINE",
"683 45 LINE",
"683 330 LINE",
"736 330 LINE SMOOTH",
"793 330 OFFCURVE",
"846 288 OFFCURVE",
"846 220 CURVE",
"881 220 LINE",
"881 475 LINE",
"846 475 LINE",
"846 407 OFFCURVE",
"793 365 OFFCURVE",
"736 365 CURVE SMOOTH",
"683 365 LINE",
"683 625 LINE",
"693 635 LINE",
"744 635 LINE SMOOTH",
"840 635 OFFCURVE",
"919 605 OFFCURVE",
"967 500 CURVE",
"1000 510 LINE",
"964 670 LINE",
"598 670 LINE SMOOTH",
"525 670 OFFCURVE",
"434 680 OFFCURVE",
"380 680 CURVE SMOOTH",
"176 680 OFFCURVE",
"40 535 OFFCURVE",
"40 331 CURVE SMOOTH",
"40 135 OFFCURVE",
"166 -10 OFFCURVE",
"380 -10 CURVE SMOOTH",
"436 -10 OFFCURVE",
"524 0 OFFCURVE",
"598 0 CURVE SMOOTH",
"974 0 LINE",
"1017 190 LINE",
"982 190 LINE"
);
},
{
closed = 1;
nodes = (
"528 69 OFFCURVE",
"449 30 OFFCURVE",
"392 30 CURVE SMOOTH",
"286 30 OFFCURVE",
"205 165 OFFCURVE",
"205 352 CURVE SMOOTH",
"205 522 OFFCURVE",
"272 640 OFFCURVE",
"386 640 CURVE SMOOTH",
"446 640 OFFCURVE",
"528 607 OFFCURVE",
"528 460 CURVE SMOOTH",
"528 182 LINE SMOOTH"
);
}
);
width = 1041;
}
);
leftKerningGroup = O;
leftMetricsKey = "=O";
rightKerningGroup = E;
rightMetricsKey = "=E";
unicode = 0152;
},
{
color = 0;
glyphname = P;
lastChange = "2020-11-13 10:41:42 +0000";
layers = (
{
anchors = (
{
name = bottom;
position = "{310, 0}";
},
{
name = top;
position = "{310, 670}";
}
);
components = (
{
name = _com_szeryf_caps;
transform = "{1, 0, 0, -1, 50, 670}";
},
{
name = _com_szeryf_caps_long;
}
);
guideLines = (
{
angle = 90;
position = "{569, 495}";
}
);
layerId = "CF31647D-EA7E-42DE-ACE7-E9318D6117AA";
paths = (
{
closed = 1;
nodes = (
"225 20 LINE",
"225 650 LINE",
"135 650 LINE",
"135 20 LINE"
);
},
{
closed = 1;
nodes = (
"225 325 LINE",
"225 290 LINE",
"345 290 LINE SMOOTH",
"449 290 OFFCURVE",
"595 350 OFFCURVE",
"595 488 CURVE SMOOTH",
"595 630 OFFCURVE",
"459 670 OFFCURVE",
"345 670 CURVE SMOOTH",
"255 670 LINE",
"255 635 LINE",
"325 635 LINE SMOOTH",
"419 635 OFFCURVE",
"500 589 OFFCURVE",
"500 480 CURVE SMOOTH",
"500 353 OFFCURVE",
"422 325 OFFCURVE",
"325 325 CURVE SMOOTH"
);
}
);
width = 610;
},
{
anchors = (
{
name = bottom;
position = "{320, 0}";
},
{
name = top;
position = "{320, 670}";
}
);
components = (
{
name = _com_szeryf_caps;
transform = "{1, 0, 0, -1, 10, 670}";
},
{
name = _com_szeryf_caps_long;
transform = "{1, 0, 0, 1, -40, 0}";
}
);
layerId = "37DD2CA1-C758-4BBE-932B-6884A881B1A3";
paths = (
{
closed = 1;
nodes = (
"250 20 LINE",
"250 650 LINE",
"95 650 LINE",
"95 20 LINE"
);
},
{
closed = 1;
nodes = (
"245 325 LINE",
"245 290 LINE",
"365 290 LINE SMOOTH",
"479 290 OFFCURVE",
"615 360 OFFCURVE",
"615 488 CURVE SMOOTH",
"615 620 OFFCURVE",
"489 670 OFFCURVE",
"365 670 CURVE SMOOTH",
"275 670 LINE",
"275 635 LINE",
"325 635 LINE SMOOTH",
"389 635 OFFCURVE",
"450 579 OFFCURVE",
"450 480 CURVE SMOOTH",
"450 363 OFFCURVE",
"392 325 OFFCURVE",
"325 325 CURVE SMOOTH"
);
}
);
width = 630;
}
);
leftMetricsKey = "=H";
rightKerningGroup = F;
unicode = 0050;
},
{
glyphname = Thorn;
lastChange = "2019-09-11 14:24:08 +0000";
layers = (
{
components = (
{
name = I;
transform = "{1, 0, 0, 1, -20, 0}";
}
);
layerId = "CF31647D-EA7E-42DE-ACE7-E9318D6117AA";
paths = (
{
closed = 1;
nodes = (
"205 165 LINE",
"205 130 LINE",
"325 130 LINE SMOOTH",
"439 130 OFFCURVE",
"605 190 OFFCURVE",
"605 348 CURVE SMOOTH",
"605 510 OFFCURVE",
"449 550 OFFCURVE",
"325 550 CURVE SMOOTH",
"205 550 LINE",
"205 515 LINE",
"305 515 LINE SMOOTH",
"409 515 OFFCURVE",
"510 469 OFFCURVE",
"510 340 CURVE SMOOTH",
"510 193 OFFCURVE",
"412 165 OFFCURVE",
"305 165 CURVE SMOOTH"
);
}
);
width = 620;
},
{
components = (
{
name = I;
transform = "{1, 0, 0, 1, -10, 0}";
}
);
layerId = "37DD2CA1-C758-4BBE-932B-6884A881B1A3";
paths = (
{
closed = 1;
nodes = (
"205 175 LINE",
"205 140 LINE",
"355 140 LINE SMOOTH",
"489 140 OFFCURVE",
"645 210 OFFCURVE",
"645 358 CURVE SMOOTH",
"645 510 OFFCURVE",
"499 560 OFFCURVE",
"355 560 CURVE SMOOTH",
"205 560 LINE",
"205 525 LINE",
"315 525 LINE SMOOTH",
"399 525 OFFCURVE",
"480 469 OFFCURVE",
"480 350 CURVE SMOOTH",
"480 213 OFFCURVE",
"402 175 OFFCURVE",
"315 175 CURVE SMOOTH"
);
}
);
width = 660;
}
);
leftMetricsKey = "=P";
rightKerningGroup = O;
rightMetricsKey = "=P";
unicode = 00DE;
},
{
glyphname = Q;
lastChange = "2019-09-11 14:24:08 +0000";
layers = (
{
anchors = (
{
name = bottom;
position = "{380, 0}";
},
{
name = top;
position = "{380, 670}";
}
);
components = (
{
name = O;
}
);
layerId = "CF31647D-EA7E-42DE-ACE7-E9318D6117AA";
paths = (
{
closed = 1;
nodes = (
"601 -101 OFFCURVE",
"580 -120 OFFCURVE",
"557 -120 CURVE SMOOTH",
"468 -120 OFFCURVE",
"450 170 OFFCURVE",
"279 170 CURVE SMOOTH",
"235 170 OFFCURVE",
"209 150 OFFCURVE",
"186 119 CURVE",
"213 96 LINE",
"225 111 OFFCURVE",
"246 130 OFFCURVE",
"269 130 CURVE SMOOTH",
"358 130 OFFCURVE",
"376 -160 OFFCURVE",
"547 -160 CURVE SMOOTH",
"591 -160 OFFCURVE",
"617 -140 OFFCURVE",
"640 -109 CURVE",
"613 -86 LINE"
);
}
);
width = 740;
},
{
associatedMasterId = "CF31647D-EA7E-42DE-ACE7-E9318D6117AA";
layerId = "B86316D3-37F5-41F4-98A8-FF395678EF16";
name = "Feb 1 18, 18:00";
paths = (
{
closed = 1;
nodes = (
"581 -9 OFFCURVE",
"728 133 OFFCURVE",
"728 335 CURVE",
"728 523 OFFCURVE",
"581 677 OFFCURVE",
"398 677 CURVE",
"217 677 OFFCURVE",
"50 523 OFFCURVE",
"50 335 CURVE",
"50 133 OFFCURVE",
"201 -9 OFFCURVE",
"382 -9 CURVE"
);
},
{
closed = 1;
nodes = (
"663 -215 OFFCURVE",
"695 -177 OFFCURVE",
"708 -135 CURVE",
"681 -124 LINE",
"666 -155 OFFCURVE",
"641 -172 OFFCURVE",
"608 -172 CURVE SMOOTH",
"500 -172 OFFCURVE",
"546 128 OFFCURVE",
"374 128 CURVE SMOOTH",
"332 128 OFFCURVE",
"287 113 OFFCURVE",
"266 97 CURVE",
"285 70 LINE",
"307 88 OFFCURVE",
"327 94 OFFCURVE",
"347 94 CURVE SMOOTH",
"458 94 OFFCURVE",
"421 -215 OFFCURVE",
"580 -215 CURVE SMOOTH"
);
},
{
closed = 1;
nodes = (
"291 26 OFFCURVE",
"139 87 OFFCURVE",
"139 322 CURVE",
"139 584 OFFCURVE",
"309 645 OFFCURVE",
"398 645 CURVE",
"487 645 OFFCURVE",
"639 584 OFFCURVE",
"639 322 CURVE",
"639 87 OFFCURVE",
"487 26 OFFCURVE",
"382 26 CURVE"
);
}
);
width = 760;
},
{
anchors = (
{
name = bottom;
position = "{380, 0}";
},
{
name = top;
position = "{380, 670}";
}
);
components = (
{
name = O;
}
);
guideLines = (
{
angle = 90;
position = "{720, 335}";
}
);
layerId = "37DD2CA1-C758-4BBE-932B-6884A881B1A3";
paths = (
{
closed = 1;
nodes = (
"607 -56 OFFCURVE",
"589 -80 OFFCURVE",
"564 -80 CURVE SMOOTH",
"478 -80 OFFCURVE",
"517 230 OFFCURVE",
"331 230 CURVE SMOOTH",
"283 230 OFFCURVE",
"240 211 OFFCURVE",
"206 139 CURVE",
"233 116 LINE",
"239 126 OFFCURVE",
"257 150 OFFCURVE",
"282 150 CURVE SMOOTH",
"368 150 OFFCURVE",
"329 -160 OFFCURVE",
"515 -160 CURVE SMOOTH",
"563 -160 OFFCURVE",
"606 -141 OFFCURVE",
"640 -69 CURVE",
"613 -46 LINE"
);
}
);
width = 760;
}
);
leftKerningGroup = O;
leftMetricsKey = "=O";
rightKerningGroup = O;
rightMetricsKey = "=O";
unicode = 0051;
},
{
color = 0;
glyphname = R;
lastChange = "2020-11-13 10:41:42 +0000";
layers = (
{
anchors = (
{
name = bottom;
position = "{353, 0}";
},
{
name = top;
position = "{353, 670}";
}
);
components = (
{
name = _com_szeryf_caps;
transform = "{1, 0, 0, 1, 50, 0}";
},
{
name = _com_szeryf_caps;
transform = "{1, 0, 0, -1, 50, 670}";
}
);
guideLines = (
{
angle = 126.486;
position = "{630, 35}";
}
);
layerId = "CF31647D-EA7E-42DE-ACE7-E9318D6117AA";
paths = (
{
closed = 1;
nodes = (
"225 20 LINE",
"225 650 LINE",
"135 650 LINE",
"135 20 LINE"
);
},
{
closed = 1;
nodes = (
"345 310 LINE SMOOTH",
"449 310 OFFCURVE",
"595 370 OFFCURVE",
"595 498 CURVE SMOOTH",
"595 630 OFFCURVE",
"459 670 OFFCURVE",
"345 670 CURVE SMOOTH",
"255 670 LINE",
"255 635 LINE",
"325 635 LINE SMOOTH",
"419 635 OFFCURVE",
"500 589 OFFCURVE",
"500 490 CURVE SMOOTH",
"500 373 OFFCURVE",
"422 345 OFFCURVE",
"325 345 CURVE SMOOTH",
"225 345 LINE",
"225 310 LINE"
);
},
{
closed = 1;
nodes = (
"705 0 LINE",
"705 35 LINE",
"630 35 LINE",
"417 323 LINE",
"308 323 LINE",
"516 40 LINE",
"511 35 LINE",
"431 35 LINE",
"431 0 LINE"
);
}
);
width = 705;
},
{
anchors = (
{
name = bottom;
position = "{358, 0}";
},
{
name = top;
position = "{358, 670}";
}
);
components = (
{
name = _com_szeryf_caps;
transform = "{1, 0, 0, 1, 10, 0}";
},
{
name = _com_szeryf_caps;
transform = "{1, 0, 0, -1, 10, 670}";
}
);
layerId = "37DD2CA1-C758-4BBE-932B-6884A881B1A3";
paths = (
{
closed = 1;
nodes = (
"250 20 LINE",
"250 650 LINE",
"95 650 LINE",
"95 20 LINE"
);
},
{
closed = 1;
nodes = (
"365 310 LINE SMOOTH",
"479 310 OFFCURVE",
"615 380 OFFCURVE",
"615 498 CURVE SMOOTH",
"615 620 OFFCURVE",
"489 670 OFFCURVE",
"365 670 CURVE SMOOTH",
"275 670 LINE",
"275 635 LINE",
"325 635 LINE SMOOTH",
"389 635 OFFCURVE",
"450 579 OFFCURVE",
"450 490 CURVE SMOOTH",
"450 383 OFFCURVE",
"392 345 OFFCURVE",
"325 345 CURVE SMOOTH",
"245 345 LINE",
"245 310 LINE"
);
},
{
closed = 1;
nodes = (
"715 0 LINE",
"715 35 LINE",
"650 35 LINE",
"448 323 LINE",
"273 323 LINE",
"461 45 LINE",
"451 35 LINE",
"391 35 LINE",
"391 0 LINE"
);
}
);
width = 715;
}
);
leftMetricsKey = "=H";
rightKerningGroup = R;
unicode = 0052;
},
{
glyphname = S;
lastChange = "2020-09-26 19:44:26 +0000";
layers = (
{
anchors = (
{
name = bottom;
position = "{301, 0}";
},
{
name = top;
position = "{301, 670}";
}
);
guideLines = (
{
angle = 62.3005;
position = "{125, 1}";
}
);
layerId = "CF31647D-EA7E-42DE-ACE7-E9318D6117AA";
paths = (
{
closed = 1;
nodes = (
"160 591 OFFCURVE",
"217 640 OFFCURVE",
"299 640 CURVE SMOOTH",
"359 640 OFFCURVE",
"452 613 OFFCURVE",
"503 466 CURVE",
"536 476 LINE",
"522 539 OFFCURVE",
"511 602 OFFCURVE",
"506 670 CURVE",
"471 670 LINE",
"450 629 LINE",
"405 661 OFFCURVE",
"362 680 OFFCURVE",
"303 680 CURVE SMOOTH",
"187 680 OFFCURVE",
"90 612 OFFCURVE",
"90 496 CURVE SMOOTH",
"90 270 OFFCURVE",
"472 338 OFFCURVE",
"472 152 CURVE SMOOTH",
"472 66 OFFCURVE",
"387 30 OFFCURVE",
"326 30 CURVE SMOOTH",
"257 30 OFFCURVE",
"155 76 OFFCURVE",
"93 224 CURVE",
"60 214 LINE",
"74 151 OFFCURVE",
"90 69 OFFCURVE",
"95 1 CURVE",
"130 1 LINE",
"151 41 LINE",
"200 10 OFFCURVE",
"255 -10 OFFCURVE",
"321 -10 CURVE SMOOTH",
"448 -10 OFFCURVE",
"542 59 OFFCURVE",
"542 181 CURVE SMOOTH",
"542 429 OFFCURVE",
"160 354 OFFCURVE",
"160 523 CURVE SMOOTH"
);
}
);
width = 602;
},
{
associatedMasterId = "CF31647D-EA7E-42DE-ACE7-E9318D6117AA";
layerId = "796F432B-D445-4FA1-BA50-CB9559499470";
name = "Jan 31 18, 16:19";
paths = (
{
closed = 1;
nodes = (
"395 646 OFFCURVE",
"497 527 OFFCURVE",
"497 401 CURVE",
"442 452 LINE",
"564 479 LINE",
"545 424 LINE",
"523 424 OFFCURVE",
"479 637 OFFCURVE",
"479 706 CURVE",
"525 670 LINE",
"453 670 LINE",
"416 598 LINE",
"460 598 LINE",
"460 617 OFFCURVE",
"384 683 OFFCURVE",
"275 683 CURVE SMOOTH",
"140 683 OFFCURVE",
"73 600 OFFCURVE",
"73 515 CURVE SMOOTH",
"73 269 OFFCURVE",
"473 346 OFFCURVE",
"473 149 CURVE SMOOTH",
"473 61 OFFCURVE",
"401 21 OFFCURVE",
"323 21 CURVE SMOOTH",
"166 21 OFFCURVE",
"76 170 OFFCURVE",
"76 253 CURVE",
"124 232 LINE",
"4 202 LINE",
"42 251 LINE",
"94 0 LINE",
"120 6 LINE",
"146 73 LINE",
"105 92 LINE",
"125 38 OFFCURVE",
"209 -11 OFFCURVE",
"323 -11 CURVE SMOOTH",
"456 -11 OFFCURVE",
"540 61 OFFCURVE",
"540 176 CURVE SMOOTH",
"540 434 OFFCURVE",
"143 362 OFFCURVE",
"143 533 CURVE SMOOTH",
"143 591 OFFCURVE",
"178 646 OFFCURVE",
"284 646 CURVE SMOOTH"
);
}
);
width = 600;
},
{
anchors = (
{
name = bottom;
position = "{309, 0}";
},
{
name = top;
position = "{309, 670}";
}
);
guideLines = (
{
angle = 62.3005;
position = "{474, 649}";
}
);
layerId = "37DD2CA1-C758-4BBE-932B-6884A881B1A3";
paths = (
{
closed = 1;
nodes = (
"208 610 OFFCURVE",
"248 640 OFFCURVE",
"306 640 CURVE SMOOTH",
"375 640 OFFCURVE",
"465 598 OFFCURVE",
"524 446 CURVE",
"557 456 LINE",
"543 519 OFFCURVE",
"529 602 OFFCURVE",
"524 670 CURVE",
"489 670 LINE",
"472 639 LINE",
"428 669 OFFCURVE",
"379 680 OFFCURVE",
"323 680 CURVE SMOOTH",
"170 680 OFFCURVE",
"78 600 OFFCURVE",
"78 481 CURVE SMOOTH",
"78 249 OFFCURVE",
"430 288 OFFCURVE",
"430 122 CURVE SMOOTH",
"430 62 OFFCURVE",
"383 30 OFFCURVE",
"317 30 CURVE SMOOTH",
"234 30 OFFCURVE",
"150 81 OFFCURVE",
"81 244 CURVE",
"48 234 LINE",
"62 171 OFFCURVE",
"78 69 OFFCURVE",
"83 1 CURVE",
"118 1 LINE",
"135 31 LINE",
"178 6 OFFCURVE",
"236 -10 OFFCURVE",
"309 -10 CURVE SMOOTH",
"467 -10 OFFCURVE",
"560 65 OFFCURVE",
"560 190 CURVE SMOOTH",
"560 433 OFFCURVE",
"208 391 OFFCURVE",
"208 555 CURVE SMOOTH"
);
}
);
width = 608;
}
);
leftKerningGroup = O;
leftMetricsKey = "=O*1.2";
rightKerningGroup = O;
rightMetricsKey = "=O*1.2";
unicode = 0053;
},
{
glyphname = Germandbls;
lastChange = "2019-09-11 14:24:08 +0000";
layers = (
{
anchors = (
{
name = bottom;
position = "{285, 0}";
},
{
name = top;
position = "{285, 670}";
}
);
layerId = "CF31647D-EA7E-42DE-ACE7-E9318D6117AA";
paths = (
{
closed = 1;
nodes = (
"492 537 OFFCURVE",
"533 594 OFFCURVE",
"630 640 CURVE",
"630 670 LINE",
"50 670 LINE",
"50 635 LINE",
"130 635 LINE",
"135 630 LINE",
"135 40 LINE",
"130 35 LINE",
"50 35 LINE",
"50 0 LINE",
"225 0 LINE",
"225 630 LINE",
"230 635 LINE",
"569 635 LINE",
"488 603 OFFCURVE",
"417 548 OFFCURVE",
"417 452 CURVE SMOOTH",
"417 281 OFFCURVE",
"622 293 OFFCURVE",
"622 145 CURVE SMOOTH",
"622 75 OFFCURVE",
"581 30 OFFCURVE",
"512 30 CURVE SMOOTH",
"449 30 OFFCURVE",
"385 66 OFFCURVE",
"323 184 CURVE",
"290 174 LINE",
"304 111 OFFCURVE",
"310 69 OFFCURVE",
"315 1 CURVE",
"350 1 LINE",
"371 41 LINE",
"417 12 OFFCURVE",
"443 -10 OFFCURVE",
"512 -10 CURVE SMOOTH",
"634 -10 OFFCURVE",
"702 70 OFFCURVE",
"702 167 CURVE SMOOTH",
"702 348 OFFCURVE",
"492 342 OFFCURVE",
"492 477 CURVE SMOOTH"
);
}
);
width = 722;
},
{
anchors = (
{
name = bottom;
position = "{282, 0}";
},
{
name = top;
position = "{282, 670}";
}
);
layerId = "37DD2CA1-C758-4BBE-932B-6884A881B1A3";
paths = (
{
closed = 1;
nodes = (
"513 568 OFFCURVE",
"601 619 OFFCURVE",
"665 640 CURVE",
"665 670 LINE",
"30 670 LINE",
"30 635 LINE",
"85 635 LINE",
"95 625 LINE",
"95 45 LINE",
"85 35 LINE",
"30 35 LINE",
"30 0 LINE",
"250 0 LINE",
"250 625 LINE",
"260 635 LINE",
"571 635 LINE",
"463 597 OFFCURVE",
"383 541 OFFCURVE",
"383 430 CURVE SMOOTH",
"383 244 OFFCURVE",
"615 249 OFFCURVE",
"615 109 CURVE SMOOTH",
"615 56 OFFCURVE",
"582 30 OFFCURVE",
"529 30 CURVE SMOOTH",
"462 30 OFFCURVE",
"400 71 OFFCURVE",
"331 204 CURVE",
"298 194 LINE",
"312 131 OFFCURVE",
"318 69 OFFCURVE",
"323 1 CURVE",
"358 1 LINE",
"375 31 LINE",
"428 1 OFFCURVE",
"481 -10 OFFCURVE",
"537 -10 CURVE SMOOTH",
"662 -10 OFFCURVE",
"755 45 OFFCURVE",
"755 159 CURVE SMOOTH",
"755 349 OFFCURVE",
"513 360 OFFCURVE",
"513 488 CURVE SMOOTH"
);
}
);
width = 760;
}
);
leftMetricsKey = "=E";
rightKerningGroup = o;
rightMetricsKey = "=r";
unicode = 1E9E;
},
{
glyphname = T;
lastChange = "2020-09-27 07:44:49 +0000";
layers = (
{
anchors = (
{
name = bottom;
position = "{305, 0}";
},
{
name = center;
position = "{305, 335}";
},
{
name = top;
position = "{305, 670}";
}
);
components = (
{
name = _com_szeryf_caps;
transform = "{1, 0, 0, 1, 174, 0}";
}
);
guideLines = (
{
angle = 102.68;
position = "{562, 500}";
},
{
angle = 196.858;
position = "{559, 499}";
},
{
angle = 102.68;
position = "{577, 590}";
}
);
layerId = "CF31647D-EA7E-42DE-ACE7-E9318D6117AA";
paths = (
{
closed = 1;
nodes = (
"349 20 LINE",
"349 650 LINE",
"259 650 LINE",
"259 20 LINE"
);
},
{
closed = 1;
nodes = (
"76 605 OFFCURVE",
"125 635 OFFCURVE",
"261 635 CURVE",
"305 635 LINE",
"305 670 LINE",
"51 670 LINE",
"15 510 LINE",
"48 500 LINE"
);
},
{
closed = 1;
nodes = (
"595 510 LINE",
"559 670 LINE",
"305 670 LINE",
"305 635 LINE",
"349 635 LINE",
"485 635 OFFCURVE",
"534 605 OFFCURVE",
"562 500 CURVE"
);
}
);
width = 610;
},
{
anchors = (
{
name = bottom;
position = "{329, 0}";
},
{
name = center;
position = "{329, 335}";
},
{
name = top;
position = "{329, 670}";
}
);
components = (
{
name = _com_szeryf_caps;
transform = "{1, 0, 0, 1, 166, 0}";
}
);
guideLines = (
{
angle = 196.858;
position = "{607, 485}";
},
{
angle = 102.68;
position = "{603, 670}";
}
);
layerId = "37DD2CA1-C758-4BBE-932B-6884A881B1A3";
paths = (
{
closed = 1;
nodes = (
"406 20 LINE",
"406 650 LINE",
"251 650 LINE",
"251 20 LINE"
);
},
{
closed = 1;
nodes = (
"96 596 OFFCURVE",
"179 635 OFFCURVE",
"251 635 CURVE",
"329 635 LINE",
"329 670 LINE",
"55 670 LINE",
"15 491 LINE",
"48 481 LINE"
);
},
{
closed = 1;
nodes = (
"643 491 LINE",
"603 670 LINE",
"329 670 LINE",
"329 635 LINE",
"407 635 LINE",
"479 635 OFFCURVE",
"562 596 OFFCURVE",
"610 481 CURVE"
);
}
);
width = 658;
}
);
leftKerningGroup = T;
rightKerningGroup = T;
unicode = 0054;
},
{
color = 0;
glyphname = U;
lastChange = "2020-11-13 10:41:42 +0000";
layers = (
{
anchors = (
{
name = bottom;
position = "{390, 0}";
},
{
name = ogonek;
position = "{447, 0}";
},
{
name = top;
position = "{390, 670}";
},
{
name = topright;
position = "{720, 670}";
}
);
components = (
{
name = _com_szeryf_caps;
transform = "{1, 0, 0, -1, 35, 670}";
}
);
layerId = "CF31647D-EA7E-42DE-ACE7-E9318D6117AA";
paths = (
{
closed = 1;
nodes = (
"490 635 LINE",
"570 635 LINE",
"575 630 LINE",
"575 245 LINE SMOOTH",
"575 114 OFFCURVE",
"493 40 OFFCURVE",
"389 40 CURVE SMOOTH",
"271 40 OFFCURVE",
"210 125 OFFCURVE",
"210 245 CURVE SMOOTH",
"210 630 LINE",
"120 630 LINE",
"120 233 LINE SMOOTH",
"120 97 OFFCURVE",
"204 -10 OFFCURVE",
"384 -10 CURVE SMOOTH",
"519 -10 OFFCURVE",
"620 87 OFFCURVE",
"620 245 CURVE SMOOTH",
"620 630 LINE",
"625 635 LINE",
"695 635 LINE",
"695 670 LINE",
"490 670 LINE"
);
}
);
width = 730;
},
{
anchors = (
{
name = bottom;
position = "{386, 0}";
},
{
name = ogonek;
position = "{445, 0}";
},
{
name = top;
position = "{386, 670}";
},
{
name = topright;
position = "{692, 670}";
}
);
components = (
{
name = _com_szeryf_caps;
transform = "{1, 0, 0, -1, 1, 670}";
}
);
layerId = "37DD2CA1-C758-4BBE-932B-6884A881B1A3";
paths = (
{
closed = 1;
nodes = (
"486 635 LINE",
"571 635 LINE",
"581 625 LINE",
"581 245 LINE SMOOTH",
"581 114 OFFCURVE",
"499 40 OFFCURVE",
"405 40 CURVE SMOOTH",
"287 40 OFFCURVE",
"241 135 OFFCURVE",
"241 255 CURVE SMOOTH",
"241 630 LINE",
"86 630 LINE",
"86 233 LINE SMOOTH",
"86 97 OFFCURVE",
"190 -10 OFFCURVE",
"370 -10 CURVE SMOOTH",
"525 -10 OFFCURVE",
"626 87 OFFCURVE",
"626 245 CURVE SMOOTH",
"626 625 LINE",
"636 635 LINE",
"691 635 LINE",
"691 670 LINE",
"486 670 LINE"
);
}
);
width = 712;
}
);
leftKerningGroup = U;
leftMetricsKey = "=H*0.7";
rightKerningGroup = U;
rightMetricsKey = "=H*0.7";
unicode = 0055;
},
{
glyphname = Uhorn;
lastChange = "2020-09-26 19:44:59 +0000";
layers = (
{
anchors = (
{
name = bottom;
position = "{390, 0}";
},
{
name = ogonek;
position = "{447, 0}";
},
{
name = top;
position = "{390, 670}";
},
{
name = topright;
position = "{720, 670}";
}
);
layerId = "CF31647D-EA7E-42DE-ACE7-E9318D6117AA";
paths = (
{
closed = 1;
nodes = (
"723 635 OFFCURVE",
"795 674 OFFCURVE",
"793 760 CURVE SMOOTH",
"792 810 OFFCURVE",
"763 830 OFFCURVE",
"728 830 CURVE SMOOTH",
"693 830 OFFCURVE",
"668 805 OFFCURVE",
"668 770 CURVE SMOOTH",
"668 735 OFFCURVE",
"693 710 OFFCURVE",
"728 710 CURVE SMOOTH",
"740 710 OFFCURVE",
"765 719 OFFCURVE",
"774 729 CURVE",
"748 728 LINE",
"735 679 OFFCURVE",
"696 670 OFFCURVE",
"655 670 CURVE",
"655 635 LINE"
);
},
{
closed = 1;
nodes = (
"490 635 LINE",
"570 635 LINE",
"575 630 LINE",
"575 245 LINE SMOOTH",
"575 114 OFFCURVE",
"493 40 OFFCURVE",
"389 40 CURVE SMOOTH",
"271 40 OFFCURVE",
"210 125 OFFCURVE",
"210 245 CURVE SMOOTH",
"210 630 LINE",
"215 635 LINE",
"295 635 LINE",
"295 670 LINE",
"35 670 LINE",
"35 635 LINE",
"115 635 LINE",
"120 630 LINE",
"120 233 LINE SMOOTH",
"120 97 OFFCURVE",
"204 -10 OFFCURVE",
"384 -10 CURVE SMOOTH",
"519 -10 OFFCURVE",
"620 87 OFFCURVE",
"620 245 CURVE SMOOTH",
"620 630 LINE",
"625 635 LINE",
"655 635 LINE",
"655 670 LINE",
"490 670 LINE"
);
}
);
width = 730;
},
{
anchors = (
{
name = bottom;
position = "{386, 0}";
},
{
name = ogonek;
position = "{445, 0}";
},
{
name = top;
position = "{386, 670}";
},
{
name = topright;
position = "{692, 670}";
}
);
layerId = "37DD2CA1-C758-4BBE-932B-6884A881B1A3";
paths = (
{
closed = 1;
nodes = (
"748 635 OFFCURVE",
"783 708 OFFCURVE",
"782 775 CURVE SMOOTH",
"781 826 OFFCURVE",
"745 849 OFFCURVE",
"713 849 CURVE SMOOTH",
"675 849 OFFCURVE",
"643 822 OFFCURVE",
"643 779 CURVE SMOOTH",
"643 740 OFFCURVE",
"675 709 OFFCURVE",
"713 709 CURVE SMOOTH",
"734 709 OFFCURVE",
"751 720 OFFCURVE",
"758 728 CURVE",
"729 728 LINE",
"720 696 OFFCURVE",
"710 671 OFFCURVE",
"651 670 CURVE",
"651 635 LINE"
);
},
{
closed = 1;
nodes = (
"486 635 LINE",
"571 635 LINE",
"581 625 LINE",
"581 245 LINE SMOOTH",
"581 114 OFFCURVE",
"499 40 OFFCURVE",
"405 40 CURVE SMOOTH",
"287 40 OFFCURVE",
"241 135 OFFCURVE",
"241 255 CURVE SMOOTH",
"241 625 LINE",
"251 635 LINE",
"306 635 LINE",
"306 670 LINE",
"21 670 LINE",
"21 635 LINE",
"76 635 LINE",
"86 625 LINE",
"86 233 LINE SMOOTH",
"86 97 OFFCURVE",
"190 -10 OFFCURVE",
"370 -10 CURVE SMOOTH",
"525 -10 OFFCURVE",
"626 87 OFFCURVE",
"626 245 CURVE SMOOTH",
"626 625 LINE",
"636 635 LINE",
"651 635 LINE",
"651 670 LINE",
"486 670 LINE"
);
}
);
width = 732;
}
);
leftKerningGroup = U;
leftMetricsKey = "=U";
rightKerningGroup = U;
unicode = 01AF;
},
{
glyphname = V;
lastChange = "2019-09-09 14:37:26 +0000";
layers = (
{
anchors = (
{
name = bottom;
position = "{343, 0}";
},
{
name = top;
position = "{343, 670}";
}
);
layerId = "CF31647D-EA7E-42DE-ACE7-E9318D6117AA";
paths = (
{
closed = 1;
nodes = (
"468 635 LINE",
"553 635 LINE",
"558 630 LINE",
"378 100 LINE",
"373 100 LINE",
"184 630 LINE",
"189 635 LINE",
"259 635 LINE",
"259 670 LINE",
"15 670 LINE",
"15 635 LINE",
"85 635 LINE",
"314 0 LINE",
"389 0 LINE",
"611 635 LINE",
"671 635 LINE",
"671 670 LINE",
"468 670 LINE"
);
}
);
width = 686;
},
{
associatedMasterId = "CF31647D-EA7E-42DE-ACE7-E9318D6117AA";
layerId = "C26A4183-EE6C-4861-AB27-BFBEC8D5C844";
name = "Feb 1 18, 17:47";
paths = (
{
closed = 1;
nodes = (
"369 0 LINE",
"382 70 LINE",
"177 670 LINE",
"15 670 LINE",
"15 640 LINE",
"98 640 LINE",
"312 0 LINE"
);
},
{
closed = 1;
nodes = (
"389 0 LINE",
"605 659 LINE",
"570 659 LINE",
"354 0 LINE"
);
},
{
closed = 1;
nodes = (
"673 640 LINE",
"673 670 LINE",
"491 670 LINE",
"491 640 LINE"
);
},
{
closed = 1;
nodes = (
"270 640 LINE",
"270 670 LINE",
"136 670 LINE",
"136 640 LINE"
);
}
);
width = 683;
},
{
anchors = (
{
name = bottom;
position = "{346, 0}";
},
{
name = top;
position = "{346, 670}";
}
);
layerId = "37DD2CA1-C758-4BBE-932B-6884A881B1A3";
paths = (
{
closed = 1;
nodes = (
"488 635 LINE",
"573 635 LINE",
"583 625 LINE",
"414 175 LINE",
"409 175 LINE",
"235 625 LINE",
"245 635 LINE",
"303 635 LINE",
"303 670 LINE",
"5 670 LINE",
"5 635 LINE",
"60 635 LINE",
"319 0 LINE",
"394 0 LINE",
"636 635 LINE",
"691 635 LINE",
"691 670 LINE",
"488 670 LINE"
);
}
);
width = 691;
}
);
leftKerningGroup = V;
leftMetricsKey = "=|A";
rightKerningGroup = V;
rightMetricsKey = "=|A";
unicode = 0056;
},
{
glyphname = W;
lastChange = "2019-09-09 14:37:26 +0000";
layers = (
{
anchors = (
{
name = bottom;
position = "{490, 0}";
},
{
name = top;
position = "{510, 670}";
}
);
layerId = "CF31647D-EA7E-42DE-ACE7-E9318D6117AA";
paths = (
{
closed = 1;
nodes = (
"361 0 LINE",
"500 480 LINE",
"505 480 LINE",
"641 0 LINE",
"721 0 LINE",
"908 635 LINE",
"968 635 LINE",
"968 670 LINE",
"768 670 LINE",
"768 635 LINE",
"853 635 LINE",
"858 630 LINE",
"709 120 LINE",
"704 120 LINE",
"559 630 LINE",
"564 635 LINE",
"630 635 LINE",
"630 670 LINE",
"396 670 LINE",
"396 635 LINE",
"461 635 LINE",
"478 567 LINE",
"347 120 LINE",
"342 120 LINE",
"186 630 LINE",
"191 635 LINE",
"256 635 LINE",
"256 670 LINE",
"18 670 LINE",
"18 635 LINE",
"88 635 LINE",
"281 0 LINE"
);
}
);
width = 986;
},
{
associatedMasterId = "CF31647D-EA7E-42DE-ACE7-E9318D6117AA";
layerId = "08383D82-2182-4127-B34B-6EA12D180C81";
name = "Feb 1 18, 17:59";
paths = (
{
closed = 1;
nodes = (
"359 0 LINE",
"370 70 LINE",
"197 670 LINE",
"30 670 LINE",
"30 640 LINE",
"111 640 LINE",
"311 0 LINE"
);
},
{
closed = 1;
nodes = (
"374 0 LINE",
"527 659 LINE",
"493 659 LINE",
"339 0 LINE"
);
},
{
closed = 1;
nodes = (
"646 640 LINE",
"646 670 LINE",
"464 670 LINE",
"464 640 LINE"
);
},
{
closed = 1;
nodes = (
"276 640 LINE",
"276 670 LINE",
"158 670 LINE",
"158 640 LINE"
);
},
{
closed = 1;
nodes = (
"685 0 LINE",
"705 70 LINE",
"548 670 LINE",
"382 670 LINE",
"382 640 LINE",
"468 640 LINE",
"636 0 LINE"
);
},
{
closed = 1;
nodes = (
"702 0 LINE",
"887 659 LINE",
"857 659 LINE",
"672 0 LINE"
);
},
{
closed = 1;
nodes = (
"952 640 LINE",
"952 670 LINE",
"782 670 LINE",
"782 640 LINE"
);
},
{
closed = 1;
nodes = (
"600 640 LINE",
"600 670 LINE",
"486 670 LINE",
"486 640 LINE"
);
}
);
width = 968;
},
{
anchors = (
{
name = bottom;
position = "{498, 0}";
},
{
name = top;
position = "{528, 670}";
}
);
layerId = "37DD2CA1-C758-4BBE-932B-6884A881B1A3";
paths = (
{
closed = 1;
nodes = (
"353 0 LINE",
"512 460 LINE",
"517 460 LINE",
"683 0 LINE",
"758 0 LINE",
"940 635 LINE",
"998 635 LINE",
"998 670 LINE",
"792 670 LINE",
"792 635 LINE",
"877 635 LINE",
"887 625 LINE",
"770 215 LINE",
"765 215 LINE",
"624 625 LINE",
"634 635 LINE",
"702 635 LINE",
"702 670 LINE",
"398 670 LINE",
"398 635 LINE",
"451 635 LINE",
"487 533 LINE",
"377 215 LINE",
"372 215 LINE",
"239 625 LINE",
"249 635 LINE",
"304 635 LINE",
"304 670 LINE",
"6 670 LINE",
"6 635 LINE",
"61 635 LINE",
"278 0 LINE"
);
}
);
width = 998;
}
);
leftKerningGroup = V;
leftMetricsKey = "=V*1.2";
rightKerningGroup = V;
rightMetricsKey = "=V*1.2";
unicode = 0057;
},
{
glyphname = X;
lastChange = "2019-09-09 14:37:26 +0000";
layers = (
{
anchors = (
{
name = bottom;
position = "{334, 0}";
},
{
name = right_bottom;
position = "{651, 35}";
},
{
name = top;
position = "{334, 670}";
}
);
layerId = "CF31647D-EA7E-42DE-ACE7-E9318D6117AA";
paths = (
{
closed = 1;
nodes = (
"217 630 LINE",
"222 635 LINE",
"292 635 LINE",
"292 670 LINE",
"36 670 LINE",
"36 635 LINE",
"106 635 LINE",
"471 40 LINE",
"466 35 LINE",
"396 35 LINE",
"396 0 LINE",
"651 0 LINE",
"651 35 LINE",
"581 35 LINE"
);
},
{
closed = 1;
nodes = (
"379 352 LINE",
"562 635 LINE",
"622 635 LINE",
"622 670 LINE",
"416 670 LINE",
"416 635 LINE",
"501 635 LINE",
"506 630 LINE",
"328 352 LINE"
);
},
{
closed = 1;
nodes = (
"282 352 LINE",
"76 35 LINE",
"16 35 LINE",
"16 0 LINE",
"232 0 LINE",
"232 35 LINE",
"137 35 LINE",
"132 40 LINE",
"333 352 LINE"
);
}
);
width = 668;
},
{
associatedMasterId = "CF31647D-EA7E-42DE-ACE7-E9318D6117AA";
layerId = "CD246193-AC23-4505-8CC2-D82AE777EB95";
name = "Feb 1 18, 18:13";
paths = (
{
closed = 1;
nodes = (
"625 20 LINE",
"245 656 LINE",
"131 656 LINE",
"533 10 LINE"
);
},
{
closed = 1;
nodes = (
"151 0 LINE",
"395 341 LINE",
"337 341 LINE",
"94 0 LINE"
);
},
{
closed = 1;
nodes = (
"652 640 LINE",
"652 670 LINE",
"454 670 LINE",
"454 640 LINE"
);
},
{
closed = 1;
nodes = (
"338 640 LINE",
"338 670 LINE",
"83 670 LINE",
"83 640 LINE"
);
},
{
closed = 1;
nodes = (
"254 0 LINE",
"254 30 LINE",
"50 30 LINE",
"50 0 LINE"
);
},
{
closed = 1;
nodes = (
"698 2 LINE",
"698 32 LINE",
"439 32 LINE",
"439 2 LINE"
);
},
{
closed = 1;
nodes = (
"407 381 LINE",
"602 657 LINE",
"553 657 LINE",
"356 381 LINE"
);
}
);
width = 600;
},
{
anchors = (
{
name = bottom;
position = "{339, 0}";
},
{
name = right_bottom;
position = "{666, 35}";
},
{
name = top;
position = "{339, 670}";
}
);
guideLines = (
{
angle = 237.111;
position = "{413, 494}";
},
{
angle = 237.111;
position = "{363, 494}";
}
);
layerId = "37DD2CA1-C758-4BBE-932B-6884A881B1A3";
paths = (
{
closed = 1;
nodes = (
"255 625 LINE",
"265 635 LINE",
"317 635 LINE",
"317 670 LINE",
"11 670 LINE",
"11 635 LINE",
"66 635 LINE",
"423 45 LINE",
"413 35 LINE",
"358 35 LINE",
"358 0 LINE",
"666 0 LINE",
"666 35 LINE",
"611 35 LINE"
);
},
{
closed = 1;
nodes = (
"399 352 LINE",
"582 635 LINE",
"637 635 LINE",
"637 670 LINE",
"431 670 LINE",
"431 635 LINE",
"516 635 LINE",
"526 625 LINE",
"348 352 LINE"
);
},
{
closed = 1;
nodes = (
"272 352 LINE",
"66 35 LINE",
"11 35 LINE",
"11 0 LINE",
"220 0 LINE",
"220 35 LINE",
"135 35 LINE",
"125 45 LINE",
"323 352 LINE"
);
}
);
width = 678;
}
);
leftKerningGroup = X;
rightKerningGroup = X;
unicode = 0058;
},
{
glyphname = Y;
lastChange = "2019-09-09 14:37:26 +0000";
layers = (
{
anchors = (
{
name = bottom;
position = "{321, 0}";
},
{
name = top;
position = "{341, 670}";
},
{
name = topleft;
position = "{24, 670}";
}
);
components = (
{
name = _com_szeryf_caps;
transform = "{1, 0, 0, 1, 195, 0}";
}
);
guideLines = (
{
position = "{371, 284}";
}
);
layerId = "CF31647D-EA7E-42DE-ACE7-E9318D6117AA";
paths = (
{
closed = 1;
nodes = (
"427 635 LINE",
"512 635 LINE",
"517 630 LINE",
"353 337 LINE",
"348 337 LINE",
"187 630 LINE",
"192 635 LINE",
"262 635 LINE",
"262 670 LINE",
"11 670 LINE",
"11 635 LINE",
"81 635 LINE",
"280 279 LINE",
"280 20 LINE",
"370 20 LINE",
"370 279 LINE",
"570 635 LINE",
"630 635 LINE",
"630 670 LINE",
"427 670 LINE"
);
}
);
width = 641;
},
{
associatedMasterId = "CF31647D-EA7E-42DE-ACE7-E9318D6117AA";
layerId = "6324DA40-3221-41B3-A2FA-778217264FD2";
name = "Feb 1 18, 18:06";
paths = (
{
closed = 1;
nodes = (
"480 0 LINE",
"480 30 LINE",
"396 30 LINE",
"396 271 LINE",
"582 640 LINE",
"658 640 LINE",
"658 670 LINE",
"460 670 LINE",
"460 640 LINE",
"539 640 LINE",
"379 323 LINE",
"224 640 LINE",
"306 640 LINE",
"306 670 LINE",
"50 670 LINE",
"50 640 LINE",
"122 640 LINE",
"306 277 LINE",
"306 30 LINE",
"223 30 LINE",
"223 0 LINE"
);
}
);
width = 600;
},
{
anchors = (
{
name = bottom;
position = "{335, 0}";
},
{
name = top;
position = "{375, 670}";
},
{
name = topleft;
position = "{17, 670}";
}
);
components = (
{
name = _com_szeryf_caps;
transform = "{1, 0, 0, 1, 184, 0}";
}
);
layerId = "37DD2CA1-C758-4BBE-932B-6884A881B1A3";
paths = (
{
closed = 1;
nodes = (
"467 635 LINE",
"552 635 LINE",
"562 625 LINE",
"405 350 LINE",
"400 350 LINE",
"239 625 LINE",
"249 635 LINE",
"304 635 LINE",
"304 670 LINE",
"4 670 LINE",
"4 635 LINE",
"59 635 LINE",
"269 289 LINE",
"269 20 LINE",
"424 20 LINE",
"424 289 LINE",
"615 635 LINE",
"670 635 LINE",
"670 670 LINE",
"467 670 LINE"
);
}
);
width = 670;
}
);
leftKerningGroup = Y;
leftMetricsKey = "=V*0.7";
rightKerningGroup = Y;
rightMetricsKey = "=V*0.7";
unicode = 0059;
},
{
glyphname = Z;
lastChange = "2019-09-09 14:37:26 +0000";
layers = (
{
anchors = (
{
name = bottom;
position = "{296, 0}";
},
{
name = top;
position = "{296, 670}";
}
);
layerId = "CF31647D-EA7E-42DE-ACE7-E9318D6117AA";
paths = (
{
closed = 1;
nodes = (
"519 0 LINE",
"562 190 LINE",
"527 190 LINE",
"499 85 OFFCURVE",
"445 35 OFFCURVE",
"329 35 CURVE SMOOTH",
"138 35 LINE",
"133 40 LINE",
"524 640 LINE",
"524 670 LINE",
"68 670 LINE",
"32 510 LINE",
"65 500 LINE",
"93 605 OFFCURVE",
"142 635 OFFCURVE",
"258 635 CURVE SMOOTH",
"407 635 LINE",
"412 630 LINE",
"22 30 LINE",
"22 0 LINE"
);
}
);
width = 581;
},
{
anchors = (
{
name = bottom;
position = "{298, 0}";
},
{
name = top;
position = "{298, 670}";
}
);
layerId = "37DD2CA1-C758-4BBE-932B-6884A881B1A3";
paths = (
{
closed = 1;
nodes = (
"547 0 LINE",
"590 190 LINE",
"555 190 LINE",
"507 85 OFFCURVE",
"423 35 OFFCURVE",
"327 35 CURVE SMOOTH",
"214 35 LINE",
"204 45 LINE",
"552 640 LINE",
"552 670 LINE",
"66 670 LINE",
"30 510 LINE",
"63 500 LINE",
"111 605 OFFCURVE",
"190 635 OFFCURVE",
"286 635 CURVE SMOOTH",
"358 635 LINE",
"368 625 LINE",
"20 30 LINE",
"20 0 LINE"
);
}
);
width = 595;
},
{
associatedMasterId = "CF31647D-EA7E-42DE-ACE7-E9318D6117AA";
layerId = "2719561A-EBE0-4744-9795-144B2A690500";
name = "Feb 3 18, 10:24";
paths = (
{
closed = 1;
nodes = (
"105 670 LINE",
"65 498 LINE",
"95 492 LINE",
"129 607 OFFCURVE",
"171 640 OFFCURVE",
"295 640 CURVE",
"396 640 LINE",
"50 12 LINE",
"50 0 LINE",
"495 0 LINE",
"526 175 LINE",
"495 185 LINE",
"453 64 OFFCURVE",
"409 31 OFFCURVE",
"285 31 CURVE",
"160 31 LINE",
"495 628 LINE",
"495 670 LINE"
);
}
);
width = 571;
}
);
leftKerningGroup = Z;
rightKerningGroup = Z;
unicode = 005A;
},
{
color = 0;
glyphname = K.ss01;
lastChange = "2020-11-13 10:41:42 +0000";
layers = (
{
components = (
{
name = _com_szeryf_caps;
transform = "{1, 0, 0, 1, 50, 0}";
},
{
name = _com_szeryf_caps;
transform = "{1, 0, 0, -1, 50, 670}";
}
);
layerId = "CF31647D-EA7E-42DE-ACE7-E9318D6117AA";
paths = (
{
closed = 1;
nodes = (
"225 20 LINE",
"225 650 LINE",
"135 650 LINE",
"135 20 LINE"
);
},
{
closed = 1;
nodes = (
"223 258 LINE",
"620 635 LINE",
"675 635 LINE",
"675 670 LINE",
"441 670 LINE",
"441 635 LINE",
"547 635 LINE",
"552 630 LINE",
"163 258 LINE"
);
},
{
closed = 1;
nodes = (
"595 40 LINE",
"595 270 LINE SMOOTH",
"595 342 OFFCURVE",
"540 400 OFFCURVE",
"427 400 CURVE SMOOTH",
"330 400 OFFCURVE",
"283 358 OFFCURVE",
"225 305 CURVE",
"225 250 LINE",
"299 331 OFFCURVE",
"339 355 OFFCURVE",
"405 355 CURVE SMOOTH",
"476 355 OFFCURVE",
"505 315 OFFCURVE",
"505 250 CURVE SMOOTH",
"505 40 LINE",
"500 35 LINE",
"420 35 LINE",
"420 0 LINE",
"675 0 LINE",
"675 35 LINE",
"600 35 LINE"
);
}
);
width = 725;
},
{
components = (
{
name = _com_szeryf_caps;
transform = "{1, 0, 0, 1, 10, 0}";
},
{
name = _com_szeryf_caps;
transform = "{1, 0, 0, -1, 10, 670}";
}
);
layerId = "37DD2CA1-C758-4BBE-932B-6884A881B1A3";
paths = (
{
closed = 1;
nodes = (
"250 20 LINE",
"250 650 LINE",
"95 650 LINE",
"95 20 LINE"
);
},
{
closed = 1;
nodes = (
"265 264 LINE",
"640 635 LINE",
"695 635 LINE",
"695 670 LINE",
"453 670 LINE",
"453 635 LINE",
"557 635 LINE",
"567 625 LINE",
"204 264 LINE"
);
},
{
closed = 1;
nodes = (
"620 45 LINE",
"620 260 LINE SMOOTH",
"620 332 OFFCURVE",
"553 390 OFFCURVE",
"445 390 CURVE SMOOTH",
"353 390 OFFCURVE",
"292 348 OFFCURVE",
"250 305 CURVE",
"250 240 LINE",
"305 309 OFFCURVE",
"341 335 OFFCURVE",
"383 335 CURVE SMOOTH",
"431 335 OFFCURVE",
"465 314 OFFCURVE",
"465 250 CURVE SMOOTH",
"465 45 LINE",
"455 35 LINE",
"395 35 LINE",
"395 0 LINE",
"695 0 LINE",
"695 35 LINE",
"630 35 LINE"
);
}
);
width = 725;
}
);
leftMetricsKey = "=H";
rightMetricsKey = "=H";
},
{
color = 0;
glyphname = R.ss01;
lastChange = "2020-11-13 10:41:42 +0000";
layers = (
{
anchors = (
{
name = bottom;
position = "{353, 0}";
},
{
name = top;
position = "{353, 670}";
}
);
components = (
{
name = _com_szeryf_caps;
transform = "{1, 0, 0, 1, 50, 0}";
},
{
name = _com_szeryf_caps;
transform = "{1, 0, 0, -1, 50, 670}";
}
);
guideLines = (
{
angle = 126.486;
position = "{630, 35}";
}
);
layerId = "CF31647D-EA7E-42DE-ACE7-E9318D6117AA";
paths = (
{
closed = 1;
nodes = (
"345 310 LINE SMOOTH",
"449 310 OFFCURVE",
"595 370 OFFCURVE",
"595 498 CURVE SMOOTH",
"595 630 OFFCURVE",
"459 670 OFFCURVE",
"345 670 CURVE SMOOTH",
"255 670 LINE",
"255 635 LINE",
"325 635 LINE SMOOTH",
"419 635 OFFCURVE",
"500 589 OFFCURVE",
"500 490 CURVE SMOOTH",
"500 373 OFFCURVE",
"422 345 OFFCURVE",
"325 345 CURVE SMOOTH",
"225 345 LINE",
"225 310 LINE"
);
},
{
closed = 1;
nodes = (
"225 20 LINE",
"225 650 LINE",
"135 650 LINE",
"135 20 LINE"
);
},
{
closed = 1;
nodes = (
"675 0 LINE",
"675 35 LINE",
"600 35 LINE",
"595 40 LINE",
"595 191 LINE SMOOTH",
"595 286 OFFCURVE",
"547 332 OFFCURVE",
"436 343 CURVE",
"340 310 LINE",
"455 310 OFFCURVE",
"505 272 OFFCURVE",
"505 183 CURVE SMOOTH",
"505 40 LINE",
"500 35 LINE",
"420 35 LINE",
"420 0 LINE"
);
}
);
width = 710;
},
{
anchors = (
{
name = bottom;
position = "{358, 0}";
},
{
name = top;
position = "{358, 670}";
}
);
components = (
{
name = _com_szeryf_caps;
transform = "{1, 0, 0, 1, 10, 0}";
},
{
name = _com_szeryf_caps;
transform = "{1, 0, 0, -1, 10, 670}";
}
);
layerId = "37DD2CA1-C758-4BBE-932B-6884A881B1A3";
paths = (
{
closed = 1;
nodes = (
"365 310 LINE SMOOTH",
"479 310 OFFCURVE",
"615 380 OFFCURVE",
"615 498 CURVE SMOOTH",
"615 620 OFFCURVE",
"489 670 OFFCURVE",
"365 670 CURVE SMOOTH",
"275 670 LINE",
"275 635 LINE",
"325 635 LINE SMOOTH",
"389 635 OFFCURVE",
"450 579 OFFCURVE",
"450 490 CURVE SMOOTH",
"450 383 OFFCURVE",
"392 345 OFFCURVE",
"325 345 CURVE SMOOTH",
"245 345 LINE",
"245 310 LINE"
);
},
{
closed = 1;
nodes = (
"250 20 LINE",
"250 650 LINE",
"95 650 LINE",
"95 20 LINE"
);
},
{
closed = 1;
nodes = (
"690 0 LINE",
"690 35 LINE",
"625 35 LINE",
"615 45 LINE",
"615 182 LINE SMOOTH",
"615 290 OFFCURVE",
"564 344 OFFCURVE",
"436 354 CURVE",
"325 310 LINE",
"429 310 OFFCURVE",
"460 258 OFFCURVE",
"460 174 CURVE SMOOTH",
"460 45 LINE",
"450 35 LINE",
"390 35 LINE",
"390 0 LINE"
);
}
);
width = 711;
}
);
leftMetricsKey = "=H";
rightMetricsKey = "=U";
},
{
glyphname = Bsmall;
lastChange = "2019-09-11 14:17:35 +0000";
layers = (
{
anchors = (
{
name = bottom;
position = "{280, 0}";
},
{
name = top;
position = "{280, 459}";
}
);
layerId = "CF31647D-EA7E-42DE-ACE7-E9318D6117AA";
paths = (
{
closed = 1;
nodes = (
"456 258 OFFCURVE",
"495 295 OFFCURVE",
"495 349 CURVE SMOOTH",
"495 424 OFFCURVE",
"420 460 OFFCURVE",
"302 460 CURVE SMOOTH",
"40 460 LINE",
"40 425 LINE",
"115 425 LINE",
"120 420 LINE",
"120 40 LINE",
"115 35 LINE",
"40 35 LINE",
"40 0 LINE",
"334 0 LINE SMOOTH",
"417 0 OFFCURVE",
"521 41 OFFCURVE",
"521 129 CURVE SMOOTH",
"521 187 OFFCURVE",
"475 235 OFFCURVE",
"384 244 CURVE"
);
},
{
closed = 1;
nodes = (
"205 425 LINE",
"282 425 LINE SMOOTH",
"362 425 OFFCURVE",
"407 398 OFFCURVE",
"407 344 CURVE SMOOTH",
"407 293 OFFCURVE",
"356 251 OFFCURVE",
"282 251 CURVE SMOOTH",
"200 251 LINE",
"200 420 LINE"
);
},
{
closed = 1;
nodes = (
"205 35 LINE",
"200 40 LINE",
"200 216 LINE",
"305 216 LINE SMOOTH",
"385 216 OFFCURVE",
"431 183 OFFCURVE",
"431 125 CURVE SMOOTH",
"431 65 OFFCURVE",
"381 35 OFFCURVE",
"314 35 CURVE SMOOTH"
);
}
);
width = 561;
},
{
anchors = (
{
name = bottom;
position = "{300, 0}";
},
{
name = top;
position = "{300, 481}";
}
);
layerId = "37DD2CA1-C758-4BBE-932B-6884A881B1A3";
paths = (
{
closed = 1;
nodes = (
"497 261 OFFCURVE",
"541 303 OFFCURVE",
"541 362 CURVE SMOOTH",
"541 440 OFFCURVE",
"464 480 OFFCURVE",
"365 480 CURVE SMOOTH",
"30 480 LINE",
"30 445 LINE",
"80 445 LINE",
"90 435 LINE",
"90 45 LINE",
"80 35 LINE",
"30 35 LINE",
"30 0 LINE",
"367 0 LINE SMOOTH",
"471 0 OFFCURVE",
"568 45 OFFCURVE",
"568 132 CURVE SMOOTH",
"568 191 OFFCURVE",
"527 246 OFFCURVE",
"423 254 CURVE"
);
},
{
closed = 1;
nodes = (
"245 445 LINE",
"295 445 LINE SMOOTH",
"334 445 OFFCURVE",
"386 418 OFFCURVE",
"386 355 CURVE SMOOTH",
"386 287 OFFCURVE",
"330 260 OFFCURVE",
"295 260 CURVE SMOOTH",
"235 260 LINE",
"235 435 LINE"
);
},
{
closed = 1;
nodes = (
"245 35 LINE",
"235 45 LINE",
"235 225 LINE",
"308 225 LINE SMOOTH",
"388 225 OFFCURVE",
"408 169 OFFCURVE",
"408 130 CURVE SMOOTH",
"408 66 OFFCURVE",
"355 35 OFFCURVE",
"317 35 CURVE SMOOTH"
);
}
);
width = 596;
}
);
leftKerningGroup = n;
leftMetricsKey = "=en-cy";
rightKerningGroup = b;
rightMetricsKey = "=o*0.8";
unicode = 0299;
},
{
glyphname = Gsmall;
lastChange = "2019-09-11 14:17:35 +0000";
layers = (
{
anchors = (
{
name = bottom;
position = "{287, 0}";
},
{
name = top;
position = "{287, 459}";
}
);
layerId = "CF31647D-EA7E-42DE-ACE7-E9318D6117AA";
paths = (
{
closed = 1;
nodes = (
"341 188 LINE",
"404 188 LINE",
"409 183 LINE",
"409 150 LINE",
"419 55 LINE",
"424 55 LINE",
"449 0 LINE",
"484 0 LINE",
"484 183 LINE",
"489 188 LINE",
"536 188 LINE",
"536 223 LINE",
"341 223 LINE"
);
},
{
closed = 1;
nodes = (
"187 31 OFFCURVE",
"137 132 OFFCURVE",
"137 235 CURVE SMOOTH",
"137 328 OFFCURVE",
"178 434 OFFCURVE",
"288 434 CURVE SMOOTH",
"345 434 OFFCURVE",
"418 403 OFFCURVE",
"461 302 CURVE",
"489 310 LINE",
"479 365 OFFCURVE",
"474 406 OFFCURVE",
"470 459 CURVE",
"440 459 LINE",
"423 427 LINE",
"384 451 OFFCURVE",
"346 468 OFFCURVE",
"289 468 CURVE SMOOTH",
"144 468 OFFCURVE",
"50 358 OFFCURVE",
"50 230 CURVE SMOOTH",
"50 101 OFFCURVE",
"144 -9 OFFCURVE",
"282 -9 CURVE SMOOTH",
"350 -9 OFFCURVE",
"389 18 OFFCURVE",
"419 55 CURVE",
"409 150 LINE",
"409 71 OFFCURVE",
"356 31 OFFCURVE",
"291 31 CURVE SMOOTH"
);
}
);
width = 568;
},
{
anchors = (
{
name = bottom;
position = "{294, 0}";
},
{
name = top;
position = "{294, 481}";
}
);
layerId = "37DD2CA1-C758-4BBE-932B-6884A881B1A3";
paths = (
{
closed = 1;
nodes = (
"331 208 LINE",
"369 208 LINE",
"379 198 LINE",
"379 176 LINE",
"388 28 LINE",
"393 28 LINE",
"469 0 LINE",
"504 0 LINE",
"504 198 LINE",
"514 208 LINE",
"536 208 LINE",
"536 243 LINE",
"331 243 LINE"
);
},
{
closed = 1;
nodes = (
"224 36 OFFCURVE",
"199 132 OFFCURVE",
"199 245 CURVE SMOOTH",
"199 373 OFFCURVE",
"231 455 OFFCURVE",
"315 455 CURVE SMOOTH",
"360 455 OFFCURVE",
"411 431 OFFCURVE",
"464 306 CURVE",
"499 315 LINE",
"485 383 OFFCURVE",
"483 427 OFFCURVE",
"482 481 CURVE",
"447 481 LINE",
"436 456 LINE",
"405 473 OFFCURVE",
"356 490 OFFCURVE",
"302 490 CURVE SMOOTH",
"181 490 OFFCURVE",
"40 409 OFFCURVE",
"40 239 CURVE SMOOTH",
"40 82 OFFCURVE",
"159 -10 OFFCURVE",
"281 -10 CURVE SMOOTH",
"339 -10 OFFCURVE",
"363 10 OFFCURVE",
"388 28 CURVE",
"379 176 LINE",
"379 72 OFFCURVE",
"334 36 OFFCURVE",
"292 36 CURVE SMOOTH"
);
}
);
width = 560;
}
);
leftKerningGroup = o;
leftMetricsKey = "=g.sc";
rightKerningGroup = n;
rightMetricsKey = "=g.sc";
unicode = 0262;
},
{
glyphname = Gsmallhook;
lastChange = "2019-09-11 14:17:35 +0000";
layers = (
{
anchors = (
{
name = bottom;
position = "{287, 0}";
},
{
name = top;
position = "{287, 459}";
}
);
layerId = "CF31647D-EA7E-42DE-ACE7-E9318D6117AA";
paths = (
{
closed = 1;
nodes = (
"341 188 LINE",
"404 188 LINE",
"409 183 LINE",
"409 150 LINE",
"419 55 LINE",
"424 55 LINE",
"449 0 LINE",
"484 0 LINE",
"484 183 LINE",
"489 188 LINE",
"536 188 LINE",
"536 223 LINE",
"341 223 LINE"
);
},
{
closed = 1;
nodes = (
"485 593 OFFCURVE",
"441 545 OFFCURVE",
"423 427 CURVE",
"384 451 OFFCURVE",
"346 468 OFFCURVE",
"289 468 CURVE SMOOTH",
"144 468 OFFCURVE",
"50 358 OFFCURVE",
"50 230 CURVE SMOOTH",
"50 101 OFFCURVE",
"144 -9 OFFCURVE",
"282 -9 CURVE SMOOTH",
"350 -9 OFFCURVE",
"389 18 OFFCURVE",
"419 55 CURVE",
"409 150 LINE",
"409 71 OFFCURVE",
"356 31 OFFCURVE",
"291 31 CURVE SMOOTH",
"187 31 OFFCURVE",
"137 132 OFFCURVE",
"137 235 CURVE SMOOTH",
"137 328 OFFCURVE",
"178 434 OFFCURVE",
"288 434 CURVE SMOOTH",
"345 434 OFFCURVE",
"418 403 OFFCURVE",
"461 302 CURVE",
"489 310 LINE",
"471 407 OFFCURVE",
"447 485 OFFCURVE",
"510 534 CURVE",
"518 503 OFFCURVE",
"538 493 OFFCURVE",
"559 493 CURVE SMOOTH",
"588 493 OFFCURVE",
"609 517 OFFCURVE",
"609 543 CURVE SMOOTH",
"609 571 OFFCURVE",
"588 593 OFFCURVE",
"554 593 CURVE SMOOTH"
);
}
);
width = 568;
},
{
anchors = (
{
name = bottom;
position = "{294, 0}";
},
{
name = top;
position = "{294, 481}";
}
);
layerId = "37DD2CA1-C758-4BBE-932B-6884A881B1A3";
paths = (
{
closed = 1;
nodes = (
"331 208 LINE",
"369 208 LINE",
"379 198 LINE",
"379 176 LINE",
"388 28 LINE",
"393 28 LINE",
"469 0 LINE",
"504 0 LINE",
"504 198 LINE",
"514 208 LINE",
"536 208 LINE",
"536 243 LINE",
"331 243 LINE"
);
},
{
closed = 1;
nodes = (
"502 667 OFFCURVE",
"448 607 OFFCURVE",
"444 456 CURVE",
"413 473 OFFCURVE",
"356 490 OFFCURVE",
"302 490 CURVE SMOOTH",
"181 490 OFFCURVE",
"40 409 OFFCURVE",
"40 239 CURVE SMOOTH",
"40 82 OFFCURVE",
"159 -10 OFFCURVE",
"281 -10 CURVE SMOOTH",
"339 -10 OFFCURVE",
"363 10 OFFCURVE",
"388 28 CURVE",
"379 176 LINE",
"379 72 OFFCURVE",
"334 36 OFFCURVE",
"292 36 CURVE SMOOTH",
"224 36 OFFCURVE",
"199 132 OFFCURVE",
"199 245 CURVE SMOOTH",
"199 373 OFFCURVE",
"231 455 OFFCURVE",
"315 455 CURVE SMOOTH",
"360 455 OFFCURVE",
"411 431 OFFCURVE",
"464 306 CURVE",
"499 315 LINE",
"476 426 OFFCURVE",
"466 515 OFFCURVE",
"523 589 CURVE",
"530 542 OFFCURVE",
"561 527 OFFCURVE",
"586 527 CURVE SMOOTH",
"626 527 OFFCURVE",
"656 557 OFFCURVE",
"656 597 CURVE SMOOTH",
"656 637 OFFCURVE",
"626 667 OFFCURVE",
"581 667 CURVE SMOOTH"
);
}
);
width = 560;
}
);
leftKerningGroup = o;
leftMetricsKey = "=Gsmall";
rightKerningGroup = n;
unicode = 029B;
},
{
glyphname = Hsmall;
lastChange = "2019-09-11 14:17:35 +0000";
layers = (
{
layerId = "CF31647D-EA7E-42DE-ACE7-E9318D6117AA";
paths = (
{
closed = 1;
nodes = (
"200 420 LINE",
"205 425 LINE",
"280 425 LINE",
"280 460 LINE",
"40 460 LINE",
"40 425 LINE",
"115 425 LINE",
"120 420 LINE",
"120 40 LINE",
"115 35 LINE",
"40 35 LINE",
"40 0 LINE",
"280 0 LINE",
"280 35 LINE",
"205 35 LINE",
"200 40 LINE"
);
},
{
closed = 1;
nodes = (
"520 420 LINE",
"525 425 LINE",
"600 425 LINE",
"600 460 LINE",
"360 460 LINE",
"360 425 LINE",
"435 425 LINE",
"440 420 LINE",
"440 40 LINE",
"435 35 LINE",
"360 35 LINE",
"360 0 LINE",
"600 0 LINE",
"600 35 LINE",
"525 35 LINE",
"520 40 LINE"
);
},
{
closed = 1;
nodes = (
"488 265 LINE",
"160 265 LINE",
"160 230 LINE",
"488 230 LINE"
);
}
);
width = 640;
},
{
layerId = "37DD2CA1-C758-4BBE-932B-6884A881B1A3";
paths = (
{
closed = 1;
nodes = (
"235 434 LINE",
"245 444 LINE",
"295 444 LINE",
"295 479 LINE",
"30 479 LINE",
"30 444 LINE",
"80 444 LINE",
"90 434 LINE",
"90 45 LINE",
"80 35 LINE",
"30 35 LINE",
"30 0 LINE",
"295 0 LINE",
"295 35 LINE",
"245 35 LINE",
"235 45 LINE"
);
},
{
closed = 1;
nodes = (
"560 434 LINE",
"570 444 LINE",
"620 444 LINE",
"620 479 LINE",
"355 479 LINE",
"355 444 LINE",
"405 444 LINE",
"415 434 LINE",
"415 45 LINE",
"405 35 LINE",
"355 35 LINE",
"355 0 LINE",
"620 0 LINE",
"620 35 LINE",
"570 35 LINE",
"560 45 LINE"
);
},
{
closed = 1;
nodes = (
"481 275 LINE",
"155 275 LINE",
"155 240 LINE",
"481 240 LINE"
);
}
);
width = 650;
}
);
leftKerningGroup = n;
leftMetricsKey = "=n";
rightKerningGroup = n;
rightMetricsKey = "=|n";
unicode = 029C;
},
{
glyphname = Ismall;
lastChange = "2019-09-11 14:17:35 +0000";
layers = (
{
layerId = "CF31647D-EA7E-42DE-ACE7-E9318D6117AA";
paths = (
{
closed = 1;
nodes = (
"200 420 LINE",
"205 425 LINE",
"280 425 LINE",
"280 460 LINE",
"40 460 LINE",
"40 425 LINE",
"115 425 LINE",
"120 420 LINE",
"120 40 LINE",
"115 35 LINE",
"40 35 LINE",
"40 0 LINE",
"280 0 LINE",
"280 35 LINE",
"205 35 LINE",
"200 40 LINE"
);
}
);
width = 320;
},
{
layerId = "37DD2CA1-C758-4BBE-932B-6884A881B1A3";
paths = (
{
closed = 1;
nodes = (
"235 434 LINE",
"245 444 LINE",
"295 444 LINE",
"295 479 LINE",
"30 479 LINE",
"30 444 LINE",
"80 444 LINE",
"90 434 LINE",
"90 45 LINE",
"80 35 LINE",
"30 35 LINE",
"30 0 LINE",
"295 0 LINE",
"295 35 LINE",
"245 35 LINE",
"235 45 LINE"
);
}
);
width = 325;
}
);
leftKerningGroup = n;
leftMetricsKey = "=n";
rightKerningGroup = n;
rightMetricsKey = "=|n";
unicode = 026A;
},
{
glyphname = Lsmall;
lastChange = "2019-09-11 14:17:35 +0000";
layers = (
{
anchors = (
{
name = bottom;
position = "{252, 0}";
},
{
name = center;
position = "{237, 230}";
},
{
name = top;
position = "{157, 459}";
},
{
name = topright;
position = "{457, 459}";
}
);
layerId = "CF31647D-EA7E-42DE-ACE7-E9318D6117AA";
paths = (
{
closed = 1;
nodes = (
"398 84 OFFCURVE",
"354 35 OFFCURVE",
"283 35 CURVE SMOOTH",
"205 35 LINE",
"200 40 LINE",
"200 420 LINE",
"205 425 LINE",
"280 425 LINE",
"280 460 LINE",
"40 460 LINE",
"40 425 LINE",
"115 425 LINE",
"120 420 LINE",
"120 40 LINE",
"115 35 LINE",
"40 35 LINE",
"40 0 LINE",
"421 0 LINE",
"461 179 LINE",
"426 179 LINE"
);
}
);
width = 476;
},
{
anchors = (
{
name = bottom;
position = "{260, 0}";
},
{
name = center;
position = "{255, 240}";
},
{
name = top;
position = "{168, 481}";
},
{
name = topright;
position = "{473, 481}";
}
);
layerId = "37DD2CA1-C758-4BBE-932B-6884A881B1A3";
paths = (
{
closed = 1;
nodes = (
"389 59 OFFCURVE",
"348 35 OFFCURVE",
"288 35 CURVE SMOOTH",
"245 35 LINE",
"235 45 LINE",
"235 434 LINE",
"245 444 LINE",
"295 444 LINE",
"295 479 LINE",
"30 479 LINE",
"30 444 LINE",
"80 444 LINE",
"90 434 LINE",
"90 45 LINE",
"80 35 LINE",
"30 35 LINE",
"30 0 LINE",
"436 0 LINE",
"477 187 LINE",
"442 187 LINE"
);
}
);
width = 492;
}
);
leftKerningGroup = n;
leftMetricsKey = "=en-cy";
rightKerningGroup = L;
rightMetricsKey = "=L";
unicode = 029F;
},
{
glyphname = Nsmall;
lastChange = "2019-09-11 14:17:35 +0000";
layers = (
{
anchors = (
{
name = bottom;
position = "{278, 0}";
},
{
name = top;
position = "{278, 540}";
}
);
layerId = "CF31647D-EA7E-42DE-ACE7-E9318D6117AA";
paths = (
{
closed = 1;
nodes = (
"480 0 LINE",
"480 105 LINE",
"475 105 LINE",
"200 460 LINE",
"40 460 LINE",
"40 425 LINE",
"120 425 LINE",
"125 420 LINE",
"170 355 LINE",
"175 355 LINE",
"450 0 LINE"
);
},
{
closed = 1;
nodes = (
"255 0 LINE",
"255 35 LINE",
"175 35 LINE",
"170 40 LINE",
"170 355 LINE",
"125 420 LINE",
"125 40 LINE",
"120 35 LINE",
"40 35 LINE",
"40 0 LINE"
);
},
{
closed = 1;
nodes = (
"395 460 LINE",
"395 425 LINE",
"475 425 LINE",
"480 420 LINE",
"480 0 LINE",
"525 0 LINE",
"525 420 LINE",
"530 425 LINE",
"600 425 LINE",
"600 460 LINE"
);
}
);
width = 635;
},
{
anchors = (
{
name = bottom;
position = "{293, 0}";
},
{
name = top;
position = "{293, 540}";
}
);
layerId = "37DD2CA1-C758-4BBE-932B-6884A881B1A3";
paths = (
{
closed = 1;
nodes = (
"495 0 LINE",
"495 178 LINE",
"490 178 LINE",
"170 480 LINE",
"30 480 LINE",
"30 445 LINE",
"85 445 LINE",
"95 435 LINE",
"140 302 LINE",
"145 302 LINE",
"465 0 LINE"
);
},
{
closed = 1;
nodes = (
"235 0 LINE",
"235 35 LINE",
"150 35 LINE",
"140 45 LINE",
"140 302 LINE",
"95 435 LINE",
"95 45 LINE",
"85 35 LINE",
"30 35 LINE",
"30 0 LINE"
);
},
{
closed = 1;
nodes = (
"400 480 LINE",
"400 445 LINE",
"485 445 LINE",
"495 435 LINE",
"495 0 LINE",
"540 0 LINE",
"540 435 LINE",
"550 445 LINE",
"605 445 LINE",
"605 480 LINE"
);
}
);
width = 626;
}
);
leftKerningGroup = n;
leftMetricsKey = "=en-cy";
rightKerningGroup = n;
rightMetricsKey = "=u.sc";
unicode = 0274;
},
{
glyphname = OEsmall;
lastChange = "2019-09-11 14:17:35 +0000";
layers = (
{
anchors = (
{
name = bottom;
position = "{607, 0}";
},
{
name = center;
position = "{60, 230}";
},
{
name = ogonek;
position = "{787, 0}";
},
{
name = top;
position = "{607, 459}";
},
{
name = topleft;
position = "{368, 459}";
},
{
name = topright;
position = "{334, 459}";
}
);
layerId = "CF31647D-EA7E-42DE-ACE7-E9318D6117AA";
paths = (
{
closed = 1;
nodes = (
"697 72 OFFCURVE",
"655 35 OFFCURVE",
"561 35 CURVE SMOOTH",
"489 35 LINE",
"484 40 LINE",
"484 224 LINE",
"530 224 LINE SMOOTH",
"578 224 OFFCURVE",
"605 204 OFFCURVE",
"608 148 CURVE",
"638 148 LINE",
"638 331 LINE",
"608 331 LINE",
"605 265 OFFCURVE",
"568 254 OFFCURVE",
"530 254 CURVE SMOOTH",
"484 254 LINE",
"484 425 LINE",
"489 430 LINE",
"552 430 LINE SMOOTH",
"646 430 OFFCURVE",
"683 406 OFFCURVE",
"711 315 CURVE",
"746 323 LINE",
"715 460 LINE",
"426 460 LINE SMOOTH",
"394 460 OFFCURVE",
"342 465 OFFCURVE",
"300 465 CURVE SMOOTH",
"154 465 OFFCURVE",
"50 362 OFFCURVE",
"50 227 CURVE SMOOTH",
"50 94 OFFCURVE",
"155 -5 OFFCURVE",
"300 -5 CURVE SMOOTH",
"342 -5 OFFCURVE",
"388 0 OFFCURVE",
"426 0 CURVE SMOOTH",
"724 0 LINE",
"760 162 LINE",
"725 162 LINE"
);
},
{
closed = 1;
nodes = (
"395 61 OFFCURVE",
"369 29 OFFCURVE",
"307 29 CURVE SMOOTH",
"208 29 OFFCURVE",
"144 113 OFFCURVE",
"144 237 CURVE SMOOTH",
"144 349 OFFCURVE",
"197 431 OFFCURVE",
"294 431 CURVE SMOOTH",
"349 431 OFFCURVE",
"395 406 OFFCURVE",
"395 315 CURVE SMOOTH",
"395 143 LINE SMOOTH"
);
}
);
width = 800;
},
{
anchors = (
{
name = bottom;
position = "{968, 0}";
},
{
name = center;
position = "{426, 240}";
},
{
name = ogonek;
position = "{1148, 0}";
},
{
name = top;
position = "{968, 481}";
},
{
name = topleft;
position = "{744, 481}";
},
{
name = topright;
position = "{710, 481}";
}
);
layerId = "37DD2CA1-C758-4BBE-932B-6884A881B1A3";
paths = (
{
closed = 1;
nodes = (
"698 75 OFFCURVE",
"646 35 OFFCURVE",
"572 35 CURVE SMOOTH",
"555 35 LINE",
"545 45 LINE",
"545 228 LINE",
"551 228 LINE SMOOTH",
"599 228 OFFCURVE",
"641 199 OFFCURVE",
"639 150 CURVE",
"669 150 LINE",
"669 341 LINE",
"639 341 LINE",
"641 292 OFFCURVE",
"599 263 OFFCURVE",
"551 263 CURVE SMOOTH",
"545 263 LINE",
"545 435 LINE",
"555 445 LINE",
"563 445 LINE SMOOTH",
"623 445 OFFCURVE",
"685 436 OFFCURVE",
"739 329 CURVE",
"767 338 LINE",
"735 480 LINE",
"451 480 LINE SMOOTH",
"386 480 OFFCURVE",
"343 485 OFFCURVE",
"297 485 CURVE SMOOTH",
"128 485 OFFCURVE",
"35 369 OFFCURVE",
"35 238 CURVE SMOOTH",
"35 107 OFFCURVE",
"123 -5 OFFCURVE",
"289 -5 CURVE SMOOTH",
"336 -5 OFFCURVE",
"388 0 OFFCURVE",
"452 0 CURVE SMOOTH",
"745 0 LINE",
"781 169 LINE",
"746 169 LINE"
);
},
{
closed = 1;
nodes = (
"391 51 OFFCURVE",
"331 32 OFFCURVE",
"304 32 CURVE SMOOTH",
"238 32 OFFCURVE",
"199 145 OFFCURVE",
"199 253 CURVE SMOOTH",
"199 358 OFFCURVE",
"237 449 OFFCURVE",
"307 449 CURVE SMOOTH",
"342 449 OFFCURVE",
"391 428 OFFCURVE",
"391 339 CURVE SMOOTH",
"391 175 LINE SMOOTH"
);
}
);
width = 809;
}
);
leftKerningGroup = o;
leftMetricsKey = "=o";
rightKerningGroup = n;
rightMetricsKey = "=e.sc";
unicode = 0276;
},
{
glyphname = Rsmall;
lastChange = "2019-09-11 14:17:35 +0000";
layers = (
{
anchors = (
{
name = bottom;
position = "{288, 0}";
},
{
name = top;
position = "{275, 459}";
}
);
layerId = "CF31647D-EA7E-42DE-ACE7-E9318D6117AA";
paths = (
{
closed = 1;
nodes = (
"372 211 LINE",
"426 231 OFFCURVE",
"476 269 OFFCURVE",
"476 330 CURVE SMOOTH",
"476 421 OFFCURVE",
"381 460 OFFCURVE",
"285 460 CURVE SMOOTH",
"40 460 LINE",
"40 425 LINE",
"115 425 LINE",
"120 420 LINE",
"120 40 LINE",
"115 35 LINE",
"40 35 LINE",
"40 0 LINE",
"280 0 LINE",
"280 35 LINE",
"205 35 LINE",
"200 40 LINE",
"200 196 LINE",
"289 196 LINE",
"405 40 LINE",
"400 35 LINE",
"339 35 LINE",
"339 0 LINE",
"566 0 LINE",
"566 35 LINE",
"505 35 LINE"
);
},
{
closed = 1;
nodes = (
"200 231 LINE",
"200 420 LINE",
"205 425 LINE",
"264 425 LINE SMOOTH",
"336 425 OFFCURVE",
"382 391 OFFCURVE",
"382 328 CURVE SMOOTH",
"382 259 OFFCURVE",
"337 231 OFFCURVE",
"264 231 CURVE SMOOTH"
);
}
);
width = 556;
},
{
anchors = (
{
name = bottom;
position = "{316, 0}";
},
{
name = top;
position = "{323, 481}";
}
);
layerId = "37DD2CA1-C758-4BBE-932B-6884A881B1A3";
paths = (
{
closed = 1;
nodes = (
"427 227 LINE",
"486 251 OFFCURVE",
"531 289 OFFCURVE",
"531 355 CURVE SMOOTH",
"531 440 OFFCURVE",
"456 480 OFFCURVE",
"340 480 CURVE SMOOTH",
"30 480 LINE",
"30 445 LINE",
"80 445 LINE",
"90 435 LINE",
"90 45 LINE",
"80 35 LINE",
"30 35 LINE",
"30 0 LINE",
"295 0 LINE",
"295 35 LINE",
"245 35 LINE",
"235 45 LINE",
"235 205 LINE",
"285 205 LINE",
"386 45 LINE",
"376 35 LINE",
"355 35 LINE",
"355 0 LINE",
"596 0 LINE",
"596 35 LINE",
"556 35 LINE"
);
},
{
closed = 1;
nodes = (
"235 240 LINE",
"235 435 LINE",
"245 445 LINE",
"279 445 LINE SMOOTH",
"324 445 OFFCURVE",
"367 414 OFFCURVE",
"367 348 CURVE SMOOTH",
"367 276 OFFCURVE",
"328 240 OFFCURVE",
"279 240 CURVE SMOOTH"
);
}
);
width = 596;
}
);
leftKerningGroup = n;
leftMetricsKey = "=en-cy";
rightKerningGroup = x;
rightMetricsKey = "=r.sc";
unicode = 0280;
},
{
glyphname = Tsmall;
lastChange = "2019-09-11 14:17:35 +0000";
layers = (
{
anchors = (
{
name = bottom;
position = "{237, 0}";
},
{
name = center;
position = "{237, 230}";
},
{
name = top;
position = "{237, 459}";
}
);
layerId = "CF31647D-EA7E-42DE-ACE7-E9318D6117AA";
paths = (
{
closed = 1;
nodes = (
"270 425 LINE",
"358 425 OFFCURVE",
"401 400 OFFCURVE",
"428 311 CURVE",
"458 319 LINE",
"435 460 LINE",
"38 460 LINE",
"15 319 LINE",
"45 311 LINE",
"73 405 OFFCURVE",
"122 425 OFFCURVE",
"201 425 CURVE"
);
},
{
closed = 1;
nodes = (
"197 443 LINE",
"197 40 LINE",
"192 35 LINE",
"117 35 LINE",
"117 0 LINE",
"357 0 LINE",
"357 35 LINE",
"282 35 LINE",
"277 40 LINE",
"277 443 LINE"
);
}
);
width = 473;
},
{
anchors = (
{
name = bottom;
position = "{257, 0}";
},
{
name = center;
position = "{257, 240}";
},
{
name = top;
position = "{257, 481}";
}
);
layerId = "37DD2CA1-C758-4BBE-932B-6884A881B1A3";
paths = (
{
closed = 1;
nodes = (
"324 445 LINE",
"380 445 OFFCURVE",
"436 411 OFFCURVE",
"473 308 CURVE",
"504 317 LINE",
"486 480 LINE",
"28 480 LINE",
"10 317 LINE",
"41 308 LINE",
"79 413 OFFCURVE",
"136 445 OFFCURVE",
"190 445 CURVE"
);
},
{
closed = 1;
nodes = (
"185 454 LINE",
"185 45 LINE",
"175 35 LINE",
"125 35 LINE",
"125 0 LINE",
"390 0 LINE",
"390 35 LINE",
"340 35 LINE",
"330 45 LINE",
"330 454 LINE"
);
}
);
width = 514;
}
);
unicode = 1D1B;
},
{
glyphname = Ysmall;
lastChange = "2019-09-11 14:17:35 +0000";
layers = (
{
anchors = (
{
name = bottom;
position = "{255, 0}";
},
{
name = top;
position = "{275, 540}";
},
{
name = topleft;
position = "{-26, 540}";
}
);
layerId = "CF31647D-EA7E-42DE-ACE7-E9318D6117AA";
paths = (
{
closed = 1;
nodes = (
"318 425 LINE",
"403 425 LINE",
"408 420 LINE",
"290 244 LINE",
"285 244 LINE",
"171 420 LINE",
"176 425 LINE",
"246 425 LINE",
"246 460 LINE",
"-5 460 LINE",
"-5 425 LINE",
"65 425 LINE",
"224 189 LINE",
"224 40 LINE",
"219 35 LINE",
"139 35 LINE",
"139 0 LINE",
"389 0 LINE",
"389 35 LINE",
"309 35 LINE",
"304 40 LINE",
"304 189 LINE",
"464 425 LINE",
"524 425 LINE",
"524 460 LINE",
"318 460 LINE"
);
}
);
width = 529;
},
{
anchors = (
{
name = bottom;
position = "{266, 0}";
},
{
name = top;
position = "{316, 540}";
},
{
name = topleft;
position = "{-29, 540}";
}
);
layerId = "37DD2CA1-C758-4BBE-932B-6884A881B1A3";
paths = (
{
closed = 1;
nodes = (
"358 445 LINE",
"443 445 LINE",
"453 435 LINE",
"337 235 LINE",
"332 235 LINE",
"220 435 LINE",
"230 445 LINE",
"285 445 LINE",
"285 480 LINE",
"-15 480 LINE",
"-15 445 LINE",
"40 445 LINE",
"210 179 LINE",
"210 45 LINE",
"200 35 LINE",
"145 35 LINE",
"145 0 LINE",
"420 0 LINE",
"420 35 LINE",
"365 35 LINE",
"355 45 LINE",
"355 179 LINE",
"506 445 LINE",
"561 445 LINE",
"561 480 LINE",
"358 480 LINE"
);
}
);
width = 549;
}
);
leftKerningGroup = v;
leftMetricsKey = "=v";
rightKerningGroup = v;
rightMetricsKey = "=v";
unicode = 028F;
},
{
glyphname = a;
lastChange = "2019-09-09 14:37:26 +0000";
layers = (
{
anchors = (
{
name = bottom;
position = "{266, 0}";
},
{
name = ogonek;
position = "{510, 0}";
},
{
name = top;
position = "{266, 460}";
}
);
layerId = "CF31647D-EA7E-42DE-ACE7-E9318D6117AA";
paths = (
{
closed = 1;
nodes = (
"477 -10 OFFCURVE",
"506 11 OFFCURVE",
"530 45 CURVE",
"503 68 LINE",
"489 51 OFFCURVE",
"475 35 OFFCURVE",
"457 35 CURVE SMOOTH",
"432 35 OFFCURVE",
"425 58 OFFCURVE",
"425 77 CURVE SMOOTH",
"425 315 LINE SMOOTH",
"425 436 OFFCURVE",
"347 470 OFFCURVE",
"252 470 CURVE SMOOTH",
"161 470 OFFCURVE",
"65 426 OFFCURVE",
"65 356 CURVE SMOOTH",
"65 321 OFFCURVE",
"87 300 OFFCURVE",
"115 300 CURVE SMOOTH",
"141 300 OFFCURVE",
"165 321 OFFCURVE",
"165 350 CURVE SMOOTH",
"165 370 OFFCURVE",
"157 388 OFFCURVE",
"136 400 CURVE",
"166 422 OFFCURVE",
"202 430 OFFCURVE",
"243 430 CURVE SMOOTH",
"319 430 OFFCURVE",
"345 381 OFFCURVE",
"345 300 CURVE SMOOTH",
"345 50 LINE",
"354 10 OFFCURVE",
"388 -10 OFFCURVE",
"434 -10 CURVE SMOOTH"
);
},
{
closed = 1;
nodes = (
"266 -10 OFFCURVE",
"314 15 OFFCURVE",
"345 50 CURVE",
"345 95 LINE",
"302 50 OFFCURVE",
"257 35 OFFCURVE",
"218 35 CURVE SMOOTH",
"155 35 OFFCURVE",
"115 70 OFFCURVE",
"115 122 CURVE SMOOTH",
"115 175 OFFCURVE",
"155 209 OFFCURVE",
"218 209 CURVE SMOOTH",
"257 209 OFFCURVE",
"302 194 OFFCURVE",
"345 149 CURVE",
"345 194 LINE",
"314 229 OFFCURVE",
"266 254 OFFCURVE",
"200 254 CURVE SMOOTH",
"94 254 OFFCURVE",
"35 195 OFFCURVE",
"35 122 CURVE SMOOTH",
"35 50 OFFCURVE",
"94 -10 OFFCURVE",
"200 -10 CURVE SMOOTH"
);
}
);
width = 525;
},
{
anchors = (
{
name = bottom;
position = "{294, 0}";
},
{
name = ogonek;
position = "{560, 0}";
},
{
name = top;
position = "{294, 480}";
}
);
layerId = "37DD2CA1-C758-4BBE-932B-6884A881B1A3";
paths = (
{
closed = 1;
nodes = (
"529 -10 OFFCURVE",
"561 30 OFFCURVE",
"585 65 CURVE",
"558 88 LINE",
"547 74 OFFCURVE",
"534 65 OFFCURVE",
"520 65 CURVE SMOOTH",
"498 65 OFFCURVE",
"490 85 OFFCURVE",
"490 104 CURVE SMOOTH",
"490 320 LINE SMOOTH",
"490 453 OFFCURVE",
"393 490 OFFCURVE",
"291 490 CURVE SMOOTH",
"191 490 OFFCURVE",
"60 454 OFFCURVE",
"60 370 CURVE SMOOTH",
"60 325 OFFCURVE",
"90 295 OFFCURVE",
"130 295 CURVE SMOOTH",
"170 295 OFFCURVE",
"200 325 OFFCURVE",
"200 365 CURVE SMOOTH",
"200 391 OFFCURVE",
"186 413 OFFCURVE",
"165 427 CURVE",
"190 439 OFFCURVE",
"215 445 OFFCURVE",
"244 445 CURVE SMOOTH",
"324 445 OFFCURVE",
"345 389 OFFCURVE",
"345 305 CURVE SMOOTH",
"345 40 LINE",
"369 2 OFFCURVE",
"401 -10 OFFCURVE",
"446 -10 CURVE SMOOTH"
);
},
{
closed = 1;
nodes = (
"284 -10 OFFCURVE",
"324 17 OFFCURVE",
"345 40 CURVE",
"345 88 LINE",
"317 55 OFFCURVE",
"282 38 OFFCURVE",
"249 38 CURVE SMOOTH",
"200 38 OFFCURVE",
"175 76 OFFCURVE",
"175 130 CURVE SMOOTH",
"175 184 OFFCURVE",
"200 222 OFFCURVE",
"249 222 CURVE SMOOTH",
"282 222 OFFCURVE",
"317 205 OFFCURVE",
"345 172 CURVE",
"345 220 LINE",
"324 243 OFFCURVE",
"284 270 OFFCURVE",
"210 270 CURVE SMOOTH",
"103 270 OFFCURVE",
"30 214 OFFCURVE",
"30 130 CURVE SMOOTH",
"30 45 OFFCURVE",
"104 -10 OFFCURVE",
"210 -10 CURVE SMOOTH"
);
}
);
width = 570;
}
);
leftKerningGroup = o;
rightKerningGroup = n;
unicode = 0061;
},
{
color = 0;
glyphname = "alpha-latin";
lastChange = "2020-11-13 10:41:42 +0000";
layers = (
{
components = (
{
name = _com_brzuch_b;
transform = "{-1, 0, 0, -1, 620, 460}";
}
);
layerId = "CF31647D-EA7E-42DE-ACE7-E9318D6117AA";
paths = (
{
closed = 1;
nodes = (
"495 40 LINE",
"495 460 LINE",
"460 460 LINE",
"415 369 LINE",
"415 0 LINE",
"420 -5 LINE",
"472 -1 OFFCURVE",
"523 0 OFFCURVE",
"575 0 CURVE",
"575 35 LINE",
"500 35 LINE"
);
}
);
width = 607;
},
{
components = (
{
name = _com_brzuch_b;
transform = "{-1, 0, 0, -1, 610, 490}";
}
);
layerId = "37DD2CA1-C758-4BBE-932B-6884A881B1A3";
paths = (
{
closed = 1;
nodes = (
"550 45 LINE",
"550 480 LINE",
"442 480 LINE",
"405 409 LINE",
"405 0 LINE",
"415 -10 LINE",
"467 -1 OFFCURVE",
"558 0 OFFCURVE",
"610 0 CURVE",
"610 35 LINE",
"560 35 LINE"
);
}
);
width = 634;
}
);
leftKerningGroup = o;
leftMetricsKey = "=d";
rightKerningGroup = n;
rightMetricsKey = "=d";
unicode = 0251;
},
{
glyphname = aogonek;
lastChange = "2020-09-26 21:11:32 +0000";
layers = (
{
anchors = (
{
name = _ogonek;
position = "{510, 0}";
}
);
components = (
{
name = a;
}
);
guideLines = (
{
angle = 90;
position = "{550, 45}";
}
);
layerId = "CF31647D-EA7E-42DE-ACE7-E9318D6117AA";
paths = (
{
closed = 1;
nodes = (
"383 -30 OFFCURVE",
"306 -75 OFFCURVE",
"306 -148 CURVE SMOOTH",
"306 -210 OFFCURVE",
"351 -250 OFFCURVE",
"418 -250 CURVE SMOOTH",
"462 -250 OFFCURVE",
"496 -232 OFFCURVE",
"530 -190 CURVE",
"503 -167 LINE",
"482 -190 OFFCURVE",
"460 -200 OFFCURVE",
"437 -200 CURVE SMOOTH",
"404 -200 OFFCURVE",
"386 -174 OFFCURVE",
"386 -142 CURVE SMOOTH",
"386 -91 OFFCURVE",
"426 -40 OFFCURVE",
"500 20 CURVE",
"485 33 LINE"
);
}
);
width = 525;
},
{
anchors = (
{
name = _ogonek;
position = "{560, 0}";
}
);
components = (
{
name = a;
}
);
guideLines = (
{
angle = 90;
position = "{592, 65}";
}
);
layerId = "37DD2CA1-C758-4BBE-932B-6884A881B1A3";
paths = (
{
closed = 1;
nodes = (
"410 -15 OFFCURVE",
"331 -70 OFFCURVE",
"331 -151 CURVE SMOOTH",
"331 -212 OFFCURVE",
"376 -250 OFFCURVE",
"455 -250 CURVE SMOOTH",
"513 -250 OFFCURVE",
"548 -228 OFFCURVE",
"585 -180 CURVE",
"558 -157 LINE",
"533 -183 OFFCURVE",
"513 -190 OFFCURVE",
"493 -190 CURVE SMOOTH",
"468 -190 OFFCURVE",
"446 -178 OFFCURVE",
"446 -141 CURVE SMOOTH",
"446 -87 OFFCURVE",
"468 -31 OFFCURVE",
"550 30 CURVE",
"540 34 LINE"
);
}
);
width = 570;
}
);
leftKerningGroup = o;
leftMetricsKey = "=a";
rightKerningGroup = n;
rightMetricsKey = "=a";
unicode = 0105;
},
{
glyphname = ae;
lastChange = "2020-09-26 19:40:01 +0000";
layers = (
{
anchors = (
{
name = bottom;
position = "{387, 0}";
},
{
name = ogonek;
position = "{1019, 10}";
},
{
name = top;
position = "{387, 460}";
}
);
layerId = "CF31647D-EA7E-42DE-ACE7-E9318D6117AA";
paths = (
{
closed = 1;
nodes = (
"484 30 OFFCURVE",
"409 112 OFFCURVE",
"409 230 CURVE SMOOTH",
"409 350 OFFCURVE",
"448 435 OFFCURVE",
"547 435 CURVE SMOOTH",
"621 435 OFFCURVE",
"651 381 OFFCURVE",
"656 285 CURVE",
"402 285 LINE",
"402 250 LINE",
"752 250 LINE",
"752 398 OFFCURVE",
"669 470 OFFCURVE",
"552 470 CURVE SMOOTH",
"493 470 OFFCURVE",
"437 449 OFFCURVE",
"395 410 CURVE",
"369 457 OFFCURVE",
"317 470 OFFCURVE",
"252 470 CURVE SMOOTH",
"161 470 OFFCURVE",
"65 426 OFFCURVE",
"65 356 CURVE SMOOTH",
"65 321 OFFCURVE",
"87 300 OFFCURVE",
"115 300 CURVE SMOOTH",
"141 300 OFFCURVE",
"165 321 OFFCURVE",
"165 350 CURVE SMOOTH",
"165 370 OFFCURVE",
"157 388 OFFCURVE",
"136 400 CURVE",
"166 422 OFFCURVE",
"202 430 OFFCURVE",
"243 430 CURVE SMOOTH",
"364 430 OFFCURVE",
"327 314 OFFCURVE",
"327 215 CURVE",
"297 239 OFFCURVE",
"252 254 OFFCURVE",
"200 254 CURVE SMOOTH",
"94 254 OFFCURVE",
"35 195 OFFCURVE",
"35 122 CURVE SMOOTH",
"35 50 OFFCURVE",
"94 -10 OFFCURVE",
"200 -10 CURVE SMOOTH",
"265 -10 OFFCURVE",
"327 27 OFFCURVE",
"372 76 CURVE",
"414 21 OFFCURVE",
"480 -10 OFFCURVE",
"552 -10 CURVE SMOOTH",
"651 -10 OFFCURVE",
"705 33 OFFCURVE",
"747 84 CURVE",
"720 107 LINE",
"684 68 OFFCURVE",
"637 30 OFFCURVE",
"567 30 CURVE SMOOTH"
);
},
{
closed = 1;
nodes = (
"155 35 OFFCURVE",
"115 70 OFFCURVE",
"115 122 CURVE SMOOTH",
"115 175 OFFCURVE",
"155 209 OFFCURVE",
"218 209 CURVE SMOOTH",
"252 209 OFFCURVE",
"292 197 OFFCURVE",
"330 164 CURVE",
"335 142 OFFCURVE",
"343 122 OFFCURVE",
"353 104 CURVE",
"310 55 OFFCURVE",
"256 35 OFFCURVE",
"218 35 CURVE SMOOTH"
);
}
);
width = 792;
},
{
anchors = (
{
name = bottom;
position = "{421, 0}";
},
{
name = ogonek;
position = "{1091, 10}";
},
{
name = top;
position = "{421, 480}";
}
);
layerId = "37DD2CA1-C758-4BBE-932B-6884A881B1A3";
paths = (
{
closed = 1;
nodes = (
"533 40 OFFCURVE",
"490 112 OFFCURVE",
"490 240 CURVE SMOOTH",
"490 370 OFFCURVE",
"521 455 OFFCURVE",
"575 455 CURVE SMOOTH",
"625 455 OFFCURVE",
"651 401 OFFCURVE",
"656 285 CURVE",
"455 285 LINE",
"455 250 LINE",
"811 250 LINE",
"811 418 OFFCURVE",
"714 490 OFFCURVE",
"585 490 CURVE SMOOTH",
"529 490 OFFCURVE",
"477 475 OFFCURVE",
"434 447 CURVE",
"396 479 OFFCURVE",
"341 490 OFFCURVE",
"283 490 CURVE SMOOTH",
"182 490 OFFCURVE",
"50 454 OFFCURVE",
"50 370 CURVE SMOOTH",
"50 325 OFFCURVE",
"80 295 OFFCURVE",
"120 295 CURVE SMOOTH",
"160 295 OFFCURVE",
"190 325 OFFCURVE",
"190 365 CURVE SMOOTH",
"190 391 OFFCURVE",
"176 413 OFFCURVE",
"155 427 CURVE",
"180 439 OFFCURVE",
"203 445 OFFCURVE",
"243 445 CURVE SMOOTH",
"363 445 OFFCURVE",
"335 349 OFFCURVE",
"335 230 CURVE",
"312 250 OFFCURVE",
"269 270 OFFCURVE",
"205 270 CURVE SMOOTH",
"98 270 OFFCURVE",
"30 214 OFFCURVE",
"30 130 CURVE SMOOTH",
"30 45 OFFCURVE",
"99 -10 OFFCURVE",
"205 -10 CURVE SMOOTH",
"277 -10 OFFCURVE",
"332 11 OFFCURVE",
"389 73 CURVE",
"436 19 OFFCURVE",
"507 -10 OFFCURVE",
"585 -10 CURVE SMOOTH",
"710 -10 OFFCURVE",
"764 43 OFFCURVE",
"806 94 CURVE",
"779 117 LINE",
"743 78 OFFCURVE",
"687 40 OFFCURVE",
"621 40 CURVE SMOOTH"
);
},
{
closed = 1;
nodes = (
"198 38 OFFCURVE",
"175 76 OFFCURVE",
"175 130 CURVE SMOOTH",
"175 184 OFFCURVE",
"198 222 OFFCURVE",
"247 222 CURVE SMOOTH",
"279 222 OFFCURVE",
"310 206 OFFCURVE",
"337 175 CURVE",
"343 150 OFFCURVE",
"352 127 OFFCURVE",
"364 107 CURVE",
"327 60 OFFCURVE",
"278 38 OFFCURVE",
"247 38 CURVE SMOOTH"
);
}
);
width = 839;
}
);
leftKerningGroup = o;
leftMetricsKey = "=a";
rightKerningGroup = o;
rightMetricsKey = "=e";
unicode = 00E6;
},
{
glyphname = b;
lastChange = "2019-09-11 14:15:45 +0000";
layers = (
{
anchors = (
{
name = bottom;
position = "{296, 0}";
},
{
name = top;
position = "{296, 460}";
}
);
components = (
{
name = _com_brzuch_b;
transform = "{1, 0, 0, 1, -27, 0}";
}
);
guideLines = (
{
angle = 62.3005;
position = "{133, 1}";
},
{
angle = 270;
position = "{98, 522}";
}
);
layerId = "CF31647D-EA7E-42DE-ACE7-E9318D6117AA";
paths = (
{
closed = 1;
nodes = (
"121 731 OFFCURVE",
"70 730 OFFCURVE",
"18 730 CURVE",
"18 695 LINE",
"93 695 LINE",
"98 690 LINE",
"98 0 LINE",
"133 0 LINE",
"178 85 LINE",
"178 730 LINE",
"173 735 LINE"
);
}
);
width = 593;
},
{
anchors = (
{
name = bottom;
position = "{310, 0}";
},
{
name = top;
position = "{310, 480}";
}
);
components = (
{
name = _com_brzuch_b;
transform = "{1, 0, 0, 1, 10, 0}";
}
);
guideLines = (
{
angle = 62.3005;
position = "{215, 80}";
}
);
layerId = "37DD2CA1-C758-4BBE-932B-6884A881B1A3";
paths = (
{
closed = 1;
nodes = (
"153 731 OFFCURVE",
"62 730 OFFCURVE",
"10 730 CURVE",
"10 695 LINE",
"60 695 LINE",
"70 685 LINE",
"70 0 LINE",
"173 0 LINE",
"215 80 LINE",
"215 730 LINE",
"205 740 LINE"
);
}
);
width = 620;
}
);
leftKerningGroup = l;
leftMetricsKey = "=l*0.5";
rightKerningGroup = o;
rightMetricsKey = "=o";
unicode = 0062;
},
{
glyphname = bhook;
lastChange = "2019-09-11 14:15:45 +0000";
layers = (
{
anchors = (
{
name = bottom;
position = "{296, 0}";
},
{
name = top;
position = "{296, 460}";
}
);
components = (
{
name = _com_brzuch_b;
transform = "{1, 0, 0, 1, -27, 0}";
},
{
name = _com_ipa_hook;
}
);
layerId = "CF31647D-EA7E-42DE-ACE7-E9318D6117AA";
paths = (
{
closed = 1;
nodes = (
"98 521 LINE",
"98 0 LINE",
"133 0 LINE",
"178 85 LINE",
"178 521 LINE"
);
}
);
width = 593;
},
{
anchors = (
{
name = bottom;
position = "{310, 0}";
},
{
name = top;
position = "{310, 480}";
}
);
components = (
{
name = _com_brzuch_b;
transform = "{1, 0, 0, 1, 10, 0}";
},
{
name = _com_ipa_hook;
}
);
layerId = "37DD2CA1-C758-4BBE-932B-6884A881B1A3";
paths = (
{
closed = 1;
nodes = (
"70 504 LINE",
"70 0 LINE",
"173 0 LINE",
"215 80 LINE",
"215 504 LINE"
);
}
);
width = 620;
}
);
leftKerningGroup = l;
rightKerningGroup = o;
unicode = 0253;
},
{
glyphname = bidentalpercussive;
lastChange = "2019-09-11 14:15:57 +0000";
layers = (
{
layerId = "CF31647D-EA7E-42DE-ACE7-E9318D6117AA";
paths = (
{
closed = 1;
nodes = (
"50 670 LINE",
"50 480 LINE",
"85 480 LINE",
"88 520 OFFCURVE",
"95 600 OFFCURVE",
"195 600 CURVE",
"330 600 LINE",
"430 600 OFFCURVE",
"437 520 OFFCURVE",
"440 480 CURVE",
"475 480 LINE",
"475 670 LINE"
);
},
{
closed = 1;
nodes = (
"50 190 LINE",
"50 0 LINE",
"85 0 LINE",
"88 40 OFFCURVE",
"95 120 OFFCURVE",
"195 120 CURVE",
"330 120 LINE",
"430 120 OFFCURVE",
"437 40 OFFCURVE",
"440 0 CURVE",
"475 0 LINE",
"475 190 LINE"
);
}
);
width = 525;
},
{
layerId = "37DD2CA1-C758-4BBE-932B-6884A881B1A3";
paths = (
{
closed = 1;
nodes = (
"30 670 LINE",
"30 450 LINE",
"65 450 LINE",
"68 490 OFFCURVE",
"75 540 OFFCURVE",
"175 540 CURVE",
"340 540 LINE",
"440 540 OFFCURVE",
"447 490 OFFCURVE",
"450 450 CURVE",
"485 450 LINE",
"485 670 LINE"
);
},
{
closed = 1;
nodes = (
"30 220 LINE",
"30 0 LINE",
"65 0 LINE",
"68 40 OFFCURVE",
"75 90 OFFCURVE",
"175 90 CURVE",
"340 90 LINE",
"440 90 OFFCURVE",
"447 40 OFFCURVE",
"450 0 CURVE",
"485 0 LINE",
"485 220 LINE"
);
}
);
width = 515;
}
);
leftMetricsKey = "=H";
rightMetricsKey = "=H";
unicode = 02AD;
},
{
glyphname = c;
lastChange = "2019-09-11 14:15:49 +0000";
layers = (
{
anchors = (
{
name = bottom;
position = "{290, 0}";
},
{
name = top;
position = "{290, 460}";
}
);
guideLines = (
{
position = "{133, 300}";
}
);
layerId = "CF31647D-EA7E-42DE-ACE7-E9318D6117AA";
paths = (
{
closed = 1;
nodes = (
"363 -10 OFFCURVE",
"420 30 OFFCURVE",
"470 99 CURVE",
"443 122 LINE",
"397 62 OFFCURVE",
"346 30 OFFCURVE",
"293 30 CURVE SMOOTH",
"207 30 OFFCURVE",
"137 106 OFFCURVE",
"137 237 CURVE SMOOTH",
"137 347 OFFCURVE",
"180 435 OFFCURVE",
"288 435 CURVE SMOOTH",
"338 435 OFFCURVE",
"378 420 OFFCURVE",
"406 389 CURVE",
"375 381 OFFCURVE",
"365 361 OFFCURVE",
"365 340 CURVE SMOOTH",
"365 311 OFFCURVE",
"389 290 OFFCURVE",
"415 290 CURVE SMOOTH",
"443 290 OFFCURVE",
"465 311 OFFCURVE",
"465 345 CURVE SMOOTH",
"465 419 OFFCURVE",
"382 470 OFFCURVE",
"289 470 CURVE SMOOTH",
"160 470 OFFCURVE",
"50 380 OFFCURVE",
"50 226 CURVE SMOOTH",
"50 82 OFFCURVE",
"152 -10 OFFCURVE",
"279 -10 CURVE SMOOTH"
);
}
);
width = 500;
},
{
anchors = (
{
name = bottom;
position = "{298, 0}";
},
{
name = top;
position = "{298, 480}";
}
);
layerId = "37DD2CA1-C758-4BBE-932B-6884A881B1A3";
paths = (
{
closed = 1;
nodes = (
"410 -10 OFFCURVE",
"459 53 OFFCURVE",
"501 114 CURVE",
"474 137 LINE",
"438 88 OFFCURVE",
"388 40 OFFCURVE",
"321 40 CURVE SMOOTH",
"239 40 OFFCURVE",
"195 112 OFFCURVE",
"195 240 CURVE SMOOTH",
"195 370 OFFCURVE",
"224 455 OFFCURVE",
"321 455 CURVE SMOOTH",
"360 455 OFFCURVE",
"399 440 OFFCURVE",
"418 420 CURVE",
"371 413 OFFCURVE",
"356 380 OFFCURVE",
"356 355 CURVE SMOOTH",
"356 315 OFFCURVE",
"386 285 OFFCURVE",
"426 285 CURVE SMOOTH",
"466 285 OFFCURVE",
"496 315 OFFCURVE",
"496 360 CURVE SMOOTH",
"496 429 OFFCURVE",
"421 490 OFFCURVE",
"318 490 CURVE SMOOTH",
"166 490 OFFCURVE",
"35 398 OFFCURVE",
"35 240 CURVE SMOOTH",
"35 82 OFFCURVE",
"152 -10 OFFCURVE",
"290 -10 CURVE SMOOTH"
);
}
);
width = 522;
}
);
leftKerningGroup = o;
leftMetricsKey = "=o";
rightKerningGroup = o;
rightMetricsKey = "=o*0.6";
unicode = 0063;
},
{
glyphname = ccurl;
lastChange = "2019-09-11 14:15:49 +0000";
layers = (
{
layerId = "CF31647D-EA7E-42DE-ACE7-E9318D6117AA";
paths = (
{
closed = 1;
nodes = (
"231 -100 LINE",
"231 56 OFFCURVE",
"281 137 OFFCURVE",
"361 137 CURVE",
"397 137 OFFCURVE",
"430 121 OFFCURVE",
"430 91 CURVE",
"430 53 OFFCURVE",
"377 30 OFFCURVE",
"312 30 CURVE SMOOTH",
"186 30 OFFCURVE",
"137 117 OFFCURVE",
"137 237 CURVE SMOOTH",
"137 347 OFFCURVE",
"180 435 OFFCURVE",
"288 435 CURVE SMOOTH",
"338 435 OFFCURVE",
"378 420 OFFCURVE",
"406 389 CURVE",
"375 381 OFFCURVE",
"365 361 OFFCURVE",
"365 340 CURVE SMOOTH",
"365 311 OFFCURVE",
"389 290 OFFCURVE",
"415 290 CURVE SMOOTH",
"443 290 OFFCURVE",
"465 311 OFFCURVE",
"465 345 CURVE SMOOTH",
"465 419 OFFCURVE",
"382 470 OFFCURVE",
"289 470 CURVE SMOOTH",
"160 470 OFFCURVE",
"50 380 OFFCURVE",
"50 226 CURVE SMOOTH",
"50 92 OFFCURVE",
"134 -10 OFFCURVE",
"295 -10 CURVE SMOOTH",
"405 -10 OFFCURVE",
"465 35 OFFCURVE",
"465 91 CURVE",
"465 136 OFFCURVE",
"427 172 OFFCURVE",
"361 172 CURVE",
"261 172 OFFCURVE",
"196 73 OFFCURVE",
"196 -100 CURVE"
);
}
);
width = 495;
},
{
layerId = "37DD2CA1-C758-4BBE-932B-6884A881B1A3";
paths = (
{
closed = 1;
nodes = (
"246 -100 LINE",
"246 -8 OFFCURVE",
"288 142 OFFCURVE",
"391 142 CURVE",
"430 142 OFFCURVE",
"461 130 OFFCURVE",
"461 93 CURVE",
"461 61 OFFCURVE",
"429 40 OFFCURVE",
"363 40 CURVE SMOOTH",
"234 40 OFFCURVE",
"195 120 OFFCURVE",
"195 252 CURVE SMOOTH",
"195 371 OFFCURVE",
"227 455 OFFCURVE",
"321 455 CURVE SMOOTH",
"360 455 OFFCURVE",
"399 440 OFFCURVE",
"418 420 CURVE",
"371 413 OFFCURVE",
"356 380 OFFCURVE",
"356 355 CURVE SMOOTH",
"356 315 OFFCURVE",
"386 285 OFFCURVE",
"426 285 CURVE SMOOTH",
"466 285 OFFCURVE",
"496 315 OFFCURVE",
"496 360 CURVE SMOOTH",
"496 429 OFFCURVE",
"424 490 OFFCURVE",
"310 490 CURVE SMOOTH",
"171 490 OFFCURVE",
"35 398 OFFCURVE",
"35 243 CURVE SMOOTH",
"35 102 OFFCURVE",
"147 -10 OFFCURVE",
"322 -10 CURVE SMOOTH",
"437 -10 OFFCURVE",
"496 38 OFFCURVE",
"496 93 CURVE",
"496 144 OFFCURVE",
"458 177 OFFCURVE",
"391 177 CURVE",
"274 177 OFFCURVE",
"211 23 OFFCURVE",
"211 -100 CURVE"
);
}
);
width = 517;
}
);
leftKerningGroup = o;
leftMetricsKey = "=c";
rightKerningGroup = o;
rightMetricsKey = "=c";
unicode = 0255;
},
{
glyphname = chook;
lastChange = "2019-09-11 14:15:49 +0000";
layers = (
{
components = (
{
name = c;
}
);
layerId = "CF31647D-EA7E-42DE-ACE7-E9318D6117AA";
paths = (
{
closed = 1;
nodes = (
"465 338 LINE",
"465 388 OFFCURVE",
"480 428 OFFCURVE",
"511 456 CURVE",
"519 425 OFFCURVE",
"539 415 OFFCURVE",
"560 415 CURVE SMOOTH",
"589 415 OFFCURVE",
"610 439 OFFCURVE",
"610 465 CURVE SMOOTH",
"610 493 OFFCURVE",
"589 515 OFFCURVE",
"555 515 CURVE SMOOTH",
"481 515 OFFCURVE",
"430 431 OFFCURVE",
"430 338 CURVE"
);
}
);
width = 500;
},
{
components = (
{
name = c;
}
);
layerId = "37DD2CA1-C758-4BBE-932B-6884A881B1A3";
paths = (
{
closed = 1;
nodes = (
"496 360 LINE",
"496 398 OFFCURVE",
"511 441 OFFCURVE",
"531 460 CURVE",
"538 413 OFFCURVE",
"571 398 OFFCURVE",
"596 398 CURVE SMOOTH",
"636 398 OFFCURVE",
"666 428 OFFCURVE",
"666 468 CURVE SMOOTH",
"666 508 OFFCURVE",
"636 538 OFFCURVE",
"591 538 CURVE SMOOTH",
"522 538 OFFCURVE",
"461 463 OFFCURVE",
"461 360 CURVE"
);
}
);
width = 522;
}
);
leftKerningGroup = o;
leftMetricsKey = "=c";
rightKerningGroup = o;
unicode = 0188;
},
{
color = 0;
glyphname = d;
lastChange = "2020-11-13 10:41:42 +0000";
layers = (
{
anchors = (
{
name = bottom;
position = "{304, 0}";
},
{
name = center;
position = "{385, 580}";
},
{
name = top;
position = "{304, 460}";
},
{
name = topright;
position = "{605, 460}";
}
);
components = (
{
name = _com_brzuch_b;
transform = "{-1, 0, 0, -1, 620, 460}";
}
);
guideLines = (
{
angle = 90;
position = "{575, 35}";
},
{
position = "{490, 735}";
},
{
position = "{490, 740}";
}
);
layerId = "CF31647D-EA7E-42DE-ACE7-E9318D6117AA";
paths = (
{
closed = 1;
nodes = (
"495 40 LINE",
"495 730 LINE",
"490 735 LINE",
"438 731 OFFCURVE",
"387 730 OFFCURVE",
"335 730 CURVE",
"335 695 LINE",
"410 695 LINE",
"415 690 LINE",
"415 0 LINE",
"420 -5 LINE",
"472 -1 OFFCURVE",
"523 0 OFFCURVE",
"575 0 CURVE",
"575 35 LINE",
"500 35 LINE"
);
}
);
width = 607;
},
{
anchors = (
{
name = bottom;
position = "{317, 0}";
},
{
name = center;
position = "{400, 580}";
},
{
name = top;
position = "{317, 480}";
},
{
name = topright;
position = "{660, 480}";
}
);
components = (
{
name = _com_brzuch_b;
transform = "{-1, 0, 0, -1, 610, 480}";
}
);
guideLines = (
{
angle = 90;
position = "{610, 35}";
}
);
layerId = "37DD2CA1-C758-4BBE-932B-6884A881B1A3";
paths = (
{
closed = 1;
nodes = (
"550 45 LINE",
"550 730 LINE",
"540 740 LINE",
"488 731 OFFCURVE",
"397 730 OFFCURVE",
"345 730 CURVE",
"345 695 LINE",
"395 695 LINE",
"405 685 LINE",
"405 0 LINE",
"415 -10 LINE",
"467 -1 OFFCURVE",
"558 0 OFFCURVE",
"610 0 CURVE",
"610 35 LINE",
"560 35 LINE"
);
}
);
width = 634;
},
{
associatedMasterId = "37DD2CA1-C758-4BBE-932B-6884A881B1A3";
layerId = "D1D9517A-D9A6-4C15-8E01-C9C1FD9CC50C";
name = "Feb 3 18, 10:07";
width = 600;
}
);
leftKerningGroup = o;
leftMetricsKey = "=o";
rightKerningGroup = l;
rightMetricsKey = "=n*0.8";
unicode = 0064;
},
{
glyphname = eth;
lastChange = "2019-09-11 14:15:49 +0000";
layers = (
{
anchors = (
{
name = bottom;
position = "{280, 0}";
},
{
name = center;
position = "{280, 230}";
},
{
name = ogonek;
position = "{504, 10}";
},
{
name = top;
position = "{280, 460}";
},
{
name = topright;
position = "{540, 460}";
}
);
layerId = "CF31647D-EA7E-42DE-ACE7-E9318D6117AA";
paths = (
{
closed = 1;
nodes = (
"341 776 LINE",
"139 574 LINE",
"163 549 LINE",
"365 751 LINE"
);
},
{
closed = 1;
nodes = (
"112 728 LINE",
"288 650 OFFCURVE",
"382 522 OFFCURVE",
"410 380 CURVE",
"381 421 OFFCURVE",
"336 450 OFFCURVE",
"275 450 CURVE SMOOTH",
"152 450 OFFCURVE",
"50 358 OFFCURVE",
"50 220 CURVE SMOOTH",
"50 82 OFFCURVE",
"157 -10 OFFCURVE",
"280 -10 CURVE SMOOTH",
"403 -10 OFFCURVE",
"510 82 OFFCURVE",
"510 240 CURVE SMOOTH",
"510 477 OFFCURVE",
"389 664 OFFCURVE",
"139 751 CURVE"
);
},
{
closed = 1;
nodes = (
"202 25 OFFCURVE",
"140 112 OFFCURVE",
"140 220 CURVE SMOOTH",
"140 330 OFFCURVE",
"176 415 OFFCURVE",
"275 415 CURVE SMOOTH",
"358 415 OFFCURVE",
"420 328 OFFCURVE",
"420 220 CURVE SMOOTH",
"420 110 OFFCURVE",
"384 25 OFFCURVE",
"285 25 CURVE SMOOTH"
);
}
);
width = 560;
},
{
anchors = (
{
name = bottom;
position = "{290, 0}";
},
{
name = center;
position = "{290, 240}";
},
{
name = ogonek;
position = "{522, 10}";
},
{
name = top;
position = "{290, 480}";
},
{
name = topright;
position = "{560, 480}";
}
);
layerId = "37DD2CA1-C758-4BBE-932B-6884A881B1A3";
paths = (
{
closed = 1;
nodes = (
"341 776 LINE",
"139 574 LINE",
"163 549 LINE",
"365 751 LINE"
);
},
{
closed = 1;
nodes = (
"112 728 LINE",
"247 659 OFFCURVE",
"332 536 OFFCURVE",
"371 424 CURVE",
"350 440 OFFCURVE",
"317 450 OFFCURVE",
"290 450 CURVE SMOOTH",
"142 450 OFFCURVE",
"35 358 OFFCURVE",
"35 220 CURVE SMOOTH",
"35 82 OFFCURVE",
"142 -10 OFFCURVE",
"290 -10 CURVE SMOOTH",
"438 -10 OFFCURVE",
"545 82 OFFCURVE",
"545 250 CURVE SMOOTH",
"545 477 OFFCURVE",
"389 664 OFFCURVE",
"139 751 CURVE"
);
},
{
closed = 1;
nodes = (
"248 25 OFFCURVE",
"195 101 OFFCURVE",
"195 236 CURVE SMOOTH",
"195 313 OFFCURVE",
"216 415 OFFCURVE",
"285 415 CURVE SMOOTH",
"332 415 OFFCURVE",
"385 339 OFFCURVE",
"385 204 CURVE SMOOTH",
"385 127 OFFCURVE",
"364 25 OFFCURVE",
"295 25 CURVE SMOOTH"
);
}
);
width = 580;
}
);
leftKerningGroup = o;
leftMetricsKey = "=o";
rightKerningGroup = o;
rightMetricsKey = "=o";
unicode = 00F0;
},
{
color = 0;
glyphname = dezh;
lastChange = "2020-11-13 10:41:42 +0000";
layers = (
{
anchors = (
{
name = bottom;
position = "{861, 0}";
},
{
name = center;
position = "{385, 580}";
},
{
name = top;
position = "{861, 460}";
},
{
name = topright;
position = "{605, 460}";
}
);
components = (
{
name = _com_brzuch_b;
transform = "{-1, 0, 0, -1, 620, 460}";
}
);
layerId = "CF31647D-EA7E-42DE-ACE7-E9318D6117AA";
paths = (
{
closed = 1;
nodes = (
"495 730 LINE",
"490 735 LINE",
"438 731 OFFCURVE",
"387 730 OFFCURVE",
"335 730 CURVE",
"335 695 LINE",
"410 695 LINE",
"415 690 LINE",
"415 0 LINE",
"420 -5 LINE",
"452 -1 OFFCURVE",
"473 0 OFFCURVE",
"495 0 CURVE"
);
},
{
closed = 1;
nodes = (
"815 -260 OFFCURVE",
"916 -161 OFFCURVE",
"916 -44 CURVE SMOOTH",
"916 66 OFFCURVE",
"835 144 OFFCURVE",
"710 165 CURVE",
"907 435 LINE",
"907 460 LINE",
"495 460 LINE",
"495 310 LINE",
"495 415 OFFCURVE",
"558 425 OFFCURVE",
"649 425 CURVE SMOOTH",
"798 425 LINE",
"803 420 LINE",
"614 158 LINE",
"614 133 LINE",
"765 133 OFFCURVE",
"829 53 OFFCURVE",
"829 -44 CURVE SMOOTH",
"829 -126 OFFCURVE",
"775 -220 OFFCURVE",
"676 -220 CURVE SMOOTH",
"616 -220 OFFCURVE",
"567 -186 OFFCURVE",
"527 -143 CURVE",
"500 -166 LINE",
"540 -216 OFFCURVE",
"603 -260 OFFCURVE",
"688 -260 CURVE SMOOTH"
);
}
);
width = 951;
},
{
anchors = (
{
name = bottom;
position = "{904, 0}";
},
{
name = center;
position = "{400, 580}";
},
{
name = top;
position = "{904, 480}";
},
{
name = topright;
position = "{660, 480}";
}
);
components = (
{
name = _com_brzuch_b;
transform = "{-1, 0, 0, -1, 610, 480}";
}
);
layerId = "37DD2CA1-C758-4BBE-932B-6884A881B1A3";
paths = (
{
closed = 1;
nodes = (
"550 730 LINE",
"540 740 LINE",
"488 731 OFFCURVE",
"397 730 OFFCURVE",
"345 730 CURVE",
"345 695 LINE",
"395 695 LINE",
"405 685 LINE",
"405 0 LINE",
"415 -10 LINE",
"467 -1 OFFCURVE",
"498 0 OFFCURVE",
"550 0 CURVE"
);
},
{
closed = 1;
nodes = (
"900 -260 OFFCURVE",
"1019 -170 OFFCURVE",
"1019 -45 CURVE SMOOTH",
"1019 30 OFFCURVE",
"981 125 OFFCURVE",
"827 164 CURVE",
"1014 445 LINE",
"1014 480 LINE",
"550 480 LINE",
"550 310 LINE",
"550 435 OFFCURVE",
"658 445 OFFCURVE",
"709 445 CURVE SMOOTH",
"835 445 LINE",
"840 440 LINE",
"667 181 LINE",
"667 151 LINE",
"841 151 OFFCURVE",
"859 20 OFFCURVE",
"859 -43 CURVE SMOOTH",
"859 -134 OFFCURVE",
"810 -210 OFFCURVE",
"725 -210 CURVE SMOOTH",
"665 -210 OFFCURVE",
"606 -172 OFFCURVE",
"570 -133 CURVE",
"543 -156 LINE",
"583 -205 OFFCURVE",
"643 -260 OFFCURVE",
"756 -260 CURVE SMOOTH"
);
}
);
width = 1043;
}
);
leftKerningGroup = o;
leftMetricsKey = "=d";
rightKerningGroup = z;
rightMetricsKey = "=lzdigraph";
unicode = 02A4;
},
{
color = 0;
glyphname = dhook;
lastChange = "2020-11-13 10:41:42 +0000";
layers = (
{
anchors = (
{
name = bottom;
position = "{304, 0}";
},
{
name = center;
position = "{385, 580}";
},
{
name = top;
position = "{304, 460}";
},
{
name = topright;
position = "{605, 460}";
}
);
components = (
{
name = _com_brzuch_b;
transform = "{-1, 0, 0, -1, 620, 460}";
},
{
name = _com_ipa_hook;
transform = "{1, 0, 0, 1, 317, 0}";
}
);
layerId = "CF31647D-EA7E-42DE-ACE7-E9318D6117AA";
paths = (
{
closed = 1;
nodes = (
"415 535 LINE",
"415 0 LINE",
"420 -5 LINE",
"472 -1 OFFCURVE",
"523 0 OFFCURVE",
"575 0 CURVE",
"575 35 LINE",
"500 35 LINE",
"495 40 LINE",
"495 535 LINE"
);
}
);
width = 607;
},
{
anchors = (
{
name = bottom;
position = "{317, 0}";
},
{
name = center;
position = "{400, 580}";
},
{
name = top;
position = "{317, 480}";
},
{
name = topright;
position = "{660, 480}";
}
);
components = (
{
name = _com_brzuch_b;
transform = "{-1, 0, 0, -1, 610, 480}";
},
{
name = _com_ipa_hook;
transform = "{1, 0, 0, 1, 335, 0}";
}
);
layerId = "37DD2CA1-C758-4BBE-932B-6884A881B1A3";
paths = (
{
closed = 1;
nodes = (
"405 553 LINE",
"405 0 LINE",
"415 -10 LINE",
"467 -1 OFFCURVE",
"558 0 OFFCURVE",
"610 0 CURVE",
"610 35 LINE",
"560 35 LINE",
"550 45 LINE",
"550 553 LINE"
);
}
);
width = 634;
}
);
leftKerningGroup = o;
leftMetricsKey = "=d";
unicode = 0257;
},
{
color = 0;
glyphname = dtail;
lastChange = "2020-11-13 10:41:42 +0000";
layers = (
{
anchors = (
{
name = bottom;
position = "{304, 0}";
},
{
name = center;
position = "{385, 580}";
},
{
name = top;
position = "{304, 460}";
},
{
name = topright;
position = "{605, 460}";
}
);
components = (
{
name = _com_brzuch_b;
transform = "{-1, 0, 0, -1, 620, 460}";
},
{
name = _com_ipa_hook;
transform = "{1, 0, 0, -1, 317, 480}";
}
);
layerId = "CF31647D-EA7E-42DE-ACE7-E9318D6117AA";
paths = (
{
closed = 1;
nodes = (
"495 0 LINE",
"495 730 LINE",
"490 735 LINE",
"438 731 OFFCURVE",
"387 730 OFFCURVE",
"335 730 CURVE",
"335 695 LINE",
"410 695 LINE",
"415 690 LINE",
"415 0 LINE"
);
}
);
width = 607;
},
{
anchors = (
{
name = bottom;
position = "{317, 0}";
},
{
name = center;
position = "{400, 580}";
},
{
name = top;
position = "{317, 480}";
},
{
name = topright;
position = "{660, 480}";
}
);
components = (
{
name = _com_brzuch_b;
transform = "{-1, 0, 0, -1, 610, 480}";
},
{
name = _com_ipa_hook;
transform = "{1, 0, 0, -1, 335, 480}";
}
);
layerId = "37DD2CA1-C758-4BBE-932B-6884A881B1A3";
paths = (
{
closed = 1;
nodes = (
"550 0 LINE",
"550 730 LINE",
"540 740 LINE",
"488 731 OFFCURVE",
"397 730 OFFCURVE",
"345 730 CURVE",
"345 695 LINE",
"395 695 LINE",
"405 685 LINE",
"405 0 LINE"
);
}
);
width = 634;
}
);
leftKerningGroup = o;
leftMetricsKey = "=d";
unicode = 0256;
},
{
color = 0;
glyphname = dzaltone;
lastChange = "2020-11-13 10:41:42 +0000";
layers = (
{
anchors = (
{
name = bottom;
position = "{861, 0}";
},
{
name = center;
position = "{385, 580}";
},
{
name = top;
position = "{861, 460}";
},
{
name = topright;
position = "{605, 460}";
}
);
components = (
{
name = _com_brzuch_b;
transform = "{-1, 0, 0, -1, 620, 460}";
}
);
layerId = "CF31647D-EA7E-42DE-ACE7-E9318D6117AA";
paths = (
{
closed = 1;
nodes = (
"922 60 OFFCURVE",
"895 35 OFFCURVE",
"743 35 CURVE SMOOTH",
"676 35 LINE",
"671 40 LINE",
"964 435 LINE",
"964 460 LINE",
"493 460 LINE",
"461 320 LINE",
"495 310 LINE",
"495 407 OFFCURVE",
"557 425 OFFCURVE",
"648 425 CURVE SMOOTH",
"850 425 LINE",
"855 420 LINE",
"562 25 LINE",
"562 0 LINE",
"954 0 LINE",
"989 155 LINE",
"954 155 LINE"
);
},
{
closed = 1;
nodes = (
"495 730 LINE",
"490 735 LINE",
"438 731 OFFCURVE",
"387 730 OFFCURVE",
"335 730 CURVE",
"335 695 LINE",
"410 695 LINE",
"415 690 LINE",
"415 0 LINE",
"420 -5 LINE",
"452 -1 OFFCURVE",
"473 0 OFFCURVE",
"495 0 CURVE"
);
}
);
width = 1024;
},
{
anchors = (
{
name = bottom;
position = "{904, 0}";
},
{
name = center;
position = "{400, 580}";
},
{
name = top;
position = "{904, 480}";
},
{
name = topright;
position = "{660, 480}";
}
);
components = (
{
name = _com_brzuch_b;
transform = "{-1, 0, 0, -1, 610, 480}";
}
);
layerId = "37DD2CA1-C758-4BBE-932B-6884A881B1A3";
paths = (
{
closed = 1;
nodes = (
"993 70 OFFCURVE",
"909 35 OFFCURVE",
"837 35 CURVE SMOOTH",
"775 35 LINE",
"770 40 LINE",
"1048 445 LINE",
"1048 480 LINE",
"533 480 LINE",
"516 320 LINE",
"550 310 LINE",
"550 435 OFFCURVE",
"677 445 OFFCURVE",
"728 445 CURVE SMOOTH",
"869 445 LINE",
"874 440 LINE",
"596 30 LINE",
"596 0 LINE",
"1028 0 LINE",
"1070 185 LINE",
"1035 185 LINE"
);
},
{
closed = 1;
nodes = (
"550 730 LINE",
"540 740 LINE",
"488 731 OFFCURVE",
"397 730 OFFCURVE",
"345 730 CURVE",
"345 695 LINE",
"395 695 LINE",
"405 685 LINE",
"405 0 LINE",
"415 -10 LINE",
"467 -1 OFFCURVE",
"498 0 OFFCURVE",
"550 0 CURVE"
);
}
);
width = 1094;
}
);
leftKerningGroup = o;
leftMetricsKey = "=o";
rightKerningGroup = z;
rightMetricsKey = "=z";
unicode = 02A3;
},
{
color = 0;
glyphname = dzcurl;
lastChange = "2020-11-13 10:41:42 +0000";
layers = (
{
anchors = (
{
name = bottom;
position = "{861, 0}";
},
{
name = center;
position = "{385, 580}";
},
{
name = top;
position = "{861, 460}";
},
{
name = topright;
position = "{605, 460}";
}
);
components = (
{
name = _com_brzuch_b;
transform = "{-1, 0, 0, -1, 620, 460}";
}
);
layerId = "CF31647D-EA7E-42DE-ACE7-E9318D6117AA";
paths = (
{
closed = 1;
nodes = (
"849 35 LINE",
"676 35 LINE",
"671 40 LINE",
"964 435 LINE",
"964 460 LINE",
"493 460 LINE",
"461 320 LINE",
"495 310 LINE",
"495 407 OFFCURVE",
"557 425 OFFCURVE",
"648 425 CURVE SMOOTH",
"850 425 LINE",
"855 420 LINE",
"562 25 LINE",
"562 0 LINE",
"832 0 LINE"
);
},
{
closed = 1;
nodes = (
"495 730 LINE",
"490 735 LINE",
"438 731 OFFCURVE",
"387 730 OFFCURVE",
"335 730 CURVE",
"335 695 LINE",
"410 695 LINE",
"415 690 LINE",
"415 0 LINE",
"420 -5 LINE",
"452 -1 OFFCURVE",
"473 0 OFFCURVE",
"495 0 CURVE"
);
},
{
closed = 1;
nodes = (
"768 -100 LINE",
"768 56 OFFCURVE",
"818 137 OFFCURVE",
"898 137 CURVE",
"934 137 OFFCURVE",
"967 121 OFFCURVE",
"967 91 CURVE",
"967 53 OFFCURVE",
"914 35 OFFCURVE",
"849 35 CURVE",
"832 0 LINE",
"942 0 OFFCURVE",
"1002 35 OFFCURVE",
"1002 91 CURVE",
"1002 136 OFFCURVE",
"964 172 OFFCURVE",
"898 172 CURVE",
"798 172 OFFCURVE",
"733 73 OFFCURVE",
"733 -100 CURVE"
);
}
);
width = 1037;
},
{
anchors = (
{
name = bottom;
position = "{904, 0}";
},
{
name = center;
position = "{400, 580}";
},
{
name = top;
position = "{904, 480}";
},
{
name = topright;
position = "{660, 480}";
}
);
components = (
{
name = _com_brzuch_b;
transform = "{-1, 0, 0, -1, 610, 480}";
}
);
layerId = "37DD2CA1-C758-4BBE-932B-6884A881B1A3";
paths = (
{
closed = 1;
nodes = (
"957 35 LINE",
"775 35 LINE",
"770 40 LINE",
"1048 445 LINE",
"1048 480 LINE",
"533 480 LINE",
"516 320 LINE",
"550 310 LINE",
"550 435 OFFCURVE",
"677 445 OFFCURVE",
"728 445 CURVE SMOOTH",
"869 445 LINE",
"874 440 LINE",
"596 30 LINE",
"596 0 LINE",
"938 0 LINE"
);
},
{
closed = 1;
nodes = (
"550 730 LINE",
"540 740 LINE",
"488 731 OFFCURVE",
"397 730 OFFCURVE",
"345 730 CURVE",
"345 695 LINE",
"395 695 LINE",
"405 685 LINE",
"405 0 LINE",
"415 -10 LINE",
"467 -1 OFFCURVE",
"498 0 OFFCURVE",
"550 0 CURVE"
);
},
{
closed = 1;
nodes = (
"850 -100 LINE",
"850 -8 OFFCURVE",
"892 142 OFFCURVE",
"995 142 CURVE",
"1034 142 OFFCURVE",
"1065 130 OFFCURVE",
"1065 93 CURVE",
"1065 57 OFFCURVE",
"1016 35 OFFCURVE",
"957 35 CURVE",
"938 0 LINE",
"1044 0 OFFCURVE",
"1100 38 OFFCURVE",
"1100 93 CURVE",
"1100 144 OFFCURVE",
"1062 177 OFFCURVE",
"995 177 CURVE",
"878 177 OFFCURVE",
"815 23 OFFCURVE",
"815 -100 CURVE"
);
}
);
width = 1124;
}
);
leftKerningGroup = o;
leftMetricsKey = "=d";
rightKerningGroup = z;
rightMetricsKey = "=z";
unicode = 02A5;
},
{
glyphname = e;
lastChange = "2020-09-26 21:09:42 +0000";
layers = (
{
anchors = (
{
name = bottom;
position = "{265, 0}";
},
{
name = ogonek;
position = "{373, 0}";
},
{
name = top;
position = "{265, 460}";
}
);
layerId = "CF31647D-EA7E-42DE-ACE7-E9318D6117AA";
paths = (
{
closed = 1;
nodes = (
"212 30 OFFCURVE",
"137 112 OFFCURVE",
"137 230 CURVE SMOOTH",
"137 350 OFFCURVE",
"176 435 OFFCURVE",
"275 435 CURVE SMOOTH",
"349 435 OFFCURVE",
"379 381 OFFCURVE",
"384 285 CURVE",
"130 285 LINE",
"130 250 LINE",
"480 250 LINE",
"480 398 OFFCURVE",
"403 470 OFFCURVE",
"280 470 CURVE SMOOTH",
"157 470 OFFCURVE",
"50 378 OFFCURVE",
"50 230 CURVE SMOOTH",
"50 82 OFFCURVE",
"157 -10 OFFCURVE",
"280 -10 CURVE SMOOTH",
"379 -10 OFFCURVE",
"433 33 OFFCURVE",
"475 84 CURVE",
"448 107 LINE",
"412 68 OFFCURVE",
"365 30 OFFCURVE",
"295 30 CURVE SMOOTH"
);
}
);
width = 520;
},
{
anchors = (
{
name = bottom;
position = "{276, 0}";
},
{
name = ogonek;
position = "{394, 0}";
},
{
name = top;
position = "{276, 480}";
}
);
layerId = "37DD2CA1-C758-4BBE-932B-6884A881B1A3";
paths = (
{
closed = 1;
nodes = (
"238 40 OFFCURVE",
"195 112 OFFCURVE",
"195 240 CURVE SMOOTH",
"195 370 OFFCURVE",
"226 455 OFFCURVE",
"280 455 CURVE SMOOTH",
"330 455 OFFCURVE",
"356 401 OFFCURVE",
"361 285 CURVE",
"160 285 LINE",
"160 250 LINE",
"516 250 LINE",
"516 418 OFFCURVE",
"419 490 OFFCURVE",
"290 490 CURVE SMOOTH",
"152 490 OFFCURVE",
"35 398 OFFCURVE",
"35 240 CURVE SMOOTH",
"35 82 OFFCURVE",
"152 -10 OFFCURVE",
"290 -10 CURVE SMOOTH",
"415 -10 OFFCURVE",
"469 43 OFFCURVE",
"511 94 CURVE",
"484 117 LINE",
"448 78 OFFCURVE",
"392 40 OFFCURVE",
"326 40 CURVE SMOOTH"
);
}
);
width = 544;
}
);
leftKerningGroup = o;
leftMetricsKey = "=o";
rightKerningGroup = o;
rightMetricsKey = "=o*0.8";
unicode = 0065;
},
{
glyphname = eogonek;
lastChange = "2020-09-26 21:11:32 +0000";
layers = (
{
components = (
{
name = e;
}
);
layerId = "CF31647D-EA7E-42DE-ACE7-E9318D6117AA";
paths = (
{
closed = 1;
nodes = (
"325 -250 OFFCURVE",
"359 -232 OFFCURVE",
"393 -190 CURVE",
"366 -167 LINE",
"345 -190 OFFCURVE",
"323 -200 OFFCURVE",
"300 -200 CURVE SMOOTH",
"267 -200 OFFCURVE",
"249 -174 OFFCURVE",
"249 -142 CURVE SMOOTH",
"249 -91 OFFCURVE",
"289 -32 OFFCURVE",
"373 8 CURVE",
"358 20 LINE",
"246 -23 OFFCURVE",
"169 -68 OFFCURVE",
"169 -148 CURVE SMOOTH",
"169 -210 OFFCURVE",
"214 -250 OFFCURVE",
"281 -250 CURVE SMOOTH"
);
}
);
width = 520;
},
{
components = (
{
name = e;
}
);
layerId = "37DD2CA1-C758-4BBE-932B-6884A881B1A3";
paths = (
{
closed = 1;
nodes = (
"347 -250 OFFCURVE",
"382 -228 OFFCURVE",
"419 -180 CURVE",
"392 -157 LINE",
"367 -183 OFFCURVE",
"347 -190 OFFCURVE",
"327 -190 CURVE SMOOTH",
"302 -190 OFFCURVE",
"280 -178 OFFCURVE",
"280 -136 CURVE SMOOTH",
"280 -82 OFFCURVE",
"312 -34 OFFCURVE",
"394 15 CURVE",
"384 20 LINE",
"244 -17 OFFCURVE",
"165 -65 OFFCURVE",
"165 -146 CURVE SMOOTH",
"165 -212 OFFCURVE",
"210 -250 OFFCURVE",
"289 -250 CURVE SMOOTH"
);
}
);
width = 544;
}
);
leftKerningGroup = o;
leftMetricsKey = "=e";
rightKerningGroup = o;
rightMetricsKey = "=e";
unicode = 0119;
},
{
glyphname = eopenreversedclosed;
lastChange = "2019-09-11 14:15:49 +0000";
layers = (
{
anchors = (
{
name = bottom;
position = "{270, 0}";
},
{
name = top;
position = "{270, 460}";
}
);
layerId = "CF31647D-EA7E-42DE-ACE7-E9318D6117AA";
paths = (
{
closed = 1;
nodes = (
"424 259 OFFCURVE",
"452 307 OFFCURVE",
"452 350 CURVE SMOOTH",
"452 431 OFFCURVE",
"354 470 OFFCURVE",
"275 470 CURVE SMOOTH",
"145 470 OFFCURVE",
"50 366 OFFCURVE",
"50 225 CURVE SMOOTH",
"50 82 OFFCURVE",
"142 -10 OFFCURVE",
"280 -10 CURVE SMOOTH",
"380 -10 OFFCURVE",
"472 38 OFFCURVE",
"472 122 CURVE SMOOTH",
"472 176 OFFCURVE",
"435 221 OFFCURVE",
"336 238 CURVE"
);
},
{
closed = 1;
nodes = (
"202 30 OFFCURVE",
"137 106 OFFCURVE",
"137 240 CURVE SMOOTH",
"137 347 OFFCURVE",
"179 435 OFFCURVE",
"273 435 CURVE SMOOTH",
"331 435 OFFCURVE",
"364 401 OFFCURVE",
"364 349 CURVE SMOOTH",
"364 294 OFFCURVE",
"326 255 OFFCURVE",
"244 255 CURVE",
"244 220 LINE",
"353 220 OFFCURVE",
"385 173 OFFCURVE",
"385 124 CURVE SMOOTH",
"385 63 OFFCURVE",
"336 30 OFFCURVE",
"283 30 CURVE SMOOTH"
);
}
);
width = 522;
},
{
anchors = (
{
name = bottom;
position = "{288, 0}";
},
{
name = top;
position = "{288, 480}";
}
);
layerId = "37DD2CA1-C758-4BBE-932B-6884A881B1A3";
paths = (
{
closed = 1;
nodes = (
"473 265 OFFCURVE",
"517 306 OFFCURVE",
"517 364 CURVE SMOOTH",
"517 466 OFFCURVE",
"382 490 OFFCURVE",
"308 490 CURVE SMOOTH",
"166 490 OFFCURVE",
"35 400 OFFCURVE",
"35 237 CURVE SMOOTH",
"35 93 OFFCURVE",
"137 -10 OFFCURVE",
"292 -10 CURVE SMOOTH",
"366 -10 OFFCURVE",
"536 13 OFFCURVE",
"536 129 CURVE SMOOTH",
"536 189 OFFCURVE",
"490 230 OFFCURVE",
"384 246 CURVE"
);
},
{
closed = 1;
nodes = (
"227 40 OFFCURVE",
"195 112 OFFCURVE",
"195 242 CURVE SMOOTH",
"195 370 OFFCURVE",
"226 455 OFFCURVE",
"298 455 CURVE SMOOTH",
"349 455 OFFCURVE",
"367 411 OFFCURVE",
"367 371 CURVE SMOOTH",
"367 300 OFFCURVE",
"310 261 OFFCURVE",
"265 261 CURVE",
"265 226 LINE",
"359 226 OFFCURVE",
"376 171 OFFCURVE",
"376 131 CURVE SMOOTH",
"376 76 OFFCURVE",
"344 40 OFFCURVE",
"296 40 CURVE SMOOTH"
);
}
);
width = 571;
}
);
leftKerningGroup = o;
leftMetricsKey = "=o";
rightKerningGroup = o;
rightMetricsKey = "=o";
unicode = 025E;
},
{
glyphname = eopenreversedhook;
lastChange = "2019-09-11 14:15:49 +0000";
layers = (
{
components = (
{
name = eopenreversed;
transform = "{1, 0, 0, 1, -10, 0}";
}
);
layerId = "CF31647D-EA7E-42DE-ACE7-E9318D6117AA";
paths = (
{
closed = 1;
nodes = (
"585 445 OFFCURVE",
"591 418 OFFCURVE",
"591 397 CURVE SMOOTH",
"591 356 OFFCURVE",
"570 344 OFFCURVE",
"550 344 CURVE SMOOTH",
"516 344 OFFCURVE",
"493 378 OFFCURVE",
"477 438 CURVE",
"380 402 LINE",
"380 362 LINE",
"429 380 LINE",
"444 326 OFFCURVE",
"480 279 OFFCURVE",
"534 279 CURVE SMOOTH",
"587 279 OFFCURVE",
"631 326 OFFCURVE",
"631 392 CURVE SMOOTH",
"631 424 OFFCURVE",
"621 453 OFFCURVE",
"601 483 CURVE",
"568 471 LINE"
);
}
);
width = 681;
},
{
components = (
{
name = eopenreversed;
transform = "{1, 0, 0, 1, -7, 0}";
}
);
layerId = "37DD2CA1-C758-4BBE-932B-6884A881B1A3";
paths = (
{
closed = 1;
nodes = (
"624 484 OFFCURVE",
"630 457 OFFCURVE",
"630 436 CURVE SMOOTH",
"630 395 OFFCURVE",
"609 383 OFFCURVE",
"589 383 CURVE SMOOTH",
"555 383 OFFCURVE",
"533 417 OFFCURVE",
"517 477 CURVE",
"419 441 LINE",
"419 401 LINE",
"468 419 LINE",
"483 365 OFFCURVE",
"520 318 OFFCURVE",
"573 318 CURVE SMOOTH",
"626 318 OFFCURVE",
"670 365 OFFCURVE",
"670 431 CURVE SMOOTH",
"670 463 OFFCURVE",
"660 492 OFFCURVE",
"640 522 CURVE",
"607 510 LINE"
);
}
);
width = 705;
}
);
leftKerningGroup = o;
leftMetricsKey = "=|c";
rightKerningGroup = o;
rightMetricsKey = "=o";
unicode = 025D;
},
{
glyphname = esh;
lastChange = "2019-09-11 14:15:49 +0000";
layers = (
{
anchors = (
{
name = bottom;
position = "{190, 0}";
},
{
name = top;
position = "{190, 460}";
}
);
layerId = "CF31647D-EA7E-42DE-ACE7-E9318D6117AA";
paths = (
{
closed = 1;
nodes = (
"220 460 LINE",
"220 560 LINE SMOOTH",
"220 626 OFFCURVE",
"227 710 OFFCURVE",
"289 710 CURVE SMOOTH",
"332 710 OFFCURVE",
"343 673 OFFCURVE",
"343 653 CURVE",
"373 653 LINE",
"373 677 OFFCURVE",
"352 694 OFFCURVE",
"330 694 CURVE SMOOTH",
"304 694 OFFCURVE",
"280 676 OFFCURVE",
"280 648 CURVE SMOOTH",
"280 620 OFFCURVE",
"302 598 OFFCURVE",
"330 598 CURVE SMOOTH",
"358 598 OFFCURVE",
"380 621 OFFCURVE",
"380 653 CURVE SMOOTH",
"380 681 OFFCURVE",
"359 740 OFFCURVE",
"286 740 CURVE SMOOTH",
"187 740 OFFCURVE",
"140 649 OFFCURVE",
"140 544 CURVE SMOOTH",
"140 460 LINE"
);
},
{
closed = 1;
nodes = (
"140 460 LINE",
"140 -80 LINE SMOOTH",
"140 -146 OFFCURVE",
"133 -230 OFFCURVE",
"71 -230 CURVE SMOOTH",
"28 -230 OFFCURVE",
"17 -193 OFFCURVE",
"17 -173 CURVE",
"-13 -173 LINE",
"-13 -197 OFFCURVE",
"8 -214 OFFCURVE",
"30 -214 CURVE SMOOTH",
"56 -214 OFFCURVE",
"80 -196 OFFCURVE",
"80 -168 CURVE SMOOTH",
"80 -140 OFFCURVE",
"58 -118 OFFCURVE",
"30 -118 CURVE SMOOTH",
"2 -118 OFFCURVE",
"-20 -141 OFFCURVE",
"-20 -173 CURVE SMOOTH",
"-20 -201 OFFCURVE",
"1 -260 OFFCURVE",
"74 -260 CURVE SMOOTH",
"173 -260 OFFCURVE",
"220 -169 OFFCURVE",
"220 -64 CURVE SMOOTH",
"220 460 LINE"
);
}
);
width = 360;
},
{
anchors = (
{
name = bottom;
position = "{210, 0}";
},
{
name = top;
position = "{210, 480}";
}
);
layerId = "37DD2CA1-C758-4BBE-932B-6884A881B1A3";
paths = (
{
closed = 1;
nodes = (
"270 270 LINE",
"270 480 LINE",
"201 570 OFFCURVE",
"222 705 OFFCURVE",
"296 705 CURVE SMOOTH",
"332 705 OFFCURVE",
"353 678 OFFCURVE",
"353 648 CURVE",
"383 648 LINE",
"383 672 OFFCURVE",
"378 709 OFFCURVE",
"340 709 CURVE",
"302 709 OFFCURVE",
"275 683 OFFCURVE",
"275 648 CURVE SMOOTH",
"275 613 OFFCURVE",
"304 583 OFFCURVE",
"340 583 CURVE SMOOTH",
"375 583 OFFCURVE",
"405 613 OFFCURVE",
"405 648 CURVE SMOOTH",
"405 691 OFFCURVE",
"378 740 OFFCURVE",
"295 740 CURVE SMOOTH",
"186 740 OFFCURVE",
"120 649 OFFCURVE",
"120 544 CURVE",
"120 270 LINE"
);
},
{
closed = 1;
nodes = (
"120 270 LINE",
"120 0 LINE",
"189 -90 OFFCURVE",
"168 -225 OFFCURVE",
"94 -225 CURVE SMOOTH",
"58 -225 OFFCURVE",
"37 -198 OFFCURVE",
"37 -168 CURVE",
"7 -168 LINE",
"7 -192 OFFCURVE",
"12 -229 OFFCURVE",
"50 -229 CURVE",
"88 -229 OFFCURVE",
"115 -203 OFFCURVE",
"115 -168 CURVE SMOOTH",
"115 -133 OFFCURVE",
"86 -103 OFFCURVE",
"50 -103 CURVE SMOOTH",
"15 -103 OFFCURVE",
"-15 -133 OFFCURVE",
"-15 -168 CURVE SMOOTH",
"-15 -211 OFFCURVE",
"12 -260 OFFCURVE",
"95 -260 CURVE SMOOTH",
"204 -260 OFFCURVE",
"270 -169 OFFCURVE",
"270 -64 CURVE",
"270 270 LINE"
);
}
);
width = 390;
}
);
leftMetricsKey = "=|f";
rightMetricsKey = "=f";
unicode = 0283;
},
{
glyphname = schwahook;
lastChange = "2019-09-11 14:15:49 +0000";
layers = (
{
anchors = (
{
name = bottom;
position = "{265, 0}";
},
{
name = ogonek;
position = "{107, 460}";
},
{
name = top;
position = "{265, 460}";
}
);
layerId = "CF31647D-EA7E-42DE-ACE7-E9318D6117AA";
paths = (
{
closed = 1;
nodes = (
"318 430 OFFCURVE",
"393 356 OFFCURVE",
"393 218 CURVE SMOOTH",
"393 118 OFFCURVE",
"354 25 OFFCURVE",
"259 25 CURVE SMOOTH",
"181 25 OFFCURVE",
"152 87 OFFCURVE",
"146 188 CURVE",
"441 247 LINE",
"441 287 LINE",
"50 210 LINE",
"50 62 OFFCURVE",
"129 -10 OFFCURVE",
"244 -10 CURVE SMOOTH",
"375 -10 OFFCURVE",
"480 82 OFFCURVE",
"480 230 CURVE SMOOTH",
"480 378 OFFCURVE",
"375 470 OFFCURVE",
"244 470 CURVE SMOOTH",
"151 470 OFFCURVE",
"93 423 OFFCURVE",
"55 376 CURVE",
"82 353 LINE",
"112 386 OFFCURVE",
"163 430 OFFCURVE",
"230 430 CURVE SMOOTH"
);
},
{
closed = 1;
nodes = (
"655 325 OFFCURVE",
"661 298 OFFCURVE",
"661 277 CURVE SMOOTH",
"661 236 OFFCURVE",
"640 224 OFFCURVE",
"620 224 CURVE SMOOTH",
"586 224 OFFCURVE",
"563 258 OFFCURVE",
"547 318 CURVE",
"441 287 LINE",
"441 247 LINE",
"499 260 LINE",
"514 206 OFFCURVE",
"550 159 OFFCURVE",
"604 159 CURVE SMOOTH",
"657 159 OFFCURVE",
"701 206 OFFCURVE",
"701 272 CURVE SMOOTH",
"701 304 OFFCURVE",
"691 333 OFFCURVE",
"671 363 CURVE",
"638 351 LINE"
);
}
);
width = 751;
},
{
anchors = (
{
name = bottom;
position = "{275, 0}";
},
{
name = ogonek;
position = "{87, 480}";
},
{
name = top;
position = "{275, 480}";
}
);
layerId = "37DD2CA1-C758-4BBE-932B-6884A881B1A3";
paths = (
{
closed = 1;
nodes = (
"315 440 OFFCURVE",
"356 368 OFFCURVE",
"356 233 CURVE SMOOTH",
"356 116 OFFCURVE",
"325 25 OFFCURVE",
"273 25 CURVE SMOOTH",
"221 25 OFFCURVE",
"196 115 OFFCURVE",
"190 197 CURVE",
"487 281 LINE",
"487 321 LINE",
"35 195 LINE",
"35 77 OFFCURVE",
"131 -10 OFFCURVE",
"263 -10 CURVE SMOOTH",
"399 -10 OFFCURVE",
"516 82 OFFCURVE",
"516 241 CURVE SMOOTH",
"516 398 OFFCURVE",
"401 490 OFFCURVE",
"253 490 CURVE SMOOTH",
"141 490 OFFCURVE",
"81 437 OFFCURVE",
"40 386 CURVE",
"67 363 LINE",
"103 402 OFFCURVE",
"159 440 OFFCURVE",
"225 440 CURVE SMOOTH"
);
},
{
closed = 1;
nodes = (
"692 360 OFFCURVE",
"698 333 OFFCURVE",
"698 312 CURVE SMOOTH",
"698 271 OFFCURVE",
"677 259 OFFCURVE",
"657 259 CURVE SMOOTH",
"623 259 OFFCURVE",
"600 293 OFFCURVE",
"584 353 CURVE",
"487 321 LINE",
"487 281 LINE",
"536 295 LINE",
"551 241 OFFCURVE",
"587 194 OFFCURVE",
"641 194 CURVE SMOOTH",
"694 194 OFFCURVE",
"738 241 OFFCURVE",
"738 307 CURVE SMOOTH",
"738 339 OFFCURVE",
"728 368 OFFCURVE",
"708 398 CURVE",
"675 386 LINE"
);
}
);
width = 773;
}
);
leftKerningGroup = o;
leftMetricsKey = "=o";
rightKerningGroup = o;
rightMetricsKey = "=o";
unicode = 025A;
},
{
glyphname = ezh;
lastChange = "2019-09-11 14:15:49 +0000";
layers = (
{
anchors = (
{
name = bottom;
position = "{264, 0}";
},
{
name = top;
position = "{264, 460}";
}
);
layerId = "CF31647D-EA7E-42DE-ACE7-E9318D6117AA";
paths = (
{
closed = 1;
nodes = (
"447 435 LINE",
"447 460 LINE",
"87 460 LINE",
"55 320 LINE",
"88 310 LINE",
"116 415 OFFCURVE",
"151 425 OFFCURVE",
"242 425 CURVE SMOOTH",
"338 425 LINE",
"343 420 LINE",
"154 158 LINE",
"154 133 LINE",
"305 133 OFFCURVE",
"369 53 OFFCURVE",
"369 -44 CURVE SMOOTH",
"369 -126 OFFCURVE",
"315 -220 OFFCURVE",
"216 -220 CURVE SMOOTH",
"156 -220 OFFCURVE",
"107 -186 OFFCURVE",
"67 -143 CURVE",
"40 -166 LINE",
"80 -216 OFFCURVE",
"143 -260 OFFCURVE",
"228 -260 CURVE SMOOTH",
"355 -260 OFFCURVE",
"456 -161 OFFCURVE",
"456 -44 CURVE SMOOTH",
"456 66 OFFCURVE",
"375 144 OFFCURVE",
"250 165 CURVE"
);
}
);
width = 506;
},
{
anchors = (
{
name = bottom;
position = "{295, 0}";
},
{
name = top;
position = "{295, 480}";
}
);
layerId = "37DD2CA1-C758-4BBE-932B-6884A881B1A3";
paths = (
{
closed = 1;
nodes = (
"499 445 LINE",
"499 480 LINE",
"89 480 LINE",
"52 320 LINE",
"85 310 LINE",
"133 435 OFFCURVE",
"213 445 OFFCURVE",
"264 445 CURVE SMOOTH",
"320 445 LINE",
"330 435 LINE",
"152 181 LINE",
"152 151 LINE",
"326 151 OFFCURVE",
"344 20 OFFCURVE",
"344 -43 CURVE SMOOTH",
"344 -134 OFFCURVE",
"295 -210 OFFCURVE",
"210 -210 CURVE SMOOTH",
"150 -210 OFFCURVE",
"91 -172 OFFCURVE",
"55 -133 CURVE",
"28 -156 LINE",
"68 -205 OFFCURVE",
"128 -260 OFFCURVE",
"241 -260 CURVE SMOOTH",
"385 -260 OFFCURVE",
"504 -170 OFFCURVE",
"504 -45 CURVE SMOOTH",
"504 30 OFFCURVE",
"466 125 OFFCURVE",
"312 164 CURVE"
);
}
);
width = 539;
}
);
leftKerningGroup = n;
leftMetricsKey = "=eopenreversed";
rightKerningGroup = n;
rightMetricsKey = "=eopenreversed";
unicode = 0292;
},
{
glyphname = f;
lastChange = "2019-09-11 14:15:49 +0000";
layers = (
{
anchors = (
{
name = bottom;
position = "{170, 0}";
},
{
name = top;
position = "{170, 460}";
}
);
components = (
{
name = _com_szeryf_small_long;
transform = "{1, 0, 0, 1, 10, 0}";
}
);
guideLines = (
{
angle = 270;
position = "{320, 30}";
}
);
layerId = "CF31647D-EA7E-42DE-ACE7-E9318D6117AA";
paths = (
{
closed = 1;
nodes = (
"200 460 LINE",
"200 560 LINE SMOOTH",
"200 626 OFFCURVE",
"207 710 OFFCURVE",
"269 710 CURVE SMOOTH",
"312 710 OFFCURVE",
"323 673 OFFCURVE",
"323 653 CURVE",
"353 653 LINE",
"353 677 OFFCURVE",
"332 694 OFFCURVE",
"310 694 CURVE SMOOTH",
"284 694 OFFCURVE",
"260 676 OFFCURVE",
"260 648 CURVE SMOOTH",
"260 620 OFFCURVE",
"282 598 OFFCURVE",
"310 598 CURVE SMOOTH",
"338 598 OFFCURVE",
"360 621 OFFCURVE",
"360 653 CURVE SMOOTH",
"360 681 OFFCURVE",
"339 740 OFFCURVE",
"266 740 CURVE SMOOTH",
"167 740 OFFCURVE",
"120 649 OFFCURVE",
"120 544 CURVE SMOOTH",
"120 460 LINE"
);
},
{
closed = 1;
nodes = (
"200 0 LINE",
"200 420 LINE",
"205 425 LINE",
"115 425 LINE",
"120 420 LINE",
"120 0 LINE"
);
},
{
closed = 1;
nodes = (
"330 425 LINE",
"330 460 LINE",
"40 460 LINE",
"40 425 LINE"
);
}
);
width = 340;
},
{
anchors = (
{
name = bottom;
position = "{180, 0}";
},
{
name = top;
position = "{180, 480}";
}
);
components = (
{
name = _com_szeryf_small_long;
transform = "{1, 0, 0, 1, 10, 0}";
}
);
layerId = "37DD2CA1-C758-4BBE-932B-6884A881B1A3";
paths = (
{
closed = 1;
nodes = (
"240 470 LINE",
"240 480 LINE",
"171 570 OFFCURVE",
"192 705 OFFCURVE",
"266 705 CURVE SMOOTH",
"302 705 OFFCURVE",
"323 678 OFFCURVE",
"323 648 CURVE",
"353 648 LINE",
"353 672 OFFCURVE",
"348 709 OFFCURVE",
"310 709 CURVE",
"272 709 OFFCURVE",
"245 683 OFFCURVE",
"245 648 CURVE SMOOTH",
"245 613 OFFCURVE",
"274 583 OFFCURVE",
"310 583 CURVE SMOOTH",
"345 583 OFFCURVE",
"375 613 OFFCURVE",
"375 648 CURVE SMOOTH",
"375 691 OFFCURVE",
"348 740 OFFCURVE",
"265 740 CURVE SMOOTH",
"156 740 OFFCURVE",
"90 649 OFFCURVE",
"90 544 CURVE",
"90 470 LINE"
);
},
{
closed = 1;
nodes = (
"235 0 LINE",
"235 435 LINE",
"245 445 LINE",
"80 445 LINE",
"90 435 LINE",
"90 0 LINE"
);
},
{
closed = 1;
nodes = (
"345 445 LINE",
"345 480 LINE",
"30 480 LINE",
"30 445 LINE"
);
}
);
width = 360;
}
);
leftKerningGroup = l;
leftMetricsKey = "=n";
rightKerningGroup = f;
unicode = 0066;
},
{
glyphname = fengdigraph;
lastChange = "2019-09-11 14:15:49 +0000";
layers = (
{
anchors = (
{
name = bottom;
position = "{170, 0}";
},
{
name = top;
position = "{170, 460}";
}
);
components = (
{
name = _com_szeryf_small_long;
transform = "{1, 0, 0, 1, 10, 0}";
},
{
name = eng;
transform = "{1, 0, 0, 1, 340, 0}";
}
);
layerId = "CF31647D-EA7E-42DE-ACE7-E9318D6117AA";
paths = (
{
closed = 1;
nodes = (
"200 460 LINE",
"200 560 LINE SMOOTH",
"200 626 OFFCURVE",
"207 710 OFFCURVE",
"269 710 CURVE SMOOTH",
"312 710 OFFCURVE",
"323 673 OFFCURVE",
"323 653 CURVE",
"353 653 LINE",
"353 677 OFFCURVE",
"332 694 OFFCURVE",
"310 694 CURVE SMOOTH",
"284 694 OFFCURVE",
"260 676 OFFCURVE",
"260 648 CURVE SMOOTH",
"260 620 OFFCURVE",
"282 598 OFFCURVE",
"310 598 CURVE SMOOTH",
"338 598 OFFCURVE",
"360 621 OFFCURVE",
"360 653 CURVE SMOOTH",
"360 681 OFFCURVE",
"339 740 OFFCURVE",
"266 740 CURVE SMOOTH",
"167 740 OFFCURVE",
"120 649 OFFCURVE",
"120 544 CURVE SMOOTH",
"120 460 LINE"
);
},
{
closed = 1;
nodes = (
"200 0 LINE",
"200 420 LINE",
"205 425 LINE",
"115 425 LINE",
"120 420 LINE",
"120 0 LINE"
);
},
{
closed = 1;
nodes = (
"430 425 LINE",
"430 460 LINE",
"40 460 LINE",
"40 425 LINE"
);
}
);
width = 960;
},
{
anchors = (
{
name = bottom;
position = "{180, 0}";
},
{
name = top;
position = "{180, 480}";
}
);
components = (
{
name = _com_szeryf_small_long;
transform = "{1, 0, 0, 1, 10, 0}";
},
{
name = eng;
transform = "{1, 0, 0, 1, 360, 0}";
}
);
layerId = "37DD2CA1-C758-4BBE-932B-6884A881B1A3";
paths = (
{
closed = 1;
nodes = (
"240 470 LINE",
"240 480 LINE",
"171 570 OFFCURVE",
"192 705 OFFCURVE",
"266 705 CURVE SMOOTH",
"302 705 OFFCURVE",
"323 678 OFFCURVE",
"323 648 CURVE",
"353 648 LINE",
"353 672 OFFCURVE",
"348 709 OFFCURVE",
"310 709 CURVE",
"272 709 OFFCURVE",
"245 683 OFFCURVE",
"245 648 CURVE SMOOTH",
"245 613 OFFCURVE",
"274 583 OFFCURVE",
"310 583 CURVE SMOOTH",
"345 583 OFFCURVE",
"375 613 OFFCURVE",
"375 648 CURVE SMOOTH",
"375 691 OFFCURVE",
"348 740 OFFCURVE",
"265 740 CURVE SMOOTH",
"156 740 OFFCURVE",
"90 649 OFFCURVE",
"90 544 CURVE",
"90 470 LINE"
);
},
{
closed = 1;
nodes = (
"235 0 LINE",
"235 435 LINE",
"245 445 LINE",
"80 445 LINE",
"90 435 LINE",
"90 0 LINE"
);
},
{
closed = 1;
nodes = (
"445 445 LINE",
"445 480 LINE",
"30 480 LINE",
"30 445 LINE"
);
}
);
width = 984;
}
);
leftKerningGroup = l;
leftMetricsKey = "=f";
rightKerningGroup = n;
rightMetricsKey = "=eng";
unicode = 02A9;
},
{
glyphname = g;
lastChange = "2019-09-11 14:15:49 +0000";
layers = (
{
anchors = (
{
name = bottom;
position = "{260, 0}";
},
{
name = top;
position = "{260, 460}";
}
);
layerId = "CF31647D-EA7E-42DE-ACE7-E9318D6117AA";
paths = (
{
closed = 1;
nodes = (
"165 470 OFFCURVE",
"60 418 OFFCURVE",
"60 310 CURVE SMOOTH",
"60 202 OFFCURVE",
"165 150 OFFCURVE",
"258 150 CURVE SMOOTH",
"351 150 OFFCURVE",
"460 202 OFFCURVE",
"460 310 CURVE SMOOTH",
"460 418 OFFCURVE",
"351 470 OFFCURVE",
"258 470 CURVE SMOOTH"
);
},
{
closed = 1;
nodes = (
"204 185 OFFCURVE",
"145 230 OFFCURVE",
"145 316 CURVE SMOOTH",
"145 386 OFFCURVE",
"189 435 OFFCURVE",
"252 435 CURVE SMOOTH",
"311 435 OFFCURVE",
"375 392 OFFCURVE",
"375 304 CURVE SMOOTH",
"375 230 OFFCURVE",
"324 185 OFFCURVE",
"264 185 CURVE SMOOTH"
);
},
{
closed = 1;
nodes = (
"130 127 OFFCURVE",
"141 153 OFFCURVE",
"166 173 CURVE",
"141 186 LINE",
"103 166 OFFCURVE",
"70 134 OFFCURVE",
"70 81 CURVE SMOOTH",
"70 -97 OFFCURVE",
"460 32 OFFCURVE",
"460 -106 CURVE SMOOTH",
"460 -185 OFFCURVE",
"372 -225 OFFCURVE",
"269 -225 CURVE SMOOTH",
"178 -225 OFFCURVE",
"130 -176 OFFCURVE",
"130 -108 CURVE SMOOTH",
"130 -75 OFFCURVE",
"140 -39 OFFCURVE",
"173 -11 CURVE",
"143 -2 LINE",
"85 -30 OFFCURVE",
"50 -69 OFFCURVE",
"50 -124 CURVE SMOOTH",
"50 -236 OFFCURVE",
"170 -260 OFFCURVE",
"259 -260 CURVE SMOOTH",
"412 -260 OFFCURVE",
"510 -190 OFFCURVE",
"510 -81 CURVE SMOOTH",
"510 123 OFFCURVE",
"130 -5 OFFCURVE",
"130 108 CURVE SMOOTH"
);
},
{
closed = 1;
nodes = (
"360 431 LINE",
"384 474 OFFCURVE",
"412 495 OFFCURVE",
"434 502 CURVE",
"435 529 LINE",
"427 521 OFFCURVE",
"420 505 OFFCURVE",
"420 495 CURVE SMOOTH",
"420 470 OFFCURVE",
"440 450 OFFCURVE",
"465 450 CURVE SMOOTH",
"489 450 OFFCURVE",
"510 469 OFFCURVE",
"510 496 CURVE SMOOTH",
"510 521 OFFCURVE",
"493 545 OFFCURVE",
"456 545 CURVE SMOOTH",
"410 545 OFFCURVE",
"362 507 OFFCURVE",
"330 452 CURVE"
);
}
);
width = 540;
},
{
associatedMasterId = "CF31647D-EA7E-42DE-ACE7-E9318D6117AA";
layerId = "A6629FD7-C102-4823-9500-E1FB6A2DDD45";
name = "Feb 1 18, 18:48";
paths = (
{
closed = 1;
nodes = (
"131 112 OFFCURVE",
"156 129 OFFCURVE",
"171 137 CURVE",
"209 119 OFFCURVE",
"249 112 OFFCURVE",
"277 112 CURVE",
"420 112 OFFCURVE",
"491 218 OFFCURVE",
"491 286 CURVE",
"491 364 OFFCURVE",
"448 413 OFFCURVE",
"403 443 CURVE",
"454 502 OFFCURVE",
"486 473 OFFCURVE",
"486 473 CURVE",
"467 444 OFFCURVE",
"500 435 OFFCURVE",
"500 435 CURVE",
"525 435 OFFCURVE",
"526 460 OFFCURVE",
"526 460 CURVE",
"526 497 OFFCURVE",
"475 498 OFFCURVE",
"475 498 CURVE",
"418 498 OFFCURVE",
"384 469 OFFCURVE",
"372 457 CURVE",
"338 473 OFFCURVE",
"304 479 OFFCURVE",
"283 479 CURVE",
"283 479 OFFCURVE",
"67 481 OFFCURVE",
"67 286 CURVE",
"67 220 OFFCURVE",
"103 178 OFFCURVE",
"146 150 CURVE",
"123 136 OFFCURVE",
"80 100 OFFCURVE",
"80 54 CURVE",
"80 2 OFFCURVE",
"126 -21 OFFCURVE",
"183 -33 CURVE",
"108 -54 OFFCURVE",
"60 -100 OFFCURVE",
"60 -150 CURVE",
"60 -275 OFFCURVE",
"215 -286 OFFCURVE",
"281 -286 CURVE",
"467 -286 OFFCURVE",
"539 -194 OFFCURVE",
"539 -118 CURVE",
"539 92 OFFCURVE",
"131 -38 OFFCURVE",
"131 83 CURVE"
);
},
{
closed = 1;
nodes = (
"336 452 OFFCURVE",
"411 407 OFFCURVE",
"411 288 CURVE",
"411 220 OFFCURVE",
"370 137 OFFCURVE",
"279 137 CURVE",
"239 137 OFFCURVE",
"144 158 OFFCURVE",
"144 286 CURVE",
"144 446 OFFCURVE",
"261 452 OFFCURVE",
"283 452 CURVE"
);
},
{
closed = 1;
nodes = (
"285 -249 OFFCURVE",
"116 -264 OFFCURVE",
"116 -147 CURVE",
"116 -115 OFFCURVE",
"150 -56 OFFCURVE",
"226 -41 CURVE",
"339 -57 OFFCURVE",
"481 -55 OFFCURVE",
"481 -144 CURVE",
"481 -144 OFFCURVE",
"479 -249 OFFCURVE",
"285 -249 CURVE"
);
}
);
width = 600;
},
{
anchors = (
{
name = bottom;
position = "{286, 0}";
},
{
name = top;
position = "{286, 480}";
}
);
layerId = "37DD2CA1-C758-4BBE-932B-6884A881B1A3";
paths = (
{
closed = 1;
nodes = (
"150 490 OFFCURVE",
"45 438 OFFCURVE",
"45 330 CURVE SMOOTH",
"45 222 OFFCURVE",
"150 170 OFFCURVE",
"273 170 CURVE SMOOTH",
"396 170 OFFCURVE",
"505 222 OFFCURVE",
"505 330 CURVE SMOOTH",
"505 438 OFFCURVE",
"396 490 OFFCURVE",
"273 490 CURVE SMOOTH"
);
},
{
closed = 1;
nodes = (
"237 205 OFFCURVE",
"195 240 OFFCURVE",
"195 335 CURVE SMOOTH",
"195 416 OFFCURVE",
"226 455 OFFCURVE",
"269 455 CURVE SMOOTH",
"308 455 OFFCURVE",
"355 422 OFFCURVE",
"355 326 CURVE SMOOTH",
"355 239 OFFCURVE",
"317 205 OFFCURVE",
"277 205 CURVE SMOOTH"
);
},
{
closed = 1;
nodes = (
"165 153 OFFCURVE",
"170 176 OFFCURVE",
"190 188 CURVE",
"176 206 LINE",
"108 184 OFFCURVE",
"55 154 OFFCURVE",
"55 81 CURVE SMOOTH",
"55 -111 OFFCURVE",
"425 8 OFFCURVE",
"425 -130 CURVE SMOOTH",
"425 -185 OFFCURVE",
"365 -225 OFFCURVE",
"284 -225 CURVE SMOOTH",
"196 -225 OFFCURVE",
"155 -178 OFFCURVE",
"155 -109 CURVE SMOOTH",
"155 -79 OFFCURVE",
"161 -49 OFFCURVE",
"184 -21 CURVE",
"169 -12 LINE",
"76 -26 OFFCURVE",
"35 -67 OFFCURVE",
"35 -127 CURVE SMOOTH",
"35 -220 OFFCURVE",
"133 -260 OFFCURVE",
"268 -260 CURVE SMOOTH",
"459 -260 OFFCURVE",
"555 -179 OFFCURVE",
"555 -70 CURVE SMOOTH",
"555 149 OFFCURVE",
"165 33 OFFCURVE",
"165 139 CURVE SMOOTH"
);
},
{
closed = 1;
nodes = (
"405 451 LINE",
"429 494 OFFCURVE",
"457 515 OFFCURVE",
"479 522 CURVE",
"480 549 LINE",
"472 541 OFFCURVE",
"455 525 OFFCURVE",
"455 515 CURVE SMOOTH",
"455 485 OFFCURVE",
"475 460 OFFCURVE",
"510 460 CURVE SMOOTH",
"545 460 OFFCURVE",
"565 486 OFFCURVE",
"565 515 CURVE SMOOTH",
"565 540 OFFCURVE",
"548 574 OFFCURVE",
"501 574 CURVE SMOOTH",
"445 574 OFFCURVE",
"407 527 OFFCURVE",
"375 472 CURVE"
);
}
);
width = 572;
}
);
leftKerningGroup = o;
leftMetricsKey = "=o";
rightKerningGroup = o;
unicode = 0067;
},
{
glyphname = "gamma-latin";
lastChange = "2019-09-11 14:15:49 +0000";
layers = (
{
anchors = (
{
name = bottom;
position = "{253, 0}";
},
{
name = top;
position = "{253, 460}";
}
);
layerId = "CF31647D-EA7E-42DE-ACE7-E9318D6117AA";
paths = (
{
closed = 1;
nodes = (
"318 -260 OFFCURVE",
"404 -215 OFFCURVE",
"404 -115 CURVE",
"404 -10 OFFCURVE",
"342 70 OFFCURVE",
"156 420 CURVE",
"161 425 LINE",
"226 425 LINE",
"226 460 LINE",
"-5 460 LINE",
"-5 425 LINE",
"65 425 LINE",
"253 77 OFFCURVE",
"329 -30 OFFCURVE",
"329 -113 CURVE",
"329 -172 OFFCURVE",
"305 -220 OFFCURVE",
"248 -220 CURVE SMOOTH",
"200 -220 OFFCURVE",
"165 -191 OFFCURVE",
"165 -127 CURVE SMOOTH",
"165 -41 OFFCURVE",
"216 16 OFFCURVE",
"451 425 CURVE",
"511 425 LINE",
"511 460 LINE",
"329 460 LINE",
"329 425 LINE",
"399 425 LINE",
"404 420 LINE",
"166 3 OFFCURVE",
"130 -39 OFFCURVE",
"130 -124 CURVE SMOOTH",
"130 -208 OFFCURVE",
"175 -260 OFFCURVE",
"252 -260 CURVE SMOOTH"
);
}
);
width = 516;
},
{
anchors = (
{
name = bottom;
position = "{268, 0}";
},
{
name = top;
position = "{268, 480}";
}
);
layerId = "37DD2CA1-C758-4BBE-932B-6884A881B1A3";
paths = (
{
closed = 1;
nodes = (
"351 -260 OFFCURVE",
"449 -209 OFFCURVE",
"449 -91 CURVE SMOOTH",
"449 6 OFFCURVE",
"386 81 OFFCURVE",
"200 435 CURVE",
"210 445 LINE",
"260 445 LINE",
"260 480 LINE",
"-15 480 LINE",
"-15 445 LINE",
"35 445 LINE",
"267 2 OFFCURVE",
"309 -48 OFFCURVE",
"309 -125 CURVE SMOOTH",
"309 -155 OFFCURVE",
"293 -215 OFFCURVE",
"236 -215 CURVE SMOOTH",
"193 -215 OFFCURVE",
"165 -181 OFFCURVE",
"165 -126 CURVE SMOOTH",
"165 -34 OFFCURVE",
"264 67 OFFCURVE",
"491 445 CURVE",
"551 445 LINE",
"551 480 LINE",
"362 480 LINE",
"362 445 LINE",
"432 445 LINE",
"442 435 LINE",
"220 74 OFFCURVE",
"130 -30 OFFCURVE",
"130 -129 CURVE SMOOTH",
"130 -189 OFFCURVE",
"162 -260 OFFCURVE",
"264 -260 CURVE SMOOTH"
);
}
);
width = 539;
}
);
leftKerningGroup = v;
leftMetricsKey = "=v";
rightKerningGroup = v;
rightMetricsKey = "=v";
unicode = 0263;
},
{
glyphname = ghook;
lastChange = "2019-09-11 14:15:49 +0000";
layers = (
{
components = (
{
name = _com_ipa_hook;
transform = "{1, 0, 0, 1, 317, 0}";
}
);
layerId = "CF31647D-EA7E-42DE-ACE7-E9318D6117AA";
paths = (
{
closed = 1;
nodes = (
"335 -10 OFFCURVE",
"390 38 OFFCURVE",
"415 85 CURVE",
"415 155 LINE",
"378 70 OFFCURVE",
"325 35 OFFCURVE",
"270 35 CURVE SMOOTH",
"194 35 OFFCURVE",
"140 109 OFFCURVE",
"140 240 CURVE SMOOTH",
"140 371 OFFCURVE",
"194 425 OFFCURVE",
"270 425 CURVE SMOOTH",
"325 425 OFFCURVE",
"378 390 OFFCURVE",
"415 305 CURVE",
"415 375 LINE",
"390 427 OFFCURVE",
"340 470 OFFCURVE",
"256 470 CURVE SMOOTH",
"136 470 OFFCURVE",
"50 372 OFFCURVE",
"50 228 CURVE SMOOTH",
"50 84 OFFCURVE",
"136 -10 OFFCURVE",
"256 -10 CURVE SMOOTH"
);
},
{
closed = 1;
nodes = (
"415 369 LINE",
"415 -40 LINE SMOOTH",
"415 -161 OFFCURVE",
"348 -220 OFFCURVE",
"262 -220 CURVE SMOOTH",
"221 -220 OFFCURVE",
"176 -212 OFFCURVE",
"146 -190 CURVE",
"167 -178 OFFCURVE",
"175 -160 OFFCURVE",
"175 -140 CURVE SMOOTH",
"175 -111 OFFCURVE",
"151 -90 OFFCURVE",
"125 -90 CURVE SMOOTH",
"97 -90 OFFCURVE",
"75 -111 OFFCURVE",
"75 -146 CURVE SMOOTH",
"75 -216 OFFCURVE",
"180 -260 OFFCURVE",
"271 -260 CURVE SMOOTH",
"376 -260 OFFCURVE",
"495 -211 OFFCURVE",
"495 -30 CURVE SMOOTH",
"495 460 LINE",
"415 460 LINE"
);
}
);
width = 595;
},
{
components = (
{
name = _com_ipa_hook;
transform = "{1, 0, 0, 1, 335, 0}";
}
);
layerId = "37DD2CA1-C758-4BBE-932B-6884A881B1A3";
paths = (
{
closed = 1;
nodes = (
"325 0 OFFCURVE",
"380 43 OFFCURVE",
"405 90 CURVE",
"405 165 LINE",
"368 80 OFFCURVE",
"325 55 OFFCURVE",
"290 55 CURVE SMOOTH",
"234 55 OFFCURVE",
"195 129 OFFCURVE",
"195 260 CURVE SMOOTH",
"195 391 OFFCURVE",
"234 445 OFFCURVE",
"290 445 CURVE SMOOTH",
"325 445 OFFCURVE",
"368 420 OFFCURVE",
"405 335 CURVE",
"405 410 LINE",
"380 462 OFFCURVE",
"330 500 OFFCURVE",
"256 500 CURVE SMOOTH",
"126 500 OFFCURVE",
"35 402 OFFCURVE",
"35 248 CURVE SMOOTH",
"35 94 OFFCURVE",
"126 0 OFFCURVE",
"256 0 CURVE SMOOTH"
);
},
{
closed = 1;
nodes = (
"405 409 LINE",
"405 0 LINE SMOOTH",
"405 -184 OFFCURVE",
"336 -215 OFFCURVE",
"256 -215 CURVE SMOOTH",
"227 -215 OFFCURVE",
"182 -209 OFFCURVE",
"157 -197 CURVE",
"178 -183 OFFCURVE",
"192 -161 OFFCURVE",
"192 -135 CURVE SMOOTH",
"192 -95 OFFCURVE",
"162 -65 OFFCURVE",
"122 -65 CURVE SMOOTH",
"82 -65 OFFCURVE",
"52 -95 OFFCURVE",
"52 -140 CURVE SMOOTH",
"52 -224 OFFCURVE",
"163 -260 OFFCURVE",
"273 -260 CURVE SMOOTH",
"395 -260 OFFCURVE",
"550 -188 OFFCURVE",
"550 45 CURVE SMOOTH",
"550 480 LINE",
"405 480 LINE"
);
}
);
width = 614;
}
);
leftKerningGroup = o;
leftMetricsKey = "=o";
unicode = 0260;
},
{
glyphname = glottalstopreversed;
lastChange = "2019-09-11 14:15:49 +0000";
layers = (
{
layerId = "CF31647D-EA7E-42DE-ACE7-E9318D6117AA";
paths = (
{
closed = 1;
nodes = (
"323 340 LINE",
"197 340 OFFCURVE",
"137 436 OFFCURVE",
"137 527 CURVE SMOOTH",
"137 627 OFFCURVE",
"180 705 OFFCURVE",
"288 705 CURVE SMOOTH",
"338 705 OFFCURVE",
"378 690 OFFCURVE",
"406 659 CURVE",
"375 651 OFFCURVE",
"365 631 OFFCURVE",
"365 610 CURVE SMOOTH",
"365 581 OFFCURVE",
"389 560 OFFCURVE",
"415 560 CURVE SMOOTH",
"443 560 OFFCURVE",
"465 581 OFFCURVE",
"465 615 CURVE SMOOTH",
"465 689 OFFCURVE",
"382 740 OFFCURVE",
"289 740 CURVE SMOOTH",
"160 740 OFFCURVE",
"50 660 OFFCURVE",
"50 516 CURVE SMOOTH",
"50 412 OFFCURVE",
"142 300 OFFCURVE",
"309 300 CURVE"
);
},
{
closed = 1;
nodes = (
"403 0 LINE",
"403 35 LINE",
"328 35 LINE",
"323 40 LINE",
"323 340 LINE",
"243 310 LINE",
"243 40 LINE",
"238 35 LINE",
"163 35 LINE",
"163 0 LINE"
);
}
);
width = 495;
},
{
layerId = "37DD2CA1-C758-4BBE-932B-6884A881B1A3";
paths = (
{
closed = 1;
nodes = (
"346 340 LINE",
"254 360 OFFCURVE",
"195 412 OFFCURVE",
"195 520 CURVE SMOOTH",
"195 630 OFFCURVE",
"222 705 OFFCURVE",
"319 705 CURVE SMOOTH",
"358 705 OFFCURVE",
"409 690 OFFCURVE",
"428 670 CURVE",
"381 663 OFFCURVE",
"366 630 OFFCURVE",
"366 605 CURVE SMOOTH",
"366 565 OFFCURVE",
"396 535 OFFCURVE",
"436 535 CURVE SMOOTH",
"476 535 OFFCURVE",
"506 565 OFFCURVE",
"506 610 CURVE SMOOTH",
"506 679 OFFCURVE",
"409 740 OFFCURVE",
"306 740 CURVE SMOOTH",
"154 740 OFFCURVE",
"35 668 OFFCURVE",
"35 540 CURVE SMOOTH",
"35 402 OFFCURVE",
"177 340 OFFCURVE",
"315 300 CURVE"
);
},
{
closed = 1;
nodes = (
"406 0 LINE",
"406 35 LINE",
"356 35 LINE",
"346 45 LINE",
"346 340 LINE",
"201 351 LINE",
"201 45 LINE",
"191 35 LINE",
"141 35 LINE",
"141 0 LINE"
);
}
);
width = 527;
}
);
leftMetricsKey = "=c";
rightMetricsKey = "=c";
unicode = 0295;
},
{
glyphname = gsingle;
lastChange = "2019-09-11 14:15:49 +0000";
layers = (
{
layerId = "CF31647D-EA7E-42DE-ACE7-E9318D6117AA";
paths = (
{
closed = 1;
nodes = (
"335 -10 OFFCURVE",
"390 38 OFFCURVE",
"415 85 CURVE",
"415 155 LINE",
"378 70 OFFCURVE",
"325 35 OFFCURVE",
"270 35 CURVE SMOOTH",
"194 35 OFFCURVE",
"140 109 OFFCURVE",
"140 240 CURVE SMOOTH",
"140 371 OFFCURVE",
"194 425 OFFCURVE",
"270 425 CURVE SMOOTH",
"325 425 OFFCURVE",
"378 390 OFFCURVE",
"415 305 CURVE",
"415 375 LINE",
"390 427 OFFCURVE",
"340 470 OFFCURVE",
"256 470 CURVE SMOOTH",
"136 470 OFFCURVE",
"50 372 OFFCURVE",
"50 228 CURVE SMOOTH",
"50 84 OFFCURVE",
"136 -10 OFFCURVE",
"256 -10 CURVE SMOOTH"
);
},
{
closed = 1;
nodes = (
"415 369 LINE",
"415 -40 LINE SMOOTH",
"415 -161 OFFCURVE",
"348 -220 OFFCURVE",
"262 -220 CURVE SMOOTH",
"221 -220 OFFCURVE",
"176 -212 OFFCURVE",
"146 -190 CURVE",
"167 -178 OFFCURVE",
"175 -160 OFFCURVE",
"175 -140 CURVE SMOOTH",
"175 -111 OFFCURVE",
"151 -90 OFFCURVE",
"125 -90 CURVE SMOOTH",
"97 -90 OFFCURVE",
"75 -111 OFFCURVE",
"75 -146 CURVE SMOOTH",
"75 -216 OFFCURVE",
"180 -260 OFFCURVE",
"271 -260 CURVE SMOOTH",
"376 -260 OFFCURVE",
"495 -211 OFFCURVE",
"495 -30 CURVE SMOOTH",
"495 460 LINE",
"460 460 LINE"
);
}
);
width = 600;
},
{
layerId = "37DD2CA1-C758-4BBE-932B-6884A881B1A3";
paths = (
{
closed = 1;
nodes = (
"325 0 OFFCURVE",
"380 43 OFFCURVE",
"405 90 CURVE",
"405 165 LINE",
"368 80 OFFCURVE",
"325 55 OFFCURVE",
"290 55 CURVE SMOOTH",
"234 55 OFFCURVE",
"195 129 OFFCURVE",
"195 260 CURVE SMOOTH",
"195 391 OFFCURVE",
"234 445 OFFCURVE",
"290 445 CURVE SMOOTH",
"325 445 OFFCURVE",
"368 420 OFFCURVE",
"405 335 CURVE",
"405 410 LINE",
"380 462 OFFCURVE",
"330 500 OFFCURVE",
"256 500 CURVE SMOOTH",
"126 500 OFFCURVE",
"35 402 OFFCURVE",
"35 248 CURVE SMOOTH",
"35 94 OFFCURVE",
"126 0 OFFCURVE",
"256 0 CURVE SMOOTH"
);
},
{
closed = 1;
nodes = (
"405 409 LINE",
"405 0 LINE SMOOTH",
"405 -184 OFFCURVE",
"336 -215 OFFCURVE",
"256 -215 CURVE SMOOTH",
"227 -215 OFFCURVE",
"182 -209 OFFCURVE",
"157 -197 CURVE",
"178 -183 OFFCURVE",
"192 -161 OFFCURVE",
"192 -135 CURVE SMOOTH",
"192 -95 OFFCURVE",
"162 -65 OFFCURVE",
"122 -65 CURVE SMOOTH",
"82 -65 OFFCURVE",
"52 -95 OFFCURVE",
"52 -140 CURVE SMOOTH",
"52 -224 OFFCURVE",
"163 -260 OFFCURVE",
"273 -260 CURVE SMOOTH",
"395 -260 OFFCURVE",
"550 -188 OFFCURVE",
"550 45 CURVE SMOOTH",
"550 480 LINE",
"442 480 LINE"
);
}
);
width = 600;
}
);
leftKerningGroup = o;
rightKerningGroup = n;
unicode = 0261;
},
{
color = 0;
glyphname = henghook;
lastChange = "2020-11-13 10:41:42 +0000";
layers = (
{
anchors = (
{
name = bottom;
position = "{336, 0}";
},
{
name = center;
position = "{166, 580}";
},
{
name = top;
position = "{336, 460}";
},
{
name = topright;
position = "{321, 460}";
}
);
components = (
{
name = _com_ipa_hook;
transform = "{1, 0, 0, 1, 17, 0}";
},
{
name = _com_ipa_hook;
transform = "{-1, 0, 0, -1, 613, 460}";
}
);
layerId = "CF31647D-EA7E-42DE-ACE7-E9318D6117AA";
paths = (
{
closed = 1;
nodes = (
"515 -19 LINE",
"515 340 LINE SMOOTH",
"515 412 OFFCURVE",
"480 470 OFFCURVE",
"377 470 CURVE SMOOTH",
"290 470 OFFCURVE",
"233 428 OFFCURVE",
"195 365 CURVE",
"195 515 LINE",
"115 515 LINE",
"115 40 LINE",
"110 35 LINE",
"35 35 LINE",
"35 0 LINE",
"275 0 LINE",
"275 35 LINE",
"200 35 LINE",
"195 40 LINE",
"195 300 LINE",
"249 391 OFFCURVE",
"299 425 OFFCURVE",
"355 425 CURVE SMOOTH",
"416 425 OFFCURVE",
"435 385 OFFCURVE",
"435 320 CURVE SMOOTH",
"435 -19 LINE"
);
}
);
width = 595;
},
{
anchors = (
{
name = bottom;
position = "{320, 0}";
},
{
name = center;
position = "{139, 580}";
},
{
name = top;
position = "{320, 480}";
},
{
name = topright;
position = "{335, 480}";
}
);
components = (
{
name = _com_ipa_hook;
transform = "{1, 0, 0, 1, 10, 0}";
},
{
name = _com_ipa_hook;
transform = "{-1, 0, 0, -1, 620, 480}";
}
);
layerId = "37DD2CA1-C758-4BBE-932B-6884A881B1A3";
paths = (
{
closed = 1;
nodes = (
"550 -27 LINE",
"550 360 LINE SMOOTH",
"550 432 OFFCURVE",
"503 490 OFFCURVE",
"395 490 CURVE SMOOTH",
"303 490 OFFCURVE",
"255 448 OFFCURVE",
"225 395 CURVE",
"225 575 LINE",
"80 575 LINE",
"80 45 LINE",
"70 35 LINE",
"20 35 LINE",
"20 0 LINE",
"285 0 LINE",
"285 35 LINE",
"235 35 LINE",
"225 45 LINE",
"225 330 LINE",
"268 409 OFFCURVE",
"301 435 OFFCURVE",
"343 435 CURVE SMOOTH",
"381 435 OFFCURVE",
"405 414 OFFCURVE",
"405 350 CURVE SMOOTH",
"405 -27 LINE"
);
}
);
width = 630;
}
);
leftKerningGroup = l;
leftMetricsKey = "=h";
rightKerningGroup = nn;
unicode = 0267;
},
{
glyphname = hhook;
lastChange = "2019-09-11 14:15:49 +0000";
layers = (
{
anchors = (
{
name = bottom;
position = "{320, 0}";
},
{
name = center;
position = "{150, 580}";
},
{
name = top;
position = "{320, 460}";
},
{
name = topright;
position = "{305, 460}";
}
);
components = (
{
name = _com_ipa_hook;
transform = "{1, 0, 0, 1, 17, 0}";
}
);
layerId = "CF31647D-EA7E-42DE-ACE7-E9318D6117AA";
paths = (
{
closed = 1;
nodes = (
"115 509 LINE",
"115 40 LINE",
"110 35 LINE",
"35 35 LINE",
"35 0 LINE",
"275 0 LINE",
"275 35 LINE",
"200 35 LINE",
"195 40 LINE",
"195 300 LINE",
"249 391 OFFCURVE",
"299 425 OFFCURVE",
"355 425 CURVE SMOOTH",
"416 425 OFFCURVE",
"435 385 OFFCURVE",
"435 320 CURVE SMOOTH",
"435 40 LINE",
"430 35 LINE",
"355 35 LINE",
"355 0 LINE",
"595 0 LINE",
"595 35 LINE",
"520 35 LINE",
"515 40 LINE",
"515 340 LINE SMOOTH",
"515 412 OFFCURVE",
"480 470 OFFCURVE",
"377 470 CURVE SMOOTH",
"290 470 OFFCURVE",
"233 428 OFFCURVE",
"195 365 CURVE",
"195 509 LINE"
);
}
);
width = 635;
},
{
anchors = (
{
name = bottom;
position = "{320, 0}";
},
{
name = center;
position = "{139, 580}";
},
{
name = top;
position = "{320, 480}";
},
{
name = topright;
position = "{335, 480}";
}
);
components = (
{
name = _com_ipa_hook;
transform = "{1, 0, 0, 1, 10, 0}";
}
);
layerId = "37DD2CA1-C758-4BBE-932B-6884A881B1A3";
paths = (
{
closed = 1;
nodes = (
"80 511 LINE",
"80 45 LINE",
"70 35 LINE",
"20 35 LINE",
"20 0 LINE",
"285 0 LINE",
"285 35 LINE",
"235 35 LINE",
"225 45 LINE",
"225 330 LINE",
"268 409 OFFCURVE",
"301 435 OFFCURVE",
"343 435 CURVE SMOOTH",
"381 435 OFFCURVE",
"405 414 OFFCURVE",
"405 350 CURVE SMOOTH",
"405 45 LINE",
"395 35 LINE",
"345 35 LINE",
"345 0 LINE",
"610 0 LINE",
"610 35 LINE",
"560 35 LINE",
"550 45 LINE",
"550 360 LINE SMOOTH",
"550 432 OFFCURVE",
"503 490 OFFCURVE",
"395 490 CURVE SMOOTH",
"303 490 OFFCURVE",
"255 448 OFFCURVE",
"225 395 CURVE",
"225 511 LINE"
);
}
);
width = 640;
}
);
leftKerningGroup = l;
leftMetricsKey = "=h";
rightKerningGroup = nn;
rightMetricsKey = "=h";
unicode = 0266;
},
{
glyphname = idotless;
lastChange = "2019-09-11 14:15:49 +0000";
layers = (
{
anchors = (
{
name = bottom;
position = "{160, 0}";
},
{
name = ogonek;
position = "{200, 0}";
},
{
name = top;
position = "{155, 460}";
}
);
layerId = "CF31647D-EA7E-42DE-ACE7-E9318D6117AA";
paths = (
{
closed = 1;
nodes = (
"200 40 LINE",
"200 460 LINE",
"195 465 LINE",
"143 461 OFFCURVE",
"92 460 OFFCURVE",
"40 460 CURVE",
"40 425 LINE",
"115 425 LINE",
"120 420 LINE",
"120 40 LINE",
"115 35 LINE",
"40 35 LINE",
"40 0 LINE",
"280 0 LINE",
"280 35 LINE",
"205 35 LINE"
);
}
);
width = 320;
},
{
anchors = (
{
name = bottom;
position = "{161, 0}";
},
{
name = ogonek;
position = "{225, 0}";
},
{
name = top;
position = "{161, 480}";
}
);
layerId = "37DD2CA1-C758-4BBE-932B-6884A881B1A3";
paths = (
{
closed = 1;
nodes = (
"235 45 LINE",
"235 480 LINE",
"225 490 LINE",
"173 481 OFFCURVE",
"82 480 OFFCURVE",
"30 480 CURVE",
"30 445 LINE",
"80 445 LINE",
"90 435 LINE",
"90 45 LINE",
"80 35 LINE",
"30 35 LINE",
"30 0 LINE",
"295 0 LINE",
"295 35 LINE",
"245 35 LINE"
);
}
);
width = 325;
}
);
leftKerningGroup = n;
rightKerningGroup = n;
unicode = 0131;
},
{
glyphname = jdotless;
lastChange = "2020-09-27 08:17:39 +0000";
layers = (
{
anchors = (
{
name = bottom;
position = "{160, 0}";
},
{
name = top;
position = "{155, 460}";
}
);
layerId = "CF31647D-EA7E-42DE-ACE7-E9318D6117AA";
paths = (
{
closed = 1;
nodes = (
"143 461 OFFCURVE",
"92 460 OFFCURVE",
"40 460 CURVE",
"40 425 LINE",
"115 425 LINE",
"120 420 LINE",
"120 -113 LINE SMOOTH",
"120 -197 OFFCURVE",
"100 -230 OFFCURVE",
"54 -230 CURVE SMOOTH",
"34 -230 OFFCURVE",
"21 -223 OFFCURVE",
"12 -214 CURVE",
"37 -213 OFFCURVE",
"60 -195 OFFCURVE",
"60 -168 CURVE SMOOTH",
"60 -140 OFFCURVE",
"38 -118 OFFCURVE",
"10 -118 CURVE SMOOTH",
"-18 -118 OFFCURVE",
"-40 -141 OFFCURVE",
"-40 -173 CURVE SMOOTH",
"-40 -201 OFFCURVE",
"-19 -260 OFFCURVE",
"59 -260 CURVE SMOOTH",
"158 -260 OFFCURVE",
"200 -169 OFFCURVE",
"200 -64 CURVE SMOOTH",
"200 460 LINE",
"195 465 LINE"
);
}
);
width = 310;
},
{
anchors = (
{
name = bottom;
position = "{155, 0}";
},
{
name = top;
position = "{161, 480}";
}
);
layerId = "37DD2CA1-C758-4BBE-932B-6884A881B1A3";
paths = (
{
closed = 1;
nodes = (
"173 481 OFFCURVE",
"82 480 OFFCURVE",
"30 480 CURVE",
"30 445 LINE",
"80 445 LINE",
"90 435 LINE",
"90 0 LINE",
"159 -100 OFFCURVE",
"133 -225 OFFCURVE",
"59 -225 CURVE SMOOTH",
"54 -225 OFFCURVE",
"49 -224 OFFCURVE",
"44 -223 CURVE",
"66 -214 OFFCURVE",
"80 -193 OFFCURVE",
"80 -168 CURVE SMOOTH",
"80 -133 OFFCURVE",
"51 -103 OFFCURVE",
"15 -103 CURVE SMOOTH",
"-20 -103 OFFCURVE",
"-50 -133 OFFCURVE",
"-50 -168 CURVE SMOOTH",
"-50 -211 OFFCURVE",
"-23 -260 OFFCURVE",
"60 -260 CURVE SMOOTH",
"169 -260 OFFCURVE",
"235 -169 OFFCURVE",
"235 -64 CURVE SMOOTH",
"235 480 LINE",
"225 490 LINE"
);
}
);
width = 310;
}
);
leftKerningGroup = n;
rightKerningGroup = n;
unicode = 0237;
},
{
glyphname = jcrossedtail;
lastChange = "2019-09-11 14:15:49 +0000";
layers = (
{
anchors = (
{
name = bottom;
position = "{142, 0}";
},
{
name = top;
position = "{137, 640}";
}
);
layerId = "CF31647D-EA7E-42DE-ACE7-E9318D6117AA";
paths = (
{
closed = 1;
nodes = (
"125 461 OFFCURVE",
"74 460 OFFCURVE",
"22 460 CURVE",
"22 425 LINE",
"97 425 LINE",
"102 420 LINE",
"102 -107 LINE",
"182 -68 LINE",
"182 460 LINE",
"177 465 LINE"
);
},
{
closed = 1;
nodes = (
"167 570 OFFCURVE",
"192 595 OFFCURVE",
"192 625 CURVE SMOOTH",
"192 655 OFFCURVE",
"167 680 OFFCURVE",
"137 680 CURVE SMOOTH",
"107 680 OFFCURVE",
"82 655 OFFCURVE",
"82 625 CURVE SMOOTH",
"82 595 OFFCURVE",
"107 570 OFFCURVE",
"137 570 CURVE SMOOTH"
);
},
{
closed = 1;
nodes = (
"59 35 OFFCURVE",
"-40 -56 OFFCURVE",
"-40 -156 CURVE",
"-40 -222 OFFCURVE",
"-4 -260 OFFCURVE",
"41 -260 CURVE",
"107 -260 OFFCURVE",
"182 -208 OFFCURVE",
"182 -68 CURVE",
"102 -107 LINE",
"102 -172 OFFCURVE",
"79 -225 OFFCURVE",
"41 -225 CURVE",
"11 -225 OFFCURVE",
"-5 -192 OFFCURVE",
"-5 -156 CURVE",
"-5 -76 OFFCURVE",
"76 0 OFFCURVE",
"232 0 CURVE",
"232 35 LINE"
);
}
);
width = 272;
},
{
anchors = (
{
name = bottom;
position = "{152, 0}";
},
{
name = top;
position = "{158, 660}";
}
);
layerId = "37DD2CA1-C758-4BBE-932B-6884A881B1A3";
paths = (
{
closed = 1;
nodes = (
"170 481 OFFCURVE",
"79 480 OFFCURVE",
"27 480 CURVE",
"27 445 LINE",
"77 445 LINE",
"87 435 LINE",
"87 -70 LINE",
"232 -34 LINE",
"232 480 LINE",
"222 490 LINE"
);
},
{
closed = 1;
nodes = (
"204 540 OFFCURVE",
"243 579 OFFCURVE",
"243 625 CURVE SMOOTH",
"243 671 OFFCURVE",
"204 710 OFFCURVE",
"158 710 CURVE SMOOTH",
"112 710 OFFCURVE",
"73 671 OFFCURVE",
"73 625 CURVE SMOOTH",
"73 579 OFFCURVE",
"112 540 OFFCURVE",
"158 540 CURVE SMOOTH"
);
},
{
closed = 1;
nodes = (
"79 35 OFFCURVE",
"-50 -38 OFFCURVE",
"-50 -155 CURVE",
"-50 -222 OFFCURVE",
"-17 -260 OFFCURVE",
"54 -260 CURVE",
"129 -260 OFFCURVE",
"232 -189 OFFCURVE",
"232 -34 CURVE",
"87 -70 LINE",
"87 -196 OFFCURVE",
"66 -225 OFFCURVE",
"34 -225 CURVE",
"-3 -225 OFFCURVE",
"-15 -194 OFFCURVE",
"-15 -155 CURVE",
"-15 -52 OFFCURVE",
"110 0 OFFCURVE",
"312 0 CURVE",
"312 35 LINE"
);
}
);
width = 342;
}
);
leftKerningGroup = i;
leftMetricsKey = "=j";
rightKerningGroup = i;
rightMetricsKey = "=i";
unicode = 029D;
},
{
color = 0;
glyphname = jdotlessstrokehook;
lastChange = "2020-11-13 10:41:42 +0000";
layers = (
{
anchors = (
{
name = bottom;
position = "{160, 0}";
},
{
name = top;
position = "{155, 460}";
}
);
components = (
{
name = strokeshortcomb;
transform = "{0.8227, 0, 0, 1, 29, -160}";
},
{
name = _com_ipa_hook;
transform = "{1, 0, 0, 1, 22, 0}";
}
);
layerId = "CF31647D-EA7E-42DE-ACE7-E9318D6117AA";
paths = (
{
closed = 1;
nodes = (
"120 525 LINE",
"120 -113 LINE SMOOTH",
"120 -197 OFFCURVE",
"100 -230 OFFCURVE",
"54 -230 CURVE SMOOTH",
"34 -230 OFFCURVE",
"21 -223 OFFCURVE",
"12 -214 CURVE",
"37 -213 OFFCURVE",
"60 -195 OFFCURVE",
"60 -168 CURVE SMOOTH",
"60 -140 OFFCURVE",
"38 -118 OFFCURVE",
"10 -118 CURVE SMOOTH",
"-18 -118 OFFCURVE",
"-40 -141 OFFCURVE",
"-40 -173 CURVE SMOOTH",
"-40 -201 OFFCURVE",
"-19 -260 OFFCURVE",
"59 -260 CURVE SMOOTH",
"158 -260 OFFCURVE",
"200 -169 OFFCURVE",
"200 -64 CURVE SMOOTH",
"200 525 LINE"
);
}
);
width = 310;
},
{
anchors = (
{
name = bottom;
position = "{155, 0}";
},
{
name = top;
position = "{161, 480}";
}
);
components = (
{
name = strokeshortcomb;
transform = "{0.8227, 0, 0, 1, -1, -160}";
},
{
name = _com_ipa_hook;
transform = "{1, 0, 0, 1, 20, 0}";
}
);
layerId = "37DD2CA1-C758-4BBE-932B-6884A881B1A3";
paths = (
{
closed = 1;
nodes = (
"90 532 LINE",
"90 0 LINE",
"159 -100 OFFCURVE",
"133 -225 OFFCURVE",
"59 -225 CURVE SMOOTH",
"54 -225 OFFCURVE",
"49 -224 OFFCURVE",
"44 -223 CURVE",
"66 -214 OFFCURVE",
"80 -193 OFFCURVE",
"80 -168 CURVE SMOOTH",
"80 -133 OFFCURVE",
"51 -103 OFFCURVE",
"15 -103 CURVE SMOOTH",
"-20 -103 OFFCURVE",
"-50 -133 OFFCURVE",
"-50 -168 CURVE SMOOTH",
"-50 -211 OFFCURVE",
"-23 -260 OFFCURVE",
"60 -260 CURVE SMOOTH",
"169 -260 OFFCURVE",
"235 -169 OFFCURVE",
"235 -64 CURVE SMOOTH",
"235 532 LINE"
);
}
);
width = 310;
}
);
leftKerningGroup = l;
rightKerningGroup = f;
unicode = 0284;
},
{
glyphname = k;
lastChange = "2019-09-11 14:15:49 +0000";
layers = (
{
anchors = (
{
name = bottom;
position = "{288, 0}";
},
{
name = top;
position = "{288, 460}";
}
);
components = (
{
name = l;
}
);
layerId = "CF31647D-EA7E-42DE-ACE7-E9318D6117AA";
paths = (
{
closed = 1;
nodes = (
"254 255 LINE",
"402 40 LINE",
"397 35 LINE",
"345 35 LINE",
"345 0 LINE",
"570 0 LINE",
"570 35 LINE",
"505 35 LINE",
"321 302 LINE"
);
},
{
closed = 1;
nodes = (
"195 178 LINE",
"462 425 LINE",
"537 425 LINE",
"537 460 LINE",
"282 460 LINE",
"282 425 LINE",
"392 425 LINE",
"397 420 LINE",
"135 178 LINE"
);
}
);
width = 578;
},
{
associatedMasterId = "CF31647D-EA7E-42DE-ACE7-E9318D6117AA";
layerId = "3E410456-2250-4D60-A791-34C46F8167FC";
name = "Feb 1 18, 17:59";
paths = (
{
closed = 1;
nodes = (
"123 0 LINE",
"203 0 LINE",
"203 730 LINE",
"123 730 LINE"
);
},
{
closed = 1;
nodes = (
"30 0 LINE",
"266 0 LINE",
"266 38 LINE",
"30 38 LINE"
);
},
{
closed = 1;
nodes = (
"41 697 LINE",
"203 697 LINE",
"203 732 LINE",
"41 732 LINE"
);
},
{
closed = 1;
nodes = (
"182 190 LINE",
"506 448 LINE",
"437 439 LINE",
"169 222 LINE"
);
},
{
closed = 1;
nodes = (
"413 28 LINE",
"510 27 LINE",
"317 327 LINE",
"258 269 LINE"
);
},
{
closed = 1;
nodes = (
"332 0 LINE",
"581 0 LINE",
"581 38 LINE",
"332 38 LINE"
);
},
{
closed = 1;
nodes = (
"316 422 LINE",
"565 422 LINE",
"565 460 LINE",
"316 460 LINE"
);
}
);
width = 602;
},
{
anchors = (
{
name = bottom;
position = "{310, 0}";
},
{
name = top;
position = "{310, 480}";
}
);
components = (
{
name = l;
}
);
layerId = "37DD2CA1-C758-4BBE-932B-6884A881B1A3";
paths = (
{
closed = 1;
nodes = (
"277 259 LINE",
"392 45 LINE",
"382 35 LINE",
"335 35 LINE",
"335 0 LINE",
"620 0 LINE",
"620 35 LINE",
"565 35 LINE",
"396 353 LINE"
);
},
{
closed = 1;
nodes = (
"225 178 LINE",
"505 445 LINE",
"580 445 LINE",
"580 480 LINE",
"317 480 LINE",
"317 445 LINE",
"422 445 LINE",
"432 435 LINE",
"163 178 LINE"
);
}
);
width = 620;
}
);
leftKerningGroup = l;
leftMetricsKey = "=l";
rightKerningGroup = x;
unicode = 006B;
},
{
glyphname = kgreenlandic;
lastChange = "2020-09-26 20:21:31 +0000";
layers = (
{
components = (
{
name = idotless;
}
);
layerId = "CF31647D-EA7E-42DE-ACE7-E9318D6117AA";
paths = (
{
closed = 1;
nodes = (
"259 255 LINE",
"407 40 LINE",
"402 35 LINE",
"350 35 LINE",
"350 0 LINE",
"575 0 LINE",
"575 35 LINE",
"510 35 LINE",
"326 302 LINE"
);
},
{
closed = 1;
nodes = (
"200 178 LINE",
"467 425 LINE",
"542 425 LINE",
"542 460 LINE",
"287 460 LINE",
"287 425 LINE",
"397 425 LINE",
"402 420 LINE",
"140 178 LINE"
);
}
);
width = 583;
},
{
components = (
{
name = idotless;
}
);
layerId = "37DD2CA1-C758-4BBE-932B-6884A881B1A3";
paths = (
{
closed = 1;
nodes = (
"287 259 LINE",
"402 45 LINE",
"392 35 LINE",
"345 35 LINE",
"345 0 LINE",
"630 0 LINE",
"630 35 LINE",
"575 35 LINE",
"406 353 LINE"
);
},
{
closed = 1;
nodes = (
"235 178 LINE",
"515 445 LINE",
"590 445 LINE",
"590 480 LINE",
"327 480 LINE",
"327 445 LINE",
"432 445 LINE",
"442 435 LINE",
"173 178 LINE"
);
}
);
width = 630;
}
);
leftKerningGroup = n;
leftMetricsKey = "=n";
rightKerningGroup = x;
rightMetricsKey = "=k";
unicode = 0138;
},
{
glyphname = khook;
lastChange = "2019-09-11 14:15:49 +0000";
layers = (
{
anchors = (
{
name = bottom;
position = "{288, 0}";
},
{
name = center;
position = "{155, 335}";
},
{
name = top;
position = "{288, 460}";
},
{
name = topright;
position = "{305, 460}";
}
);
components = (
{
name = _com_ipa_hook;
transform = "{1, 0, 0, 1, 17, 0}";
}
);
layerId = "CF31647D-EA7E-42DE-ACE7-E9318D6117AA";
paths = (
{
closed = 1;
nodes = (
"254 255 LINE",
"402 40 LINE",
"397 35 LINE",
"345 35 LINE",
"345 0 LINE",
"570 0 LINE",
"570 35 LINE",
"505 35 LINE",
"321 302 LINE"
);
},
{
closed = 1;
nodes = (
"195 178 LINE",
"462 425 LINE",
"537 425 LINE",
"537 460 LINE",
"282 460 LINE",
"282 425 LINE",
"392 425 LINE",
"397 420 LINE",
"135 178 LINE"
);
},
{
closed = 1;
nodes = (
"115 524 LINE",
"115 40 LINE",
"110 35 LINE",
"35 35 LINE",
"35 0 LINE",
"275 0 LINE",
"275 35 LINE",
"200 35 LINE",
"195 40 LINE",
"195 524 LINE"
);
}
);
width = 578;
},
{
anchors = (
{
name = bottom;
position = "{310, 0}";
},
{
name = center;
position = "{154, 350}";
},
{
name = top;
position = "{310, 480}";
},
{
name = topright;
position = "{335, 480}";
}
);
components = (
{
name = _com_ipa_hook;
transform = "{1, 0, 0, 1, 10, 0}";
}
);
layerId = "37DD2CA1-C758-4BBE-932B-6884A881B1A3";
paths = (
{
closed = 1;
nodes = (
"277 259 LINE",
"392 45 LINE",
"382 35 LINE",
"335 35 LINE",
"335 0 LINE",
"620 0 LINE",
"620 35 LINE",
"565 35 LINE",
"396 353 LINE"
);
},
{
closed = 1;
nodes = (
"225 178 LINE",
"505 445 LINE",
"580 445 LINE",
"580 480 LINE",
"317 480 LINE",
"317 445 LINE",
"422 445 LINE",
"432 435 LINE",
"163 178 LINE"
);
},
{
closed = 1;
nodes = (
"80 565 LINE",
"80 45 LINE",
"70 35 LINE",
"20 35 LINE",
"20 0 LINE",
"285 0 LINE",
"285 35 LINE",
"235 35 LINE",
"225 45 LINE",
"225 565 LINE"
);
}
);
width = 620;
}
);
leftKerningGroup = l;
leftMetricsKey = "=k";
rightKerningGroup = x;
rightMetricsKey = "=k";
unicode = 0199;
},
{
glyphname = l;
lastChange = "2019-09-11 14:15:49 +0000";
layers = (
{
anchors = (
{
name = bottom;
position = "{155, 0}";
},
{
name = center;
position = "{155, 335}";
},
{
name = top;
position = "{155, 718}";
},
{
name = topright;
position = "{305, 460}";
}
);
components = (
{
name = _com_szeryf_small;
transform = "{1, 0, 0, 1, 45, 0}";
},
{
name = _com_small_serif_top;
transform = "{1, 0, 0, 1, 5, 0}";
}
);
layerId = "CF31647D-EA7E-42DE-ACE7-E9318D6117AA";
paths = (
{
closed = 1;
nodes = (
"115 20 LINE",
"195 20 LINE",
"195 708 LINE",
"115 708 LINE"
);
}
);
width = 315;
},
{
anchors = (
{
name = bottom;
position = "{154, 0}";
},
{
name = center;
position = "{154, 350}";
},
{
name = top;
position = "{154, 718}";
},
{
name = topright;
position = "{335, 480}";
}
);
components = (
{
name = _com_szeryf_small;
},
{
name = _com_small_serif_top;
transform = "{1, 0, 0, 1, -40, 0}";
}
);
layerId = "37DD2CA1-C758-4BBE-932B-6884A881B1A3";
paths = (
{
closed = 1;
nodes = (
"80 20 LINE",
"225 20 LINE",
"225 708 LINE",
"80 708 LINE"
);
}
);
width = 310;
}
);
leftKerningGroup = l;
rightKerningGroup = l;
unicode = 006C;
},
{
glyphname = lbelt;
lastChange = "2019-09-11 14:15:49 +0000";
layers = (
{
components = (
{
name = l;
transform = "{1, 0, 0, 1, 42, 0}";
}
);
layerId = "CF31647D-EA7E-42DE-ACE7-E9318D6117AA";
paths = (
{
closed = 1;
nodes = (
"327 241 LINE",
"215 221 OFFCURVE",
"70 243 OFFCURVE",
"70 346 CURVE",
"70 385 OFFCURVE",
"110 436 OFFCURVE",
"157 436 CURVE",
"157 471 LINE",
"96 471 OFFCURVE",
"35 413 OFFCURVE",
"35 346 CURVE",
"35 229 OFFCURVE",
"184 186 OFFCURVE",
"327 206 CURVE"
);
}
);
width = 367;
},
{
components = (
{
name = l;
transform = "{1, 0, 0, 1, 62, 0}";
}
);
layerId = "37DD2CA1-C758-4BBE-932B-6884A881B1A3";
paths = (
{
closed = 1;
nodes = (
"372 241 LINE",
"220 221 OFFCURVE",
"55 253 OFFCURVE",
"55 366 CURVE",
"55 405 OFFCURVE",
"95 456 OFFCURVE",
"142 456 CURVE",
"142 491 LINE",
"81 491 OFFCURVE",
"20 433 OFFCURVE",
"20 366 CURVE",
"20 239 OFFCURVE",
"189 186 OFFCURVE",
"372 206 CURVE"
);
}
);
width = 397;
}
);
leftKerningGroup = l;
leftMetricsKey = "=l";
rightKerningGroup = l;
rightMetricsKey = "=l";
unicode = 026C;
},
{
glyphname = lezh;
lastChange = "2019-09-11 14:15:49 +0000";
layers = (
{
layerId = "CF31647D-EA7E-42DE-ACE7-E9318D6117AA";
paths = (
{
closed = 1;
nodes = (
"515 -260 OFFCURVE",
"616 -161 OFFCURVE",
"616 -44 CURVE SMOOTH",
"616 66 OFFCURVE",
"535 144 OFFCURVE",
"410 165 CURVE",
"607 435 LINE",
"607 460 LINE",
"195 460 LINE",
"195 310 LINE",
"195 415 OFFCURVE",
"258 425 OFFCURVE",
"349 425 CURVE SMOOTH",
"498 425 LINE",
"503 420 LINE",
"314 158 LINE",
"314 133 LINE",
"465 133 OFFCURVE",
"529 53 OFFCURVE",
"529 -44 CURVE SMOOTH",
"529 -126 OFFCURVE",
"475 -220 OFFCURVE",
"376 -220 CURVE SMOOTH",
"316 -220 OFFCURVE",
"267 -186 OFFCURVE",
"227 -143 CURVE",
"200 -166 LINE",
"240 -216 OFFCURVE",
"303 -260 OFFCURVE",
"388 -260 CURVE SMOOTH"
);
},
{
closed = 1;
nodes = (
"195 730 LINE",
"190 735 LINE",
"138 731 OFFCURVE",
"87 730 OFFCURVE",
"35 730 CURVE",
"35 695 LINE",
"110 695 LINE",
"115 690 LINE",
"115 40 LINE",
"110 35 LINE",
"35 35 LINE",
"35 0 LINE",
"195 0 LINE"
);
}
);
width = 651;
},
{
layerId = "37DD2CA1-C758-4BBE-932B-6884A881B1A3";
paths = (
{
closed = 1;
nodes = (
"575 -260 OFFCURVE",
"694 -170 OFFCURVE",
"694 -45 CURVE SMOOTH",
"694 30 OFFCURVE",
"656 125 OFFCURVE",
"502 164 CURVE",
"689 445 LINE",
"689 480 LINE",
"225 480 LINE",
"225 310 LINE",
"225 435 OFFCURVE",
"333 445 OFFCURVE",
"384 445 CURVE SMOOTH",
"510 445 LINE",
"515 440 LINE",
"342 181 LINE",
"342 151 LINE",
"516 151 OFFCURVE",
"534 20 OFFCURVE",
"534 -43 CURVE SMOOTH",
"534 -134 OFFCURVE",
"485 -210 OFFCURVE",
"400 -210 CURVE SMOOTH",
"340 -210 OFFCURVE",
"281 -172 OFFCURVE",
"245 -133 CURVE",
"218 -156 LINE",
"258 -205 OFFCURVE",
"318 -260 OFFCURVE",
"431 -260 CURVE SMOOTH"
);
},
{
closed = 1;
nodes = (
"225 730 LINE",
"215 740 LINE",
"163 731 OFFCURVE",
"72 730 OFFCURVE",
"20 730 CURVE",
"20 695 LINE",
"70 695 LINE",
"80 685 LINE",
"80 45 LINE",
"70 35 LINE",
"20 35 LINE",
"20 0 LINE",
"225 -1 LINE"
);
}
);
width = 718;
}
);
leftKerningGroup = l;
leftMetricsKey = "=lzdigraph";
rightKerningGroup = n;
rightMetricsKey = "=lzdigraph";
unicode = 026E;
},
{
glyphname = lhookretroflex;
lastChange = "2019-09-11 14:15:49 +0000";
layers = (
{
anchors = (
{
name = bottom;
position = "{148, 0}";
},
{
name = center;
position = "{148, 335}";
},
{
name = top;
position = "{148, 718}";
},
{
name = topright;
position = "{298, 460}";
}
);
components = (
{
name = _com_small_serif_top;
transform = "{1, 0, 0, 1, -2, 0}";
}
);
layerId = "CF31647D-EA7E-42DE-ACE7-E9318D6117AA";
paths = (
{
closed = 1;
nodes = (
"282 -198 OFFCURVE",
"265 -215 OFFCURVE",
"238 -215 CURVE SMOOTH",
"208 -215 OFFCURVE",
"188 -195 OFFCURVE",
"188 -151 CURVE SMOOTH",
"188 708 LINE",
"108 708 LINE",
"108 -145 LINE SMOOTH",
"108 -230 OFFCURVE",
"161 -260 OFFCURVE",
"217 -260 CURVE SMOOTH",
"276 -260 OFFCURVE",
"306 -227 OFFCURVE",
"328 -196 CURVE",
"301 -173 LINE"
);
}
);
width = 308;
},
{
anchors = (
{
name = bottom;
position = "{150, 0}";
},
{
name = center;
position = "{150, 350}";
},
{
name = top;
position = "{150, 718}";
},
{
name = topright;
position = "{331, 480}";
}
);
components = (
{
name = _com_small_serif_top;
transform = "{1, 0, 0, 1, -44, 0}";
}
);
layerId = "37DD2CA1-C758-4BBE-932B-6884A881B1A3";
paths = (
{
closed = 1;
nodes = (
"327 -173 OFFCURVE",
"300 -185 OFFCURVE",
"273 -185 CURVE SMOOTH",
"243 -185 OFFCURVE",
"221 -155 OFFCURVE",
"221 -111 CURVE SMOOTH",
"221 708 LINE",
"76 708 LINE",
"76 -85 LINE SMOOTH",
"76 -226 OFFCURVE",
"172 -250 OFFCURVE",
"237 -250 CURVE SMOOTH",
"316 -250 OFFCURVE",
"347 -220 OFFCURVE",
"381 -161 CURVE",
"354 -138 LINE"
);
}
);
width = 306;
}
);
leftKerningGroup = l;
leftMetricsKey = "=l*0.8";
rightKerningGroup = l;
unicode = 026D;
},
{
glyphname = lsdigraph;
lastChange = "2019-09-11 14:15:49 +0000";
layers = (
{
anchors = (
{
name = bottom;
position = "{544, 0}";
},
{
name = center;
position = "{155, 335}";
},
{
name = top;
position = "{544, 460}";
},
{
name = topright;
position = "{305, 460}";
}
);
layerId = "CF31647D-EA7E-42DE-ACE7-E9318D6117AA";
paths = (
{
closed = 1;
nodes = (
"298 397 OFFCURVE",
"322 435 OFFCURVE",
"392 435 CURVE SMOOTH",
"466 435 OFFCURVE",
"512 386 OFFCURVE",
"541 314 CURVE",
"574 324 LINE",
"560 369 OFFCURVE",
"550 415 OFFCURVE",
"544 460 CURVE",
"506 460 LINE",
"496 439 LINE",
"473 458 OFFCURVE",
"435 470 OFFCURVE",
"393 470 CURVE SMOOTH",
"309 470 OFFCURVE",
"228 427 OFFCURVE",
"228 339 CURVE SMOOTH",
"228 165 OFFCURVE",
"513 227 OFFCURVE",
"513 104 CURVE SMOOTH",
"513 50 OFFCURVE",
"450 25 OFFCURVE",
"383 25 CURVE SMOOTH",
"319 25 OFFCURVE",
"207 37 OFFCURVE",
"195 146 CURVE",
"195 730 LINE",
"190 735 LINE",
"138 731 OFFCURVE",
"87 730 OFFCURVE",
"35 730 CURVE",
"35 695 LINE",
"110 695 LINE",
"115 690 LINE",
"115 40 LINE",
"110 35 LINE",
"35 35 LINE",
"35 0 LINE",
"195 0 LINE",
"195 50 LINE",
"247 3 OFFCURVE",
"310 -10 OFFCURVE",
"385 -10 CURVE SMOOTH",
"472 -10 OFFCURVE",
"583 26 OFFCURVE",
"583 127 CURVE SMOOTH",
"583 305 OFFCURVE",
"298 254 OFFCURVE",
"298 361 CURVE SMOOTH"
);
}
);
width = 633;
},
{
anchors = (
{
name = bottom;
position = "{545, 0}";
},
{
name = center;
position = "{154, 350}";
},
{
name = top;
position = "{545, 480}";
},
{
name = topright;
position = "{335, 480}";
}
);
layerId = "37DD2CA1-C758-4BBE-932B-6884A881B1A3";
paths = (
{
closed = 1;
nodes = (
"381 436 OFFCURVE",
"416 455 OFFCURVE",
"459 455 CURVE SMOOTH",
"524 455 OFFCURVE",
"571 412 OFFCURVE",
"619 314 CURVE",
"652 324 LINE",
"638 369 OFFCURVE",
"628 425 OFFCURVE",
"622 480 CURVE",
"584 480 LINE",
"577 465 LINE",
"556 477 OFFCURVE",
"520 490 OFFCURVE",
"464 490 CURVE SMOOTH",
"358 490 OFFCURVE",
"266 444 OFFCURVE",
"266 339 CURVE SMOOTH",
"266 153 OFFCURVE",
"556 186 OFFCURVE",
"556 83 CURVE SMOOTH",
"556 47 OFFCURVE",
"510 25 OFFCURVE",
"448 25 CURVE SMOOTH",
"393 25 OFFCURVE",
"225 35 OFFCURVE",
"225 185 CURVE SMOOTH",
"225 730 LINE",
"215 740 LINE",
"163 731 OFFCURVE",
"72 730 OFFCURVE",
"20 730 CURVE",
"20 695 LINE",
"70 695 LINE",
"80 685 LINE",
"80 45 LINE",
"70 35 LINE",
"20 35 LINE",
"20 0 LINE",
"225 0 LINE",
"225 45 LINE",
"297 1 OFFCURVE",
"390 -10 OFFCURVE",
"444 -10 CURVE SMOOTH",
"566 -10 OFFCURVE",
"661 48 OFFCURVE",
"661 148 CURVE SMOOTH",
"661 328 OFFCURVE",
"381 291 OFFCURVE",
"381 398 CURVE SMOOTH"
);
}
);
width = 696;
}
);
leftKerningGroup = l;
leftMetricsKey = "=l";
rightKerningGroup = o;
rightMetricsKey = "=s";
unicode = 02AA;
},
{
glyphname = lzdigraph;
lastChange = "2019-09-11 14:15:49 +0000";
layers = (
{
anchors = (
{
name = bottom;
position = "{155, 0}";
},
{
name = center;
position = "{155, 335}";
},
{
name = top;
position = "{155, 718}";
},
{
name = topright;
position = "{305, 460}";
}
);
layerId = "CF31647D-EA7E-42DE-ACE7-E9318D6117AA";
paths = (
{
closed = 1;
nodes = (
"622 60 OFFCURVE",
"595 35 OFFCURVE",
"443 35 CURVE SMOOTH",
"376 35 LINE",
"371 40 LINE",
"664 435 LINE",
"664 460 LINE",
"195 460 LINE",
"195 730 LINE",
"190 735 LINE",
"138 731 OFFCURVE",
"87 730 OFFCURVE",
"35 730 CURVE",
"35 695 LINE",
"110 695 LINE",
"115 690 LINE",
"115 40 LINE",
"110 35 LINE",
"35 35 LINE",
"35 0 LINE",
"195 0 LINE",
"195 310 LINE SMOOTH",
"195 407 OFFCURVE",
"257 425 OFFCURVE",
"348 425 CURVE SMOOTH",
"550 425 LINE",
"555 420 LINE",
"262 25 LINE",
"262 0 LINE",
"654 0 LINE",
"689 155 LINE",
"654 155 LINE"
);
}
);
width = 724;
},
{
anchors = (
{
name = bottom;
position = "{154, 0}";
},
{
name = center;
position = "{154, 350}";
},
{
name = top;
position = "{154, 718}";
},
{
name = topright;
position = "{335, 480}";
}
);
layerId = "37DD2CA1-C758-4BBE-932B-6884A881B1A3";
paths = (
{
closed = 1;
nodes = (
"667 70 OFFCURVE",
"583 35 OFFCURVE",
"511 35 CURVE SMOOTH",
"449 35 LINE",
"444 40 LINE",
"722 445 LINE",
"722 480 LINE",
"225 480 LINE",
"225 730 LINE",
"215 740 LINE",
"163 731 OFFCURVE",
"72 730 OFFCURVE",
"20 730 CURVE",
"20 695 LINE",
"70 695 LINE",
"80 685 LINE",
"80 45 LINE",
"70 35 LINE",
"20 35 LINE",
"20 0 LINE",
"225 -1 LINE",
"225 329 LINE",
"237 436 OFFCURVE",
"354 445 OFFCURVE",
"402 445 CURVE SMOOTH",
"543 445 LINE",
"548 440 LINE",
"270 30 LINE",
"270 0 LINE",
"702 0 LINE",
"744 185 LINE",
"709 185 LINE"
);
}
);
width = 768;
}
);
leftMetricsKey = "=l";
rightMetricsKey = "=z";
unicode = 02AB;
},
{
glyphname = m;
lastChange = "2019-09-11 14:15:49 +0000";
layers = (
{
anchors = (
{
name = bottom;
position = "{475, 0}";
},
{
name = top;
position = "{475, 460}";
}
);
layerId = "CF31647D-EA7E-42DE-ACE7-E9318D6117AA";
paths = (
{
closed = 1;
nodes = (
"820 40 LINE",
"820 340 LINE SMOOTH",
"820 412 OFFCURVE",
"785 470 OFFCURVE",
"682 470 CURVE SMOOTH",
"597 470 OFFCURVE",
"547 430 OFFCURVE",
"509 364 CURVE",
"501 425 OFFCURVE",
"463 470 OFFCURVE",
"372 470 CURVE SMOOTH",
"285 470 OFFCURVE",
"238 428 OFFCURVE",
"200 365 CURVE",
"195 365 LINE",
"195 460 LINE",
"190 465 LINE",
"138 461 OFFCURVE",
"92 460 OFFCURVE",
"40 460 CURVE",
"40 425 LINE",
"115 425 LINE",
"120 420 LINE",
"120 40 LINE",
"115 35 LINE",
"40 35 LINE",
"40 0 LINE",
"275 0 LINE",
"275 35 LINE",
"205 35 LINE",
"200 40 LINE",
"200 300 LINE",
"254 391 OFFCURVE",
"294 425 OFFCURVE",
"350 425 CURVE SMOOTH",
"411 425 OFFCURVE",
"430 385 OFFCURVE",
"430 320 CURVE SMOOTH",
"430 40 LINE",
"425 35 LINE",
"355 35 LINE",
"355 0 LINE",
"585 0 LINE",
"585 35 LINE",
"515 35 LINE",
"510 40 LINE",
"510 300 LINE",
"564 391 OFFCURVE",
"604 425 OFFCURVE",
"660 425 CURVE SMOOTH",
"721 425 OFFCURVE",
"740 385 OFFCURVE",
"740 320 CURVE SMOOTH",
"740 40 LINE",
"735 35 LINE",
"665 35 LINE",
"665 0 LINE",
"900 0 LINE",
"900 35 LINE",
"825 35 LINE"
);
}
);
width = 940;
},
{
anchors = (
{
name = bottom;
position = "{483, 0}";
},
{
name = top;
position = "{483, 480}";
}
);
layerId = "37DD2CA1-C758-4BBE-932B-6884A881B1A3";
paths = (
{
closed = 1;
nodes = (
"865 45 LINE",
"865 360 LINE SMOOTH",
"865 432 OFFCURVE",
"818 490 OFFCURVE",
"715 490 CURVE SMOOTH",
"626 490 OFFCURVE",
"577 449 OFFCURVE",
"546 394 CURVE",
"533 449 OFFCURVE",
"486 490 OFFCURVE",
"400 490 CURVE SMOOTH",
"308 490 OFFCURVE",
"265 448 OFFCURVE",
"235 395 CURVE",
"225 395 LINE",
"225 480 LINE",
"215 490 LINE",
"163 481 OFFCURVE",
"82 480 OFFCURVE",
"30 480 CURVE",
"30 445 LINE",
"80 445 LINE",
"90 435 LINE",
"90 45 LINE",
"80 35 LINE",
"30 35 LINE",
"30 0 LINE",
"285 0 LINE",
"285 35 LINE",
"245 35 LINE",
"235 45 LINE",
"235 330 LINE",
"278 409 OFFCURVE",
"306 435 OFFCURVE",
"348 435 CURVE SMOOTH",
"386 435 OFFCURVE",
"405 414 OFFCURVE",
"405 350 CURVE SMOOTH",
"405 45 LINE",
"395 35 LINE",
"355 35 LINE",
"355 0 LINE",
"600 0 LINE",
"600 35 LINE",
"560 35 LINE",
"550 45 LINE",
"550 330 LINE",
"593 409 OFFCURVE",
"621 435 OFFCURVE",
"663 435 CURVE SMOOTH",
"701 435 OFFCURVE",
"720 414 OFFCURVE",
"720 350 CURVE SMOOTH",
"720 45 LINE",
"710 35 LINE",
"670 35 LINE",
"670 0 LINE",
"925 0 LINE",
"925 35 LINE",
"875 35 LINE"
);
}
);
width = 955;
}
);
leftKerningGroup = n;
leftMetricsKey = "=n";
rightKerningGroup = n;
rightMetricsKey = "=n";
unicode = 006D;
},
{
color = 0;
glyphname = mhook;
lastChange = "2020-11-13 10:41:42 +0000";
layers = (
{
anchors = (
{
name = bottom;
position = "{475, 0}";
},
{
name = top;
position = "{475, 460}";
}
);
components = (
{
name = _com_ipa_hook;
transform = "{-1, 0, 0, -1, 918, 460}";
}
);
layerId = "CF31647D-EA7E-42DE-ACE7-E9318D6117AA";
paths = (
{
closed = 1;
nodes = (
"820 -5 LINE",
"820 340 LINE SMOOTH",
"820 412 OFFCURVE",
"785 470 OFFCURVE",
"682 470 CURVE SMOOTH",
"597 470 OFFCURVE",
"547 430 OFFCURVE",
"509 364 CURVE",
"501 425 OFFCURVE",
"463 470 OFFCURVE",
"372 470 CURVE SMOOTH",
"285 470 OFFCURVE",
"238 428 OFFCURVE",
"200 365 CURVE",
"195 365 LINE",
"195 460 LINE",
"190 465 LINE",
"138 461 OFFCURVE",
"92 460 OFFCURVE",
"40 460 CURVE",
"40 425 LINE",
"115 425 LINE",
"120 420 LINE",
"120 40 LINE",
"115 35 LINE",
"40 35 LINE",
"40 0 LINE",
"275 0 LINE",
"275 35 LINE",
"205 35 LINE",
"200 40 LINE",
"200 300 LINE",
"254 391 OFFCURVE",
"294 425 OFFCURVE",
"350 425 CURVE SMOOTH",
"411 425 OFFCURVE",
"430 385 OFFCURVE",
"430 320 CURVE SMOOTH",
"430 40 LINE",
"425 35 LINE",
"355 35 LINE",
"355 0 LINE",
"585 0 LINE",
"585 35 LINE",
"515 35 LINE",
"510 40 LINE",
"510 300 LINE",
"564 391 OFFCURVE",
"604 425 OFFCURVE",
"660 425 CURVE SMOOTH",
"721 425 OFFCURVE",
"740 385 OFFCURVE",
"740 320 CURVE SMOOTH",
"740 -5 LINE"
);
}
);
width = 900;
},
{
anchors = (
{
name = bottom;
position = "{483, 0}";
},
{
name = top;
position = "{483, 480}";
}
);
components = (
{
name = _com_ipa_hook;
transform = "{-1, 0, 0, -1, 935, 480}";
}
);
layerId = "37DD2CA1-C758-4BBE-932B-6884A881B1A3";
paths = (
{
closed = 1;
nodes = (
"865 -8 LINE",
"865 360 LINE SMOOTH",
"865 432 OFFCURVE",
"818 490 OFFCURVE",
"715 490 CURVE SMOOTH",
"626 490 OFFCURVE",
"577 449 OFFCURVE",
"546 394 CURVE",
"533 449 OFFCURVE",
"486 490 OFFCURVE",
"400 490 CURVE SMOOTH",
"308 490 OFFCURVE",
"265 448 OFFCURVE",
"235 395 CURVE",
"225 395 LINE",
"225 480 LINE",
"215 490 LINE",
"163 481 OFFCURVE",
"82 480 OFFCURVE",
"30 480 CURVE",
"30 445 LINE",
"80 445 LINE",
"90 435 LINE",
"90 45 LINE",
"80 35 LINE",
"30 35 LINE",
"30 0 LINE",
"285 0 LINE",
"285 35 LINE",
"245 35 LINE",
"235 45 LINE",
"235 330 LINE",
"278 409 OFFCURVE",
"306 435 OFFCURVE",
"348 435 CURVE SMOOTH",
"386 435 OFFCURVE",
"405 414 OFFCURVE",
"405 350 CURVE SMOOTH",
"405 45 LINE",
"395 35 LINE",
"355 35 LINE",
"355 0 LINE",
"600 0 LINE",
"600 35 LINE",
"560 35 LINE",
"550 45 LINE",
"550 330 LINE",
"593 409 OFFCURVE",
"621 435 OFFCURVE",
"663 435 CURVE SMOOTH",
"701 435 OFFCURVE",
"720 414 OFFCURVE",
"720 350 CURVE SMOOTH",
"720 -8 LINE"
);
}
);
width = 945;
}
);
leftKerningGroup = n;
leftMetricsKey = "=n";
rightKerningGroup = n;
rightMetricsKey = "=henghook";
unicode = 0271;
},
{
glyphname = mlonglegturned;
lastChange = "2019-09-11 14:15:49 +0000";
layers = (
{
anchors = (
{
name = bottom;
position = "{441, 0}";
},
{
name = top;
position = "{441, 460}";
}
);
layerId = "CF31647D-EA7E-42DE-ACE7-E9318D6117AA";
paths = (
{
closed = 1;
nodes = (
"96 420 LINE",
"96 120 LINE SMOOTH",
"96 48 OFFCURVE",
"131 -10 OFFCURVE",
"234 -10 CURVE SMOOTH",
"319 -10 OFFCURVE",
"369 30 OFFCURVE",
"407 96 CURVE",
"415 35 OFFCURVE",
"453 -10 OFFCURVE",
"544 -10 CURVE SMOOTH",
"631 -10 OFFCURVE",
"678 32 OFFCURVE",
"716 95 CURVE",
"721 95 LINE",
"721 -250 LINE",
"726 -255 LINE",
"778 -251 OFFCURVE",
"824 -250 OFFCURVE",
"876 -250 CURVE",
"876 -215 LINE",
"801 -215 LINE",
"796 -210 LINE",
"796 420 LINE",
"801 425 LINE",
"876 425 LINE",
"876 460 LINE",
"641 460 LINE",
"641 425 LINE",
"711 425 LINE",
"716 420 LINE",
"716 160 LINE",
"662 69 OFFCURVE",
"622 35 OFFCURVE",
"566 35 CURVE SMOOTH",
"505 35 OFFCURVE",
"486 75 OFFCURVE",
"486 140 CURVE SMOOTH",
"486 420 LINE",
"491 425 LINE",
"561 425 LINE",
"561 460 LINE",
"331 460 LINE",
"331 425 LINE",
"401 425 LINE",
"406 420 LINE",
"406 160 LINE",
"352 69 OFFCURVE",
"312 35 OFFCURVE",
"256 35 CURVE SMOOTH",
"195 35 OFFCURVE",
"176 75 OFFCURVE",
"176 140 CURVE SMOOTH",
"176 420 LINE",
"181 425 LINE",
"251 425 LINE",
"251 460 LINE",
"16 460 LINE",
"16 425 LINE",
"91 425 LINE"
);
}
);
width = 916;
},
{
anchors = (
{
name = bottom;
position = "{454, 0}";
},
{
name = top;
position = "{454, 480}";
}
);
layerId = "37DD2CA1-C758-4BBE-932B-6884A881B1A3";
paths = (
{
closed = 1;
nodes = (
"72 435 LINE",
"72 120 LINE SMOOTH",
"72 48 OFFCURVE",
"119 -10 OFFCURVE",
"222 -10 CURVE SMOOTH",
"311 -10 OFFCURVE",
"360 31 OFFCURVE",
"391 86 CURVE",
"404 31 OFFCURVE",
"451 -10 OFFCURVE",
"537 -10 CURVE SMOOTH",
"629 -10 OFFCURVE",
"672 32 OFFCURVE",
"702 85 CURVE",
"712 85 LINE",
"712 -250 LINE",
"722 -260 LINE",
"774 -251 OFFCURVE",
"855 -250 OFFCURVE",
"907 -250 CURVE",
"907 -215 LINE",
"857 -215 LINE",
"847 -205 LINE",
"847 435 LINE",
"857 445 LINE",
"907 445 LINE",
"907 480 LINE",
"652 480 LINE",
"652 445 LINE",
"692 445 LINE",
"702 435 LINE",
"702 150 LINE",
"659 71 OFFCURVE",
"631 45 OFFCURVE",
"589 45 CURVE SMOOTH",
"551 45 OFFCURVE",
"532 66 OFFCURVE",
"532 130 CURVE SMOOTH",
"532 435 LINE",
"542 445 LINE",
"582 445 LINE",
"582 480 LINE",
"337 480 LINE",
"337 445 LINE",
"377 445 LINE",
"387 435 LINE",
"387 150 LINE",
"344 71 OFFCURVE",
"316 45 OFFCURVE",
"274 45 CURVE SMOOTH",
"236 45 OFFCURVE",
"217 66 OFFCURVE",
"217 130 CURVE SMOOTH",
"217 435 LINE",
"227 445 LINE",
"267 445 LINE",
"267 480 LINE",
"12 480 LINE",
"12 445 LINE",
"62 445 LINE"
);
}
);
width = 937;
}
);
leftKerningGroup = n;
leftMetricsKey = "=u";
rightKerningGroup = n;
rightMetricsKey = "=n";
unicode = 0270;
},
{
glyphname = mmiddletilde;
lastChange = "2019-09-11 14:15:49 +0000";
layers = (
{
anchors = (
{
name = _top;
position = "{165, 66}";
},
{
name = top;
position = "{165, 246}";
}
);
components = (
{
name = m;
transform = "{1, 0, 0, 1, 11, 0}";
}
);
layerId = "CF31647D-EA7E-42DE-ACE7-E9318D6117AA";
paths = (
{
closed = 1;
nodes = (
"857 242 OFFCURVE",
"838 230 OFFCURVE",
"747 230 CURVE SMOOTH",
"580 230 OFFCURVE",
"381 291 OFFCURVE",
"219 291 CURVE SMOOTH",
"107 291 OFFCURVE",
"64 263 OFFCURVE",
"40 190 CURVE",
"68 175 LINE",
"93 219 OFFCURVE",
"112 231 OFFCURVE",
"203 231 CURVE SMOOTH",
"350 231 OFFCURVE",
"545 170 OFFCURVE",
"730 170 CURVE SMOOTH",
"840 170 OFFCURVE",
"885 194 OFFCURVE",
"910 271 CURVE",
"882 286 LINE"
);
}
);
width = 951;
},
{
anchors = (
{
name = _top;
position = "{175, 98}";
},
{
name = top;
position = "{175, 278}";
}
);
components = (
{
name = m;
transform = "{1, 0, 0, 1, 31, 0}";
}
);
layerId = "37DD2CA1-C758-4BBE-932B-6884A881B1A3";
paths = (
{
closed = 1;
nodes = (
"886 267 OFFCURVE",
"866 262 OFFCURVE",
"780 262 CURVE SMOOTH",
"633 262 OFFCURVE",
"394 303 OFFCURVE",
"235 303 CURVE SMOOTH",
"101 303 OFFCURVE",
"55 269 OFFCURVE",
"30 177 CURVE",
"58 162 LINE",
"93 196 OFFCURVE",
"113 203 OFFCURVE",
"212 203 CURVE SMOOTH",
"358 203 OFFCURVE",
"592 162 OFFCURVE",
"753 162 CURVE SMOOTH",
"879 162 OFFCURVE",
"925 196 OFFCURVE",
"960 288 CURVE",
"932 303 LINE"
);
}
);
width = 990;
}
);
leftKerningGroup = n;
leftMetricsKey = "=m";
rightKerningGroup = n;
rightMetricsKey = "=m";
unicode = 1D6F;
},
